<svg width="126" height="123" viewBox="0 0 126 123" fill="none" xmlns="http://www.w3.org/2000/svg">
<path d="M25.735 0.799577C28.4393 5.36979 31.1883 9.91445 33.8213 14.5258C34.6309 15.9436 35.4308 15.9489 36.1792 14.7391C39.1767 9.89453 42.0833 4.99321 45.0913 1.10153e-05C40.8259 1.06424e-05 36.7734 1.02881e-05 32.7207 9.9338e-06C30.4601 0.865345 27.9467 -0.49589 25.735 0.799577Z" fill="#123017"/>
<path d="M51.919 52.1434C49.7799 52.4159 50.1107 54.0868 49.9109 55.0927C49.7814 55.7447 50.3012 57.5747 51.5736 56.7764C52.7023 56.0682 55.1065 57.3337 54.9901 54.8809C54.8971 52.9202 52.8158 53.0479 51.919 52.1434Z" fill="#123017"/>
<path d="M44.974 111.014C45.4752 109.667 47.7192 111.457 48.0843 109.436C47.1686 109.286 48.1261 107.268 46.5679 107.842C45.3663 108.286 43.5621 107.77 43.1322 109.437C42.9552 110.123 43.544 111.239 44.974 111.014Z" fill="#123017"/>
<path d="M57.682 100.886C58.1663 101.624 58.6722 102.655 59.4395 102.407C60.9241 101.926 61.3411 100.244 62.1962 99.0696C62.251 98.9942 61.1289 97.6539 60.7729 97.7467C59.193 98.1591 58.8861 99.9821 57.682 100.886Z" fill="#123017"/>
<path d="M12.199 15.9389C11.2694 16.7944 9.48483 16.8237 9.35776 18.4986C9.31266 19.0935 10.0635 19.8527 10.8635 19.5802C12.0699 19.1694 13.4901 18.7399 13.8306 17.3488C14.0377 16.5028 13.1903 16.0018 12.199 15.9389Z" fill="#123017"/>
<path d="M120.233 76.8578C119.609 77.4311 118.199 77.3785 118.771 78.4684C119.338 79.548 119.148 81.2974 120.938 81.5135C121.804 81.6182 122.494 80.9453 122.245 80.3601C121.728 79.1449 121.642 77.5591 120.233 76.8578Z" fill="#123017"/>
<path d="M63.0364 93.2254C62.8672 94.5438 63.6291 95.1996 64.3573 95.0491C65.8981 94.7304 65.8959 93.032 66.4927 91.9033C67.0871 90.7788 65.9283 90.875 65.3897 90.7314C64.5048 90.4958 63.1264 92.1603 63.0364 93.2254Z" fill="#123017"/>
<path d="M22.551 103.114C23.8311 103.224 24.3399 102.51 24.0921 101.867C23.6381 100.689 23.5724 99.0408 21.8226 98.8366C21.0699 98.7486 20.2867 99.1218 20.6013 99.9689C21.056 101.194 21.2613 102.721 22.551 103.114Z" fill="#123017"/>
<path d="M54.3494 103.775C53.4915 104.751 51.8355 104.837 51.3863 106.359C51.1277 107.235 52.0043 107.958 52.4978 107.83C53.8857 107.471 55.2444 106.664 55.9494 105.428C56.33 104.761 55.1489 104.305 54.3494 103.775Z" fill="#123017"/>
<path d="M4.53809 26.0257C5.25973 24.5652 6.94978 24.1041 7.1927 22.5779C7.28908 21.9724 6.4765 21.3472 5.67907 21.5141C4.0041 21.8646 3.64483 23.4832 2.93236 24.711C2.88464 24.793 3.84303 25.4634 4.53809 26.0257Z" fill="#123017"/>
<path d="M93.5629 55.5C93.9878 57.0056 95.6715 56.6236 96.8459 57.0962C97.9426 57.5376 98.4651 56.2069 98.3786 55.9326C97.8639 54.2996 96.145 54.6241 94.9227 54.142C94.0785 53.809 93.5899 54.2938 93.5629 55.5Z" fill="#123017"/>
<path d="M34.2737 63.7217C34.6231 64.4367 35.0388 65.2535 35.7969 64.9743C37.0974 64.4951 38.5766 63.9404 39.0292 62.497C39.1858 61.997 37.9761 61.012 37.4273 61.2856C36.2594 61.8683 34.9031 62.3999 34.2737 63.7217Z" fill="#123017"/>
<path d="M114.389 70.7004C115.649 71.2871 115.265 73.5712 117.3 73.556C118.145 73.5496 118.902 72.7983 118.555 72.3129C117.73 71.161 117.217 69.597 115.769 69.0932C115.409 68.9681 114.59 69.7365 114.389 70.7004Z" fill="#123017"/>
<path d="M0.0200805 32.1777C-0.115227 33.5207 0.447294 33.8535 1.25783 33.6389C2.83492 33.2215 2.39363 31.589 2.83679 30.5404C3.18825 29.7085 1.82038 28.8641 1.39855 29.0499C-0.0241379 29.6768 0.265992 31.2823 0.0200805 32.1777Z" fill="#123017"/>
<path d="M62.3448 66.2376C63.3539 67.0883 62.9931 69.0367 64.7882 69.3066C65.561 69.4227 66.1376 69.1997 66.0436 68.1754C65.9141 66.7666 65.158 65.7419 64.0082 65.1445C63.3085 64.7809 62.7562 65.4645 62.3448 66.2376Z" fill="#123017"/>
<path d="M125.425 96.6295C124.859 95.795 126.016 94.0263 123.938 93.9658C122.601 93.9268 122.856 94.93 122.969 95.6644C123.137 96.7515 122.561 98.3494 124.296 98.5901C125.851 98.8061 125.238 97.4714 125.425 96.6295Z" fill="#123017"/>
<path d="M27.8331 69.6172C28.1374 70.4824 28.7812 70.678 29.5243 70.5827C31.0004 70.3937 31.8631 69.3886 32.1053 68.0549C32.2121 67.4668 31.3131 66.4887 30.791 66.7125C29.4918 67.2697 28.6103 68.4544 27.8331 69.6172Z" fill="#123017"/>
<path d="M66.3633 77.593C68.1118 77.9376 68.5232 77.1568 68.2812 76.3415C67.9565 75.248 68.3843 73.6831 66.9407 73.1979C66.4691 73.0393 65.2139 73.5363 65.5418 74.2737C66.0485 75.413 65.348 77.0848 66.3633 77.593Z" fill="#123017"/>
<path d="M22.7963 76.9589C23.0583 77.6596 23.8143 78.2126 24.3666 77.9907C25.6893 77.4589 26.2694 76.0308 26.781 74.8488C27.0805 74.1569 26.0135 73.453 25.1442 73.7033C23.6102 74.1449 23.6173 75.8648 22.7963 76.9589Z" fill="#123017"/>
<path d="M56.5608 59.2885C58.6634 59.6806 58.6589 61.9553 60.4383 61.9619C61.2011 61.9647 62.0136 61.2341 61.6753 60.6798C60.9351 59.4668 60.1171 58.0471 58.5398 57.8225C58.0665 57.7555 57.4664 58.587 56.5608 59.2885Z" fill="#123017"/>
<path d="M121.529 86.9225C121.954 88.6324 121.964 90.1734 123.74 90.1531C124.299 90.1467 125.242 89.3327 124.618 88.6638C123.729 87.711 124.603 85.7188 122.872 85.5551C122.149 85.4867 120.926 86.0191 121.529 86.9225Z" fill="#123017"/>
<path d="M78.8994 53.9046C80.0404 54.0882 80.8565 53.7955 80.6604 52.5387C80.3825 50.7575 78.9016 51.7813 77.9869 51.5924C77.2469 51.4396 75.9249 51.026 76.0808 52.5846C76.2703 54.4799 77.9747 53.5098 78.8994 53.9046Z" fill="#123017"/>
<path d="M101.352 59.0677C102.638 59.7973 103.837 60.5643 105.128 61.1116C105.312 61.1898 106.393 59.902 106.297 59.7592C105.482 58.5393 104.167 57.8427 102.826 57.439C102.107 57.2231 101.946 58.3189 101.352 59.0677Z" fill="#123017"/>
<path d="M111.453 66.3298C112.462 66.2672 113.27 65.6967 113.037 65.1161C112.526 63.8396 111.56 62.7814 110.073 62.4971C109.177 62.3259 108.488 63.125 108.724 63.6299C109.299 64.8564 110.225 65.9365 111.453 66.3298Z" fill="#123017"/>
<path d="M21.2745 85.9524C22.2201 85.2962 22.2381 83.9436 22.5104 82.7759C22.7486 81.7544 21.9061 81.4748 21.1914 81.6589C19.5335 82.0857 19.9725 83.7558 19.598 84.8884C19.2701 85.8796 20.1529 85.9977 21.2745 85.9524Z" fill="#123017"/>
<path d="M41.7501 58.7777C42.0859 60.0082 42.7262 60.3896 43.623 60.0856C44.727 59.7116 46.2092 59.7248 46.3058 58.0453C46.352 57.2414 46.0343 56.6459 45.0611 57.0021C43.8338 57.4516 42.5859 57.884 41.7501 58.7777Z" fill="#123017"/>
<path d="M2.77039 38.0039C1.8908 38.0368 1.0567 38.18 1.30785 38.936C1.74409 40.2493 2.37626 41.6847 3.72166 42.2045C4.39708 42.4653 4.94597 41.3662 5.41046 40.7247C4.16837 40.1239 4.16389 38.195 2.77039 38.0039Z" fill="#123017"/>
<path d="M28.3356 105.673C26.9406 105.604 26.1926 106.145 26.3673 106.813C26.7697 108.348 28.3148 108.748 29.6142 109.165C29.9093 109.26 30.538 108.309 31.0131 107.838C29.9969 107.017 28.9809 106.195 28.3356 105.673Z" fill="#123017"/>
<path d="M9.23323 43.2396C8.45564 43.3163 7.57433 43.7496 7.77233 44.4558C8.21288 46.0269 9.94193 45.995 11.1565 46.5057C11.9728 46.849 12.1098 45.8054 12.0726 45.3072C11.9425 43.5812 10.3185 43.7524 9.23323 43.2396Z" fill="#123017"/>
<path d="M17.027 13.9604C17.4574 14.8415 17.8637 15.4583 18.7167 15.2376C20.002 14.9054 21.2105 14.3975 21.939 13.1667C21.2284 12.9288 21.6408 11.2054 20.4328 11.8242C19.25 12.43 17.8502 12.8416 17.027 13.9604Z" fill="#123017"/>
<path d="M27.3377 49.0951C28.4987 49.1804 29.9567 49.1547 29.8389 48.0002C29.6539 46.1859 27.7593 47.0884 26.6394 46.7518C25.9156 46.5344 24.9927 46.4518 25.026 47.7732C25.0749 49.6996 26.6142 48.7587 27.3377 49.0951Z" fill="#123017"/>
<path d="M42.0721 50.5591C43.1536 51.9044 44.6196 51.8136 45.8716 52.1474C46.4046 52.2894 47.145 52.3011 47.0482 51.3085C46.8276 49.044 44.7768 49.7547 43.5489 49.2351C42.6076 48.8369 42.7318 50.1241 42.0721 50.5591Z" fill="#123017"/>
<path d="M36.9963 50.3539C37.6303 50.1386 38.4597 50.7824 38.3748 49.5716C38.2273 47.4717 36.6139 48.0031 35.4313 47.8769C34.7095 47.7998 33.4058 47.6164 33.7227 48.8604C34.1632 50.5901 36.0598 49.6878 36.9963 50.3539Z" fill="#123017"/>
<path d="M88.1608 54.9119C88.9661 55.386 89.5474 54.4134 89.375 53.5744C89.0299 51.8939 87.269 52.9126 86.2475 52.3353C85.4917 51.9082 84.9289 52.266 84.9845 53.2709C85.0975 55.3133 86.7469 54.2993 88.1608 54.9119Z" fill="#123017"/>
<path d="M60.9004 54.6553C61.7035 54.1025 63.3131 55.0548 63.5323 53.4589C63.6543 52.5693 62.7689 51.9159 61.8842 52.2938C60.8182 52.7491 58.9538 52.035 58.7785 53.7424C58.6325 55.1643 60.0893 54.4114 60.9004 54.6553Z" fill="#123017"/>
<path d="M123.578 105.458C123.718 106.292 123.182 107.448 124.68 107.463C126.643 107.482 125.812 105.973 125.893 105.069C125.964 104.29 126.332 103.134 124.844 103.115C122.867 103.088 123.874 104.636 123.578 105.458Z" fill="#123017"/>
<path d="M18.8133 47.6247C20.3022 48.4175 20.8071 47.9781 20.7158 47.0899C20.5141 45.1277 18.6914 46.1753 17.6958 45.6291C16.8055 45.1405 16.4112 45.8711 16.5031 46.7137C16.7305 48.802 18.4706 47.3888 18.8133 47.6247Z" fill="#123017"/>
<path d="M68.2886 83.742C68.2384 83.378 69.0886 82.1795 67.3844 82.2379C65.7782 82.293 66.1361 83.5432 66.1011 84.4619C66.0714 85.2502 65.5321 86.4921 66.9877 86.5281C68.7295 86.5712 68.2794 85.1583 68.2886 83.742Z" fill="#123017"/>
<path d="M123.442 113.854C123.774 114.671 122.901 116.005 124.399 116.023C126.134 116.044 125.682 114.564 125.724 113.561C125.757 112.795 126.284 111.631 124.675 111.706C122.941 111.786 123.79 113.153 123.442 113.854Z" fill="#123017"/>
<path d="M20.6678 90.275C19.8271 90.3423 18.7123 90.1232 18.9484 91.5487C19.1126 92.5383 18.2878 93.8196 19.4869 94.4702C20.1612 94.8358 21.066 94.6607 21.3214 93.6067C20.7282 92.5704 21.5481 91.2544 20.6678 90.275Z" fill="#123017"/>
<path d="M35.8156 108.735C34.9019 108.814 34.2923 109.176 34.2923 110.227C34.2923 111.638 35.5189 110.889 36.0872 111.29C37.0946 111.291 38.4886 112.068 38.7553 110.357C39.007 108.743 37.6393 109.045 36.6901 108.962C36.3818 108.935 36.1008 108.835 35.8156 108.735Z" fill="#123017"/>
<path d="M68.5029 51.3978C66.0687 51.9044 67.6338 53.0014 68.1306 53.9408C68.6968 53.7386 69.2829 53.6958 69.8797 53.6805C70.7368 53.6586 71.798 53.8731 71.8099 52.5065C71.8242 50.9034 70.5817 51.3292 69.6726 51.2535C69.2766 51.2204 68.8847 51.2828 68.5029 51.3978Z" fill="#123017"/>
<path d="M24.587 9.49031C25.0549 9.92363 25.0536 10.7801 25.8926 10.9673C26.8375 11.1781 27.241 10.5704 27.2777 9.89035C27.3164 9.17328 26.8414 8.56277 26.0041 8.53515C25.3421 8.51335 24.9447 8.99535 24.587 9.49031Z" fill="#123017"/>
<path d="M122.971 121.774C123.033 123.281 124.172 122.749 124.795 122.95C125.601 123.21 125.224 122.388 125.29 122.055C125.489 121.058 124.846 120.901 124.057 120.917C123.36 120.932 122.893 121.152 122.971 121.774Z" fill="#123017"/>
</svg>
