<svg width="164" height="40" viewBox="0 0 164 40" fill="none" xmlns="http://www.w3.org/2000/svg">
<g clip-path="url(#clip0_499_188)">
<path d="M47.7571 28.0911H59.4944V24.5789H51.9288V11.3496H47.7571V28.0911Z" fill="white"/>
<path d="M66.4484 25.7499C64.775 25.7499 63.903 24.2981 63.903 22.1206C63.903 19.943 64.775 18.4679 66.4484 18.4679C68.1218 18.4679 69.0174 19.943 69.0174 22.1206C69.0174 24.2981 68.1218 25.7499 66.4484 25.7499ZM66.472 28.466C70.3608 28.466 72.9063 25.7264 72.9063 22.1206C72.9063 18.5147 70.3608 15.7752 66.472 15.7752C62.6067 15.7752 60.0141 18.5147 60.0141 22.1206C60.0141 25.7264 62.6067 28.466 66.472 28.466Z" fill="white"/>
<path d="M79.6375 32.2357C81.4287 32.2357 83.0078 31.8377 84.0684 30.9011C85.0348 30.0347 85.6711 28.7235 85.6711 26.9206V16.103H81.9944V17.3908H81.9472C81.2402 16.384 80.156 15.7518 78.5533 15.7518C75.5601 15.7518 73.486 18.2338 73.486 21.7459C73.486 25.422 76.0079 27.4357 78.7183 27.4357C80.1796 27.4357 81.0988 26.8503 81.8058 26.0542H81.9001V27.2484C81.9001 28.7001 81.2166 29.543 79.5904 29.543C78.3176 29.543 77.6813 29.0045 77.4692 28.3723H73.7453C74.1224 30.8777 76.3143 32.2357 79.6375 32.2357ZM79.6139 24.6025C78.1762 24.6025 77.2335 23.4318 77.2335 21.6289C77.2335 19.8025 78.1762 18.6318 79.6139 18.6318C81.2166 18.6318 82.0651 19.9898 82.0651 21.6055C82.0651 23.2913 81.2873 24.6025 79.6139 24.6025Z" fill="white"/>
<path d="M93.2312 25.7499C91.5578 25.7499 90.6858 24.2981 90.6858 22.1206C90.6858 19.943 91.5578 18.4679 93.2312 18.4679C94.9046 18.4679 95.8002 19.943 95.8002 22.1206C95.8002 24.2981 94.9046 25.7499 93.2312 25.7499ZM93.2548 28.466C97.1437 28.466 99.6894 25.7264 99.6894 22.1206C99.6894 18.5147 97.1437 15.7752 93.2548 15.7752C89.3895 15.7752 86.7969 18.5147 86.7969 22.1206C86.7969 25.7264 89.3895 28.466 93.2548 28.466Z" fill="white"/>
<path d="M100.811 28.0911H104.653V16.1028H100.811V28.0911ZM100.811 14.4403H104.653V11.3496H100.811V14.4403Z" fill="white"/>
<path d="M106.319 32.0484H110.161V26.8503H110.208C110.962 27.8572 112.07 28.4659 113.626 28.4659C116.784 28.4659 118.881 25.984 118.881 22.0972C118.881 18.4913 116.925 15.7518 113.72 15.7518C112.07 15.7518 110.892 16.4777 110.067 17.5547H109.996V16.103H106.319V32.0484ZM112.636 25.5157C110.986 25.5157 110.043 24.1811 110.043 22.2377C110.043 20.2942 110.892 18.8191 112.565 18.8191C114.215 18.8191 114.992 20.1772 114.992 22.2377C114.992 24.2747 114.097 25.5157 112.636 25.5157Z" fill="white"/>
<path d="M125.137 28.4659C128.295 28.4659 130.628 27.1079 130.628 24.4855C130.628 21.4181 128.13 20.8796 126.009 20.5284C124.477 20.2474 123.11 20.1303 123.11 19.2874C123.11 18.5381 123.841 18.1869 124.783 18.1869C125.844 18.1869 126.575 18.5147 126.716 19.5918H130.251C130.063 17.2269 128.224 15.7518 124.807 15.7518C121.955 15.7518 119.598 17.063 119.598 19.5918C119.598 22.4016 121.837 22.9635 123.935 23.3147C125.538 23.5957 126.999 23.7128 126.999 24.7898C126.999 25.5625 126.268 25.984 125.113 25.984C123.841 25.984 123.039 25.3986 122.898 24.2045H119.268C119.386 26.8503 121.602 28.4659 125.137 28.4659Z" fill="white"/>
<path d="M135.846 28.4425C137.519 28.4425 138.58 27.7869 139.452 26.6162H139.523V28.0913H143.2V16.103H139.358V22.7996C139.358 24.2279 138.556 25.2113 137.237 25.2113C136.011 25.2113 135.422 24.4855 135.422 23.1742V16.103H131.604V23.9703C131.604 26.6396 133.065 28.4425 135.846 28.4425Z" fill="white"/>
<path d="M144.871 28.0913H148.713V21.3713C148.713 19.943 149.42 18.9362 150.622 18.9362C151.777 18.9362 152.319 19.6855 152.319 20.9733V28.0913H156.16V21.3713C156.16 19.943 156.844 18.9362 158.069 18.9362C159.224 18.9362 159.766 19.6855 159.766 20.9733V28.0913H163.608V20.2942C163.608 17.6016 162.241 15.7518 159.507 15.7518C157.952 15.7518 156.655 16.4074 155.713 17.8591H155.665C155.053 16.5713 153.851 15.7518 152.272 15.7518C150.527 15.7518 149.373 16.5713 148.618 17.8123H148.548V16.103H144.871V28.0913Z" fill="white"/>
<path d="M20 0C8.9543 0 0 8.9543 0 20C11.0457 20 20 11.0457 20 0Z" fill="#FFB967"/>
<path d="M20 40C31.0457 40 40 31.0457 40 20C28.9543 20 20 28.9543 20 40Z" fill="#FFB967"/>
<path d="M20 0C31.0457 0 40 8.9543 40 20C28.9543 20 20 11.0457 20 0Z" fill="#FFB967"/>
<path d="M20 40C8.9543 40 -9.65645e-07 31.0457 0 20C11.0457 20 20 28.9543 20 40Z" fill="#FFB967"/>
</g>
<defs>
<clipPath id="clip0_499_188">
<rect width="164" height="40" fill="white"/>
</clipPath>
</defs>
</svg>
