<svg width="130" height="130" viewBox="0 0 130 130" fill="none" xmlns="http://www.w3.org/2000/svg">
<circle cx="65" cy="65" r="65" fill="#FFB967"/>
<circle cx="65" cy="65" r="30" fill="#123017"/>
<path d="M66.6662 52.3839C66.6662 52.5509 66.6493 52.714 66.6167 52.8706C66.3922 53.9549 65.4319 54.7677 64.2824 54.7677C63.4525 54.7677 62.7231 54.345 62.2965 53.7017C62.0433 53.3259 61.8985 52.8719 61.8985 52.3839C61.8985 51.0673 62.9658 50 64.2824 50C65.5989 50 66.6662 51.0673 66.6662 52.3839Z" fill="white"/>
<path d="M71.8685 56.6767L65.2153 61.7707C64.6869 62.1778 64.054 62.3761 63.4251 62.3761C62.6644 62.3761 61.9063 62.0851 61.3374 61.5149L59.6373 59.8148C59.9413 59.8761 60.2557 59.9087 60.5793 59.9087C61.8124 59.9087 62.9371 59.4351 63.7761 58.6574L69.8343 54.0201C70.5689 53.4591 71.618 53.5987 72.1803 54.3307C72.7427 55.0653 72.6031 56.1144 71.8698 56.6767H71.8685Z" fill="white"/>
<path d="M63.7761 58.6573C62.9358 59.435 61.8124 59.9086 60.5793 59.9086C60.257 59.9086 59.9426 59.8773 59.6373 59.8147L57.9658 58.1432C57.3121 57.4908 57.3121 56.43 57.9658 55.7776C58.6195 55.1252 59.679 55.1252 60.3314 55.7776L63.4564 58.9026L63.7761 58.6573Z" fill="white"/>
<g opacity="0.57" style="mix-blend-mode:multiply">
<path d="M63.7761 58.6573C62.9358 59.435 61.8124 59.9086 60.5793 59.9086C60.257 59.9086 59.9426 59.8773 59.6373 59.8147L57.9658 58.1432C57.3121 57.4908 57.3121 56.43 57.9658 55.7776C58.6195 55.1252 59.679 55.1252 60.3314 55.7776L63.4564 58.9026L63.7761 58.6573Z" fill="white"/>
</g>
<path d="M66.6662 52.3839C66.6662 52.5509 66.6493 52.714 66.6167 52.8706C66.3922 53.9549 65.4319 54.7677 64.2824 54.7677C63.4525 54.7677 62.7231 54.345 62.2965 53.7017C62.0433 53.3259 61.8985 52.8719 61.8985 52.3839C61.8985 51.0673 62.9658 50 64.2824 50C65.5989 50 66.6662 51.0673 66.6662 52.3839Z" fill="white"/>
<path d="M71.8685 56.6767L65.2153 61.7707C64.6869 62.1778 64.054 62.3761 63.4251 62.3761C62.6644 62.3761 61.9063 62.0851 61.3374 61.5149L59.6373 59.8148C59.9413 59.8761 60.2557 59.9087 60.5793 59.9087C61.8124 59.9087 62.9371 59.4351 63.7761 58.6574L69.8343 54.0201C70.5689 53.4591 71.618 53.5987 72.1803 54.3307C72.7427 55.0653 72.6031 56.1144 71.8698 56.6767H71.8685Z" fill="white"/>
<path d="M63.7761 58.6573C62.9358 59.435 61.8124 59.9086 60.5793 59.9086C60.257 59.9086 59.9426 59.8773 59.6373 59.8147L57.9658 58.1432C57.3121 57.4908 57.3121 56.43 57.9658 55.7776C58.6195 55.1252 59.679 55.1252 60.3314 55.7776L63.4564 58.9026L63.7761 58.6573Z" fill="white"/>
<g opacity="0.57" style="mix-blend-mode:multiply">
<path d="M63.7761 58.6573C62.9358 59.435 61.8124 59.9086 60.5793 59.9086C60.257 59.9086 59.9426 59.8773 59.6373 59.8147L57.9658 58.1432C57.3121 57.4908 57.3121 56.43 57.9658 55.7776C58.6195 55.1252 59.679 55.1252 60.3314 55.7776L63.4564 58.9026L63.7761 58.6573Z" fill="white"/>
</g>
<path d="M63.3338 77.6162C63.3338 77.4492 63.3507 77.2861 63.3834 77.1295C63.6078 76.0452 64.5681 75.2323 65.7176 75.2323C66.5475 75.2323 67.2769 75.6551 67.7036 76.2983C67.9567 76.6741 68.1015 77.1282 68.1015 77.6162C68.1015 78.9327 67.0342 80 65.7176 80C64.4011 80 63.3338 78.9327 63.3338 77.6162Z" fill="white"/>
<path d="M58.1315 73.3221L64.7847 68.2281C65.3132 67.821 65.946 67.6227 66.5749 67.6227C67.3356 67.6227 68.0937 67.9137 68.6626 68.4839L70.3627 70.184C70.0587 70.1227 69.7443 70.0901 69.4207 70.0901C68.1876 70.0901 67.0629 70.5637 66.2239 71.3414L60.1657 75.9786C59.4311 76.5397 58.3821 76.4001 57.8197 75.6681C57.2573 74.9335 57.3969 73.8844 58.1302 73.3221H58.1315Z" fill="white"/>
<path d="M66.2239 71.3414C67.0642 70.5637 68.1876 70.0901 69.4207 70.0901C69.743 70.0901 70.0574 70.1214 70.3627 70.184L72.0342 71.8555C72.6879 72.5079 72.6879 73.5687 72.0342 74.2211C71.3805 74.8735 70.321 74.8735 69.6686 74.2211L66.5436 71.0961L66.2239 71.3414Z" fill="white"/>
<g opacity="0.57" style="mix-blend-mode:multiply">
<path d="M66.2239 71.3414C67.0642 70.5637 68.1876 70.0901 69.4207 70.0901C69.743 70.0901 70.0574 70.1214 70.3627 70.184L72.0342 71.8555C72.6879 72.5079 72.6879 73.5687 72.0342 74.2211C71.3805 74.8735 70.321 74.8735 69.6686 74.2211L66.5436 71.0961L66.2239 71.3414Z" fill="white"/>
</g>
<path d="M52.3839 63.3337C52.5509 63.3337 52.714 63.3507 52.8706 63.3833C53.9549 63.6077 54.7677 64.5681 54.7677 65.7176C54.7677 66.5475 54.345 67.2769 53.7017 67.7035C53.3259 67.9567 52.8719 68.1015 52.3839 68.1015C51.0673 68.1015 50 67.0342 50 65.7176C50 64.4011 51.0673 63.3337 52.3839 63.3337Z" fill="white"/>
<path d="M56.6767 58.1315L61.7706 64.7847C62.1777 65.3132 62.376 65.946 62.376 66.5749C62.376 67.3356 62.0851 68.0937 61.5149 68.6626L59.8147 70.3627C59.876 70.0587 59.9087 69.7443 59.9087 69.4207C59.9087 68.1876 59.435 67.0629 58.6574 66.2239L54.0201 60.1657C53.459 59.4311 53.5986 58.3821 54.3306 57.8197C55.0652 57.2573 56.1143 57.3969 56.6767 58.1302V58.1315Z" fill="white"/>
<path d="M58.6574 66.2239C59.435 67.0642 59.9087 68.1876 59.9087 69.4206C59.9087 69.7429 59.8773 70.0574 59.8147 70.3627L58.1433 72.0342C57.4909 72.6879 56.4301 72.6879 55.7777 72.0342C55.1253 71.3805 55.1253 70.321 55.7777 69.6686L58.9027 66.5436L58.6574 66.2239Z" fill="white"/>
<g opacity="0.57" style="mix-blend-mode:multiply">
<path d="M58.6574 66.2239C59.435 67.0642 59.9087 68.1876 59.9087 69.4206C59.9087 69.7429 59.8773 70.0574 59.8147 70.3627L58.1433 72.0342C57.4909 72.6879 56.4301 72.6879 55.7777 72.0342C55.1253 71.3805 55.1253 70.321 55.7777 69.6686L58.9027 66.5436L58.6574 66.2239Z" fill="white"/>
</g>
<path d="M56.6767 58.1315L61.7706 64.7847C62.1777 65.3132 62.376 65.946 62.376 66.5749C62.376 67.3356 62.0851 68.0937 61.5149 68.6626L59.8147 70.3627C59.876 70.0587 59.9087 69.7443 59.9087 69.4207C59.9087 68.1876 59.435 67.0629 58.6574 66.2239L54.0201 60.1657C53.459 59.4311 53.5986 58.3821 54.3306 57.8197C55.0652 57.2573 56.1143 57.3969 56.6767 58.1302V58.1315Z" fill="white"/>
<path d="M58.6574 66.2239C59.435 67.0642 59.9087 68.1876 59.9087 69.4206C59.9087 69.7429 59.8773 70.0574 59.8147 70.3627L58.1433 72.0342C57.4909 72.6879 56.4301 72.6879 55.7777 72.0342C55.1253 71.3805 55.1253 70.321 55.7777 69.6686L58.9027 66.5436L58.6574 66.2239Z" fill="white"/>
<g opacity="0.57" style="mix-blend-mode:multiply">
<path d="M58.6574 66.2239C59.435 67.0642 59.9087 68.1876 59.9087 69.4206C59.9087 69.7429 59.8773 70.0574 59.8147 70.3627L58.1433 72.0342C57.4909 72.6879 56.4301 72.6879 55.7777 72.0342C55.1253 71.3805 55.1253 70.321 55.7777 69.6686L58.9027 66.5436L58.6574 66.2239Z" fill="white"/>
</g>
<path d="M77.6161 66.6662C77.4491 66.6662 77.286 66.6492 77.1294 66.6166C76.0451 66.3922 75.2322 65.4318 75.2322 64.2823C75.2322 63.4525 75.655 62.7231 76.2983 62.2964C76.674 62.0433 77.1281 61.8984 77.6161 61.8984C78.9327 61.8984 80 62.9658 80 64.2823C80 65.5989 78.9327 66.6662 77.6161 66.6662Z" fill="white"/>
<path d="M73.3233 71.8684L68.2294 65.2152C67.8223 64.6868 67.624 64.054 67.624 63.425C67.624 62.6643 67.9149 61.9063 68.4851 61.3374L70.1853 59.6372C70.124 59.9412 70.0913 60.2557 70.0913 60.5793C70.0913 61.8123 70.565 62.9371 71.3426 63.776L75.9799 69.8342C76.541 70.5688 76.4014 71.6179 75.6694 72.1803C74.9348 72.7426 73.8857 72.603 73.3233 71.8697V71.8684Z" fill="white"/>
<path d="M71.3413 63.7761C70.5637 62.9359 70.09 61.8124 70.09 60.5794C70.09 60.2571 70.1213 59.9426 70.184 59.6373L71.8554 57.9659C72.5078 57.3122 73.5686 57.3122 74.221 57.9659C74.8734 58.6196 74.8734 59.6791 74.221 60.3315L71.096 63.4565L71.3413 63.7761Z" fill="white"/>
<g opacity="0.57" style="mix-blend-mode:multiply">
<path d="M71.3413 63.7761C70.5637 62.9359 70.09 61.8124 70.09 60.5794C70.09 60.2571 70.1213 59.9426 70.184 59.6373L71.8554 57.9659C72.5078 57.3122 73.5686 57.3122 74.221 57.9659C74.8734 58.6196 74.8734 59.6791 74.221 60.3315L71.096 63.4565L71.3413 63.7761Z" fill="white"/>
</g>
<g opacity="0.48" style="mix-blend-mode:overlay">
<path d="M62.2965 53.7017C62.0433 53.3259 61.8985 52.8719 61.8985 52.3839C61.8985 51.0673 62.9658 50 64.2824 50C65.5989 50 66.6662 51.0673 66.6662 52.3839C66.6662 52.5509 66.6493 52.714 66.6166 52.8706C66.3922 53.9549 65.4319 54.7677 64.2824 54.7677C63.4525 54.7677 62.7231 54.345 62.2965 53.7017ZM59.6373 59.816L61.3374 61.5162C61.9063 62.0864 62.6644 62.3773 63.4251 62.3773C64.054 62.3773 64.6868 62.1777 65.2153 61.7719L71.8685 56.678C72.6031 56.1156 72.7414 55.0665 72.179 54.3319C71.6166 53.5986 70.5676 53.4603 69.833 54.0214L63.7748 58.6587L63.4551 58.904L60.3301 55.779C59.6777 55.1266 58.6182 55.1266 57.9645 55.779C57.3108 56.4314 57.3108 57.4922 57.9645 58.1446L59.636 59.816H59.6373ZM65.7176 75.2323C64.5681 75.2323 63.6078 76.0451 63.3834 77.1294C63.3494 77.2873 63.3338 77.4491 63.3338 77.6161C63.3338 78.9327 64.4011 80 65.7176 80C67.0342 80 68.1015 78.9327 68.1015 77.6161C68.1015 77.1281 67.9554 76.6741 67.7035 76.2983C67.2769 75.6563 66.5475 75.2323 65.7176 75.2323ZM70.3627 70.184L68.6626 68.4838C68.0937 67.9136 67.3356 67.6226 66.5749 67.6226C65.946 67.6226 65.3132 67.8223 64.7847 68.2281L58.1315 73.322C57.3969 73.8844 57.2586 74.9335 57.821 75.6681C58.3834 76.4014 59.4324 76.5397 60.167 75.9786L66.2252 71.3413L66.5449 71.096L69.6699 74.221C70.3223 74.8734 71.3818 74.8734 72.0355 74.221C72.6892 73.5686 72.6892 72.5078 72.0355 71.8554L70.364 70.184H70.3627ZM52.8706 63.3834C52.7127 63.3494 52.5509 63.3338 52.3839 63.3338C51.0673 63.3338 50 64.4011 50 65.7176C50 67.0342 51.0673 68.1015 52.3839 68.1015C52.8719 68.1015 53.3259 67.9554 53.7017 67.7035C54.3437 67.2769 54.7677 66.5475 54.7677 65.7176C54.7677 64.5681 53.9549 63.6078 52.8706 63.3834ZM59.816 70.3627L61.5162 68.6626C62.0864 68.0937 62.3773 67.3356 62.3773 66.5749C62.3773 65.946 62.1777 65.3132 61.7719 64.7847L56.678 58.1315C56.1156 57.3969 55.0665 57.2586 54.3319 57.821C53.5986 58.3834 53.4603 59.4324 54.0214 60.167L58.6587 66.2252L58.904 66.5449L55.779 69.6699C55.1266 70.3223 55.1266 71.3818 55.779 72.0355C56.4314 72.6892 57.4922 72.6892 58.1446 72.0355L59.816 70.364V70.3627ZM77.6161 61.8985C77.1281 61.8985 76.6741 62.0446 76.2983 62.2965C75.6563 62.7231 75.2323 63.4525 75.2323 64.2824C75.2323 65.4319 76.0451 66.3922 77.1294 66.6166C77.2873 66.6506 77.4491 66.6662 77.6161 66.6662C78.9327 66.6662 80 65.5989 80 64.2824C80 62.9658 78.9327 61.8985 77.6161 61.8985ZM71.3413 63.7761L71.096 63.4564L74.221 60.3314C74.8734 59.679 74.8734 58.6195 74.221 57.9658C73.5686 57.3121 72.5078 57.3121 71.8554 57.9658L70.184 59.6373L68.4838 61.3374C67.9136 61.9063 67.6226 62.6644 67.6226 63.4251C67.6226 64.054 67.8223 64.6868 68.2281 65.2153L73.322 71.8685C73.8844 72.6031 74.9335 72.7414 75.6681 72.179C76.4014 71.6166 76.5397 70.5676 75.9786 69.833L71.3413 63.7748V63.7761Z" fill="white"/>
</g>
<path d="M70.5351 21.4102C69.7774 21.3132 69.0849 21.0886 68.4576 20.7364C67.8412 20.3759 67.3198 19.9207 66.8935 19.3709C66.4672 18.821 66.1569 18.2034 65.9625 17.5182C65.7777 16.8341 65.734 16.1147 65.8313 15.3599C65.9287 14.6051 66.1535 13.9201 66.5058 13.3048C66.8677 12.6907 67.3247 12.1713 67.8766 11.7466C68.4286 11.3219 69.0479 11.0176 69.7346 10.8335C70.4321 10.6411 71.1597 10.5934 71.9174 10.6904C72.464 10.7603 72.9589 10.8916 73.4021 11.0843C73.8464 11.2674 74.2444 11.5077 74.596 11.8052C74.9572 12.1039 75.2774 12.4557 75.5567 12.8605L74.02 14.0041C73.8494 13.7394 73.6505 13.5052 73.4233 13.3013C73.2057 13.0986 72.9544 12.9305 72.6694 12.7969C72.3844 12.6633 72.0597 12.5732 71.6952 12.5266C71.0526 12.4444 70.4485 12.5176 69.8828 12.7463C69.3279 12.9666 68.8632 13.3199 68.4885 13.8061C68.1138 14.2923 67.8803 14.8937 67.7879 15.6103C67.6967 16.3173 67.7701 16.9579 68.008 17.5323C68.2471 18.097 68.6066 18.5606 69.0863 18.9231C69.5768 19.2772 70.1434 19.4954 70.786 19.5776C71.3614 19.6512 71.8852 19.5969 72.3571 19.4145C72.8387 19.2333 73.2792 18.9546 73.6787 18.5784L74.8916 20.0593C74.5042 20.4176 74.081 20.7131 73.6221 20.9457C73.1643 21.1688 72.6769 21.32 72.1597 21.3995C71.6425 21.479 71.1009 21.4826 70.5351 21.4102Z" fill="#0F0E2D"/>
<path d="M80.0489 23.8425C79.3251 23.5705 78.7425 23.1713 78.3011 22.645C77.8721 22.1132 77.6034 21.5128 77.495 20.844C77.399 20.1697 77.4825 19.4855 77.7453 18.7915C78.0082 18.0975 78.3975 17.5335 78.9133 17.0994C79.4416 16.6596 80.0414 16.3857 80.7128 16.2777C81.3966 16.1641 82.1004 16.2433 82.8242 16.5154C83.5479 16.7874 84.1243 17.1894 84.5533 17.7212C84.9823 18.2531 85.2465 18.8518 85.3458 19.5171C85.4542 20.1859 85.377 20.8673 85.1142 21.5613C84.8513 22.2552 84.4558 22.8221 83.9275 23.2618C83.4116 23.696 82.8163 23.9716 82.1416 24.0886C81.4702 24.1966 80.7727 24.1146 80.0489 23.8425ZM80.6736 22.1932C81.0174 22.3225 81.3585 22.3632 81.697 22.3154C82.048 22.262 82.3657 22.1189 82.6503 21.8861C82.9473 21.6476 83.176 21.3166 83.3364 20.893C83.4969 20.4695 83.5429 20.075 83.4746 19.7095C83.4154 19.3475 83.2717 19.031 83.0437 18.7599C82.8247 18.4923 82.5478 18.2956 82.213 18.1697C81.8692 18.0405 81.5174 18.0009 81.1574 18.0509C80.8064 18.1043 80.4841 18.2457 80.1905 18.4751C79.906 18.7079 79.6835 19.0361 79.5231 19.4597C79.3626 19.8833 79.3103 20.2806 79.3662 20.6517C79.4344 21.0171 79.5826 21.3353 79.8107 21.6064C80.0512 21.8718 80.3388 22.0674 80.6736 22.1932Z" fill="#0F0E2D"/>
<path d="M85.5276 25.9428L89.4636 19.7034L90.9741 20.6491L90.4802 21.432L90.5785 21.4935C90.9571 21.3096 91.3724 21.2397 91.8243 21.2837C92.2814 21.3195 92.7105 21.463 93.1117 21.7141C93.8813 22.1959 94.3119 22.7897 94.4034 23.4955C94.4949 24.2013 94.2963 24.9416 93.8075 25.7164L91.3611 29.5946L89.7523 28.5874L92.0753 24.905C92.3325 24.4972 92.4216 24.1206 92.3425 23.7753C92.2767 23.427 92.0637 23.1401 91.7035 22.9145C91.4087 22.73 91.0994 22.6501 90.7754 22.6749C90.4648 22.6966 90.1632 22.8036 89.8706 22.9958C89.5913 23.1851 89.3488 23.4428 89.143 23.7691L87.1364 26.9499L85.5276 25.9428Z" fill="#0F0E2D"/>
<path d="M96.0409 26.0485L97.1135 24.8332L98.1375 25.7299L97.0649 26.9453L96.0409 26.0485ZM94.9632 32.9157C94.3895 32.4133 94.0828 31.8562 94.0434 31.2444C94.0102 30.6254 94.2491 30.0265 94.7598 29.4478L99.4621 24.1196L100.889 25.3694L96.4167 30.4371C96.1805 30.7048 96.0594 30.9514 96.0534 31.177C96.0538 31.3954 96.1774 31.6128 96.4244 31.829C96.5405 31.9308 96.6623 32.0117 96.7895 32.0718C96.9231 32.1247 97.1076 32.1709 97.3431 32.2104L96.1173 33.5994C95.9064 33.5173 95.7047 33.4176 95.5122 33.3003C95.3205 33.1966 95.1375 33.0684 94.9632 32.9157ZM98.383 28.0997L99.4556 26.8843L100.872 28.1245L99.7991 29.3399L98.383 28.0997Z" fill="#0F0E2D"/>
<path d="M98.3523 36.6127C98.019 36.2122 97.801 35.7917 97.6981 35.3511C97.6088 34.9118 97.6353 34.4833 97.7775 34.0656C97.9197 33.6478 98.1807 33.2822 98.5603 32.9687C98.9549 32.6428 99.3769 32.4632 99.8264 32.4298C100.282 32.4038 100.73 32.4969 101.17 32.7089C101.617 32.9283 102.016 33.2494 102.367 33.6721C102.559 33.902 102.717 34.1219 102.841 34.3319C102.979 34.5432 103.092 34.7383 103.178 34.9174C103.264 35.0964 103.325 35.2526 103.36 35.3859L103.606 35.183C103.911 34.931 104.065 34.6101 104.067 34.2203C104.077 33.8245 103.915 33.4263 103.582 33.0258C103.36 32.7589 103.08 32.5516 102.744 32.404C102.421 32.2576 102.091 32.1858 101.755 32.1887L101.714 30.6457C102.107 30.6343 102.487 30.6834 102.854 30.7929C103.229 30.8962 103.581 31.0624 103.909 31.2914C104.246 31.5142 104.549 31.7888 104.821 32.1151C105.543 32.9827 105.891 33.8087 105.866 34.5931C105.84 35.3774 105.44 36.0893 104.666 36.7286L101.16 39.6242L99.9658 38.1893L100.546 37.7098L100.472 37.6208C100.252 37.6276 100.017 37.6023 99.7687 37.545C99.5275 37.4815 99.2869 37.3735 99.0471 37.2212C98.7999 37.0751 98.5683 36.8722 98.3523 36.6127ZM99.7782 36.0169C100.025 36.3135 100.295 36.5097 100.588 36.6054C100.895 36.7024 101.196 36.7167 101.491 36.6484C101.792 36.5875 102.058 36.4618 102.288 36.2712C102.235 36.0404 102.143 35.8028 102.015 35.5582C101.895 35.3075 101.745 35.0747 101.566 34.8596C101.208 34.4295 100.879 34.2005 100.58 34.1726C100.28 34.1447 100.011 34.2291 99.773 34.4259C99.5497 34.6103 99.4284 34.8418 99.4091 35.1205C99.396 35.4066 99.519 35.7054 99.7782 36.0169Z" fill="#0F0E2D"/>
<path d="M103.8 44.493C103.436 43.8352 103.255 43.1699 103.258 42.4972C103.274 41.8283 103.458 41.2043 103.811 40.6252C104.177 40.0498 104.694 39.5783 105.363 39.2105C106.032 38.8428 106.704 38.6603 107.379 38.6631C108.059 38.6743 108.687 38.8514 109.264 39.1945C109.845 39.546 110.318 40.0506 110.683 40.7084C111.08 41.4252 111.269 42.1246 111.249 42.8066C111.229 43.4887 110.995 44.1018 110.545 44.646L109.069 43.4772C109.291 43.1793 109.401 42.8709 109.401 42.5518C109.41 42.2281 109.32 41.8976 109.133 41.5603C108.951 41.2314 108.707 40.9804 108.402 40.8075C108.104 40.6298 107.774 40.5419 107.41 40.5437C107.047 40.5455 106.671 40.6535 106.281 40.8676C105.892 41.0818 105.595 41.3439 105.391 41.654C105.196 41.9594 105.091 42.287 105.075 42.6369C105.067 42.9821 105.154 43.3192 105.337 43.6481C105.542 44.0191 105.793 44.2827 106.09 44.4388C106.394 44.5903 106.733 44.6628 107.105 44.6563L107.265 46.4994C106.583 46.5444 105.934 46.4004 105.319 46.0675C104.704 45.7346 104.197 45.2098 103.8 44.493Z" fill="#0F0E2D"/>
<path d="M111.444 46.4598L112.973 45.9147L113.433 47.1935L111.903 47.7386L111.444 46.4598ZM107.16 51.946C106.902 51.2295 106.905 50.5941 107.168 50.04C107.441 49.4826 107.941 49.0741 108.669 48.8145L115.375 46.4245L116.015 48.2067L109.637 50.4798C109.3 50.5999 109.074 50.7572 108.959 50.9516C108.853 51.1428 108.856 51.3926 108.967 51.701C109.019 51.8461 109.086 51.9757 109.168 52.0896C109.259 52.2004 109.398 52.3299 109.585 52.4782L107.837 53.1012C107.692 52.9277 107.564 52.7431 107.453 52.5474C107.336 52.3641 107.238 52.1636 107.16 51.946ZM112.494 49.3848L114.024 48.8396L114.659 50.6082L113.13 51.1534L112.494 49.3848Z" fill="#0F0E2D"/>
<path d="M109.108 62.5285C109.046 61.7217 109.166 61.0026 109.467 60.3712C109.769 59.7495 110.23 59.2461 110.85 58.861C111.481 58.4849 112.25 58.2625 113.156 58.194L119.39 57.7227L119.537 59.6533L113.188 60.1334C112.734 60.1676 112.33 60.2755 111.976 60.4569C111.631 60.6375 111.364 60.8895 111.175 61.2129C110.997 61.5452 110.925 61.9371 110.959 62.3885C110.994 62.8496 111.125 63.2261 111.351 63.5182C111.586 63.8095 111.888 64.0185 112.257 64.1452C112.635 64.2712 113.051 64.317 113.504 64.2828L119.853 63.8027L120 65.7333L113.767 66.2046C112.908 66.2695 112.139 66.1635 111.459 65.8865C110.778 65.6095 110.232 65.1871 109.82 64.6193C109.408 64.0515 109.171 63.3545 109.108 62.5285Z" fill="#0F0E2D"/>
<path d="M108.867 71.6331C108.945 71.0022 109.104 70.4734 109.342 70.0466C109.579 69.6294 109.864 69.3006 110.196 69.0601C110.528 68.8197 110.88 68.6545 111.251 68.5646L111.777 70.333C111.411 70.4528 111.12 70.64 110.903 70.8947C110.695 71.1506 110.569 71.4649 110.522 71.8377C110.484 72.1436 110.497 72.4268 110.562 72.6872C110.637 72.9488 110.809 73.0962 111.077 73.1294C111.269 73.1532 111.426 73.1046 111.549 72.9838C111.679 72.8738 111.785 72.7268 111.867 72.5427C111.958 72.3598 112.035 72.1704 112.098 71.9744L112.392 71.1371C112.513 70.7929 112.689 70.475 112.921 70.1832C113.161 69.8927 113.443 69.6654 113.766 69.5015C114.096 69.3482 114.459 69.296 114.852 69.3446C115.293 69.3992 115.662 69.5709 115.957 69.8598C116.251 70.1582 116.463 70.5338 116.591 70.9865C116.719 71.4488 116.75 71.9428 116.684 72.4685C116.624 72.9561 116.511 73.3887 116.347 73.7664C116.183 74.1441 115.964 74.4615 115.688 74.7186C115.422 74.9769 115.096 75.1696 114.71 75.2966L114.205 73.6034C114.511 73.486 114.738 73.3102 114.884 73.0759C115.029 72.8511 115.119 72.6002 115.153 72.3229C115.194 71.9979 115.164 71.7321 115.063 71.5255C114.962 71.3189 114.825 71.2049 114.652 71.1835C114.47 71.161 114.3 71.237 114.141 71.4116C113.983 71.5862 113.854 71.8032 113.753 72.0625L113.36 73.1059C113.097 73.8111 112.751 74.3215 112.322 74.6373C111.892 74.9627 111.408 75.0922 110.87 75.0257C110.391 74.9664 109.986 74.7756 109.655 74.4533C109.335 74.1322 109.103 73.725 108.96 73.2317C108.826 72.7395 108.795 72.2067 108.867 71.6331Z" fill="#0F0E2D"/>
<path d="M111.494 83.0175L112.635 82.2795L113.585 83.7602L113.722 83.7666L114.796 82.5223L115.838 83.4035L114.788 84.6261L114.782 84.763L116.324 85.3566L115.833 86.6235L114.291 86.03L114.208 86.1222L114.155 87.7435L112.789 87.698L112.834 86.0579L112.728 85.9707L111.025 86.4308L110.678 85.1201L112.418 84.6434L112.46 84.5356L111.494 83.0175Z" fill="#0F0E2D"/>
<path d="M99.4657 93.8142C99.9329 93.2122 100.478 92.7307 101.1 92.3698C101.724 92.0225 102.382 91.8047 103.074 91.7165C103.765 91.6283 104.457 91.674 105.149 91.8536C105.835 92.0408 106.48 92.3671 107.084 92.8326C107.689 93.298 108.168 93.8377 108.523 94.4517C108.871 95.0734 109.09 95.7287 109.179 96.4179C109.267 97.107 109.217 97.7932 109.029 98.4764C108.843 99.1731 108.517 99.8224 108.049 100.424C107.712 100.859 107.348 101.218 106.957 101.501C106.574 101.79 106.164 102.011 105.729 102.162C105.288 102.322 104.821 102.419 104.329 102.454L104.116 100.555C104.432 100.542 104.735 100.49 105.027 100.398C105.312 100.313 105.585 100.182 105.845 100.005C106.105 99.8278 106.347 99.5944 106.572 99.3048C106.968 98.7942 107.21 98.238 107.298 97.6362C107.388 97.0479 107.317 96.4698 107.086 95.9019C106.854 95.334 106.451 94.8291 105.878 94.3872C105.312 93.9513 104.72 93.6903 104.102 93.6042C103.492 93.5241 102.909 93.5984 102.352 93.8273C101.797 94.0697 101.322 94.4462 100.926 94.9568C100.571 95.4141 100.353 95.8917 100.272 96.3895C100.186 96.895 100.204 97.4145 100.328 97.9481L98.4318 98.2413C98.3175 97.7271 98.2757 97.214 98.3064 96.702C98.3448 96.1958 98.4604 95.7004 98.6531 95.2157C98.8459 94.731 99.1168 94.2639 99.4657 93.8142Z" fill="#0F0E2D"/>
<path d="M92.5478 100.775C93.1484 100.289 93.788 99.9887 94.4668 99.874C95.1441 99.7728 95.8001 99.844 96.4346 100.088C97.0677 100.345 97.619 100.761 98.0883 101.337C98.5576 101.913 98.8506 102.532 98.9672 103.195C99.0824 103.871 99.0177 104.525 98.7731 105.157C98.5271 105.803 98.1038 106.369 97.5033 106.854C96.9028 107.34 96.2638 107.634 95.5865 107.735C94.9092 107.836 94.257 107.762 93.6299 107.512C92.9954 107.268 92.4434 106.859 91.9741 106.283C91.5048 105.707 91.2125 105.081 91.0973 104.405C90.9808 103.742 91.0417 103.091 91.2802 102.452C91.5248 101.819 91.9473 101.26 92.5478 100.775ZM93.6633 102.143C93.378 102.374 93.1709 102.647 93.0418 102.962C92.9113 103.291 92.8753 103.637 92.9338 103.999C92.9909 104.375 93.1627 104.738 93.4492 105.09C93.7356 105.441 94.0545 105.679 94.4058 105.805C94.7496 105.936 95.0964 105.972 95.4464 105.912C95.7888 105.859 96.0989 105.72 96.3766 105.495C96.6619 105.264 96.8735 104.981 97.0115 104.646C97.142 104.317 97.1817 103.969 97.1307 103.601C97.0722 103.239 96.8997 102.882 96.6132 102.53C96.3268 102.179 96.0086 101.934 95.6587 101.795C95.3074 101.669 94.9568 101.637 94.6069 101.696C94.2556 101.77 93.941 101.919 93.6633 102.143Z" fill="#0F0E2D"/>
<path d="M87.9708 104.432L91.4048 110.959L89.8247 111.784L89.3937 110.965L89.291 111.019C89.2601 111.437 89.1119 111.83 88.8464 112.197C88.5855 112.573 88.2452 112.87 87.8255 113.089C87.0204 113.509 86.2887 113.582 85.6303 113.305C84.9719 113.029 84.4295 112.486 84.003 111.675L81.8685 107.619L83.5515 106.74L85.5782 110.592C85.8027 111.019 86.0846 111.285 86.424 111.39C86.7593 111.509 87.1154 111.47 87.4922 111.273C87.8005 111.112 88.0254 110.886 88.1669 110.594C88.3043 110.316 88.3632 110.003 88.3435 109.654C88.3198 109.318 88.2181 108.98 88.0385 108.639L86.2879 105.311L87.9708 104.432Z" fill="#0F0E2D"/>
<path d="M82.5871 113.432L83.1001 114.967L81.8064 115.396L81.2934 113.861L82.5871 113.432ZM77.1768 109.043C77.9016 108.802 78.5392 108.82 79.0894 109.094C79.6428 109.377 80.0416 109.885 80.2859 110.616L82.5348 117.347L80.7319 117.945L78.5929 111.543C78.4799 111.205 78.3272 110.976 78.1346 110.857C77.945 110.747 77.6943 110.744 77.3824 110.848C77.2356 110.896 77.104 110.96 76.9878 111.039C76.8746 111.128 76.7415 111.263 76.5886 111.446L76.0023 109.691C76.1797 109.551 76.3678 109.428 76.5666 109.321C76.7532 109.209 76.9566 109.116 77.1768 109.043ZM79.6282 114.413L80.1412 115.948L78.3521 116.541L77.8391 115.006L79.6282 114.413Z" fill="#0F0E2D"/>
<path d="M72.2525 110.091C72.7679 110.007 73.2423 110.033 73.6758 110.167C74.1014 110.313 74.4591 110.552 74.7488 110.886C75.0386 111.219 75.2232 111.628 75.3026 112.113C75.3852 112.617 75.3272 113.071 75.1287 113.474C74.9207 113.879 74.6135 114.216 74.2072 114.487C73.7914 114.76 73.3115 114.94 72.7675 115.029C72.4716 115.077 72.2013 115.101 71.9565 115.102C71.7037 115.114 71.478 115.112 71.2793 115.095C71.0806 115.079 70.9146 115.052 70.7812 115.015L70.8326 115.329C70.8964 115.719 71.0965 116.013 71.4329 116.212C71.7708 116.421 72.1974 116.483 72.7127 116.399C73.0563 116.343 73.3771 116.208 73.6751 115.994C73.9651 115.791 74.1941 115.544 74.362 115.253L75.7186 115.999C75.5299 116.342 75.2952 116.643 75.0145 116.904C74.7354 117.173 74.4135 117.392 74.0489 117.558C73.6859 117.734 73.2944 117.857 72.8745 117.925C71.7579 118.106 70.8665 117.988 70.2002 117.569C69.534 117.15 69.1199 116.447 68.9579 115.458L68.2244 110.98L70.0711 110.68L70.1925 111.421L70.307 111.403C70.4126 111.21 70.5532 111.021 70.7287 110.836C70.9057 110.661 71.1208 110.509 71.374 110.38C71.6257 110.242 71.9185 110.145 72.2525 110.091ZM72.047 111.618C71.6653 111.68 71.3588 111.813 71.1276 112.016C70.8884 112.231 70.7238 112.482 70.6338 112.77C70.5343 113.059 70.5087 113.351 70.5569 113.646C70.784 113.716 71.0359 113.759 71.3124 113.772C71.5905 113.795 71.868 113.784 72.1447 113.739C72.6983 113.649 73.0629 113.483 73.2386 113.239C73.4143 112.996 73.4772 112.722 73.4273 112.418C73.3806 112.133 73.2415 111.912 73.0099 111.754C72.7688 111.598 72.4479 111.553 72.047 111.618Z" fill="#0F0E2D"/>
<path d="M62.619 110.785C63.373 110.805 64.0405 110.986 64.6216 111.329C65.1928 111.681 65.6399 112.155 65.9629 112.751C66.276 113.357 66.4226 114.04 66.4028 114.8C66.3829 115.561 66.201 116.231 65.857 116.81C65.5034 117.389 65.0322 117.839 64.4434 118.161C63.8449 118.483 63.1687 118.634 62.4148 118.614C61.5931 118.593 60.892 118.401 60.3114 118.039C59.7308 117.678 59.3185 117.166 59.0746 116.504L60.8334 115.827C60.9793 116.168 61.1903 116.419 61.4667 116.581C61.7427 116.752 62.0741 116.842 62.4607 116.852C62.8377 116.862 63.1784 116.779 63.4829 116.604C63.787 116.438 64.0303 116.199 64.2126 115.886C64.3948 115.572 64.4918 115.194 64.5033 114.751C64.5149 114.308 64.4379 113.921 64.2725 113.589C64.1068 113.267 63.8765 113.01 63.5816 112.82C63.2865 112.638 62.9504 112.543 62.5734 112.533C62.1481 112.522 61.7929 112.605 61.5078 112.78C61.2224 112.966 60.9885 113.22 60.8059 113.543L59.1291 112.748C59.4351 112.139 59.8879 111.654 60.4873 111.294C61.0868 110.934 61.7973 110.764 62.619 110.785Z" fill="#0F0E2D"/>
<path d="M57.0612 116.364L56.7619 117.955L55.4219 117.705L55.7211 116.114L57.0612 116.364ZM54.4679 109.912C55.2188 110.052 55.768 110.375 56.1155 110.881C56.4612 111.396 56.5628 112.033 56.4203 112.79L55.1084 119.763L53.2408 119.414L54.4886 112.782C54.5545 112.432 54.5323 112.158 54.4218 111.961C54.3095 111.774 54.0918 111.65 53.7686 111.589C53.6166 111.561 53.4704 111.553 53.3302 111.566C53.1883 111.589 53.0059 111.643 52.7832 111.729L53.1252 109.911C53.3485 109.874 53.5731 109.857 53.7988 109.86C54.0168 109.852 54.2398 109.869 54.4679 109.912ZM53.9961 115.792L53.6968 117.383L51.8435 117.037L52.1428 115.446L53.9961 115.792Z" fill="#0F0E2D"/>
<path d="M44.2948 106.237C45.0247 106.592 45.587 107.059 45.9816 107.637C46.3676 108.21 46.5704 108.861 46.5902 109.589C46.5971 110.321 46.4011 111.094 46.0022 111.908L43.2589 117.504L41.5124 116.654L44.3067 110.955C44.5061 110.548 44.617 110.146 44.6392 109.749C44.6572 109.362 44.5738 109.005 44.3891 108.679C44.1915 108.358 43.8885 108.098 43.4801 107.899C43.063 107.696 42.6709 107.618 42.3038 107.665C41.9324 107.72 41.5987 107.874 41.3026 108.126C41.0024 108.388 40.7525 108.722 40.5531 109.128L37.7588 114.828L36.0124 113.978L38.7557 108.383C39.1334 107.612 39.6142 107.005 40.1981 106.56C40.7821 106.115 41.4241 105.859 42.124 105.792C42.824 105.725 43.5476 105.874 44.2948 106.237Z" fill="#0F0E2D"/>
<path d="M36.6057 101.468C37.1123 101.855 37.4901 102.259 37.7391 102.679C37.9805 103.094 38.1213 103.505 38.1615 103.912C38.2018 104.319 38.1669 104.705 38.0567 105.07L36.2598 104.627C36.341 104.252 36.3262 103.907 36.2153 103.591C36.0986 103.284 35.8906 103.016 35.5912 102.787C35.3456 102.6 35.0936 102.468 34.8352 102.392C34.571 102.324 34.3565 102.397 34.1918 102.611C34.0742 102.764 34.0368 102.924 34.0795 103.09C34.1088 103.258 34.1825 103.423 34.3007 103.586C34.413 103.757 34.538 103.919 34.6757 104.073L35.2518 104.749C35.4888 105.027 35.6751 105.339 35.8107 105.685C35.9405 106.039 35.9949 106.396 35.9737 106.756C35.939 107.118 35.8011 107.456 35.56 107.769C35.2895 108.121 34.9544 108.351 34.5549 108.458C34.1477 108.56 33.7155 108.552 33.2584 108.434C32.7936 108.309 32.3501 108.086 31.9279 107.764C31.5365 107.465 31.2187 107.15 30.9746 106.818C30.7304 106.486 30.5668 106.136 30.4835 105.769C30.3944 105.41 30.3925 105.033 30.4778 104.637L32.1996 105.059C32.146 105.382 32.1836 105.666 32.3126 105.91C32.434 106.148 32.6059 106.352 32.8285 106.522C33.0895 106.721 33.3349 106.829 33.5649 106.847C33.7949 106.865 33.9628 106.805 34.0686 106.667C34.1804 106.522 34.2007 106.337 34.1295 106.113C34.0583 105.889 33.9359 105.668 33.7621 105.451L33.0574 104.585C32.5799 104.002 32.313 103.446 32.2566 102.918C32.1925 102.384 32.3251 101.902 32.6544 101.474C32.9485 101.092 33.3186 100.84 33.7646 100.72C34.2048 100.607 34.6747 100.613 35.1743 100.74C35.6681 100.874 36.1452 101.117 36.6057 101.468Z" fill="#0F0E2D"/>
<path d="M25.4106 97.9746L25.4756 99.3286L23.7132 99.3998L23.6384 99.5149L24.1767 101.065L22.8875 101.518L22.356 99.9994L22.2405 99.9248L20.9488 100.953L20.0976 99.8921L21.3894 98.8638L21.3509 98.7464L19.9719 97.8837L20.6996 96.731L22.0991 97.596L22.2282 97.5487L22.6867 95.852L23.9981 96.2137L23.535 97.951L23.6075 98.0413L25.4106 97.9746Z" fill="#0F0E2D"/>
<path d="M22.098 82.1826C22.3847 82.888 22.5279 83.5993 22.5274 84.3166C22.5143 85.0286 22.3717 85.7044 22.0997 86.3442C21.8277 86.9839 21.4397 87.5562 20.9355 88.061C20.4276 88.5569 19.8197 88.9476 19.1116 89.2333C18.4036 89.5189 17.694 89.6597 16.9829 89.6556C16.2682 89.6425 15.5898 89.5005 14.9476 89.2296C14.3054 88.9586 13.7354 88.5702 13.2376 88.0643C12.7272 87.5531 12.3287 86.9449 12.0419 86.2395C11.835 85.7306 11.7072 85.2366 11.6585 84.7574C11.6008 84.2818 11.6158 83.8185 11.7037 83.3673C11.7879 82.9073 11.9386 82.4567 12.1558 82.0158L13.9098 82.7891C13.762 83.067 13.6546 83.3545 13.5876 83.6517C13.517 83.94 13.4932 84.2407 13.5161 84.5536C13.539 84.8665 13.6194 85.1926 13.7573 85.5319C14.0005 86.1301 14.3608 86.6187 14.8383 86.9977C15.3032 87.3713 15.8402 87.6016 16.4493 87.6884C17.0584 87.7752 17.699 87.6831 18.3712 87.4119C19.0344 87.1443 19.5589 86.7664 19.9447 86.2783C20.3215 85.7937 20.5508 85.2543 20.6326 84.6601C20.7019 84.0605 20.6149 83.4617 20.3717 82.8635C20.1539 82.3278 19.8495 81.8998 19.4585 81.5795C19.0639 81.2502 18.604 81.0044 18.079 80.8421L18.7797 79.0629C19.2832 79.2235 19.7492 79.446 20.1778 79.7304C20.5974 80.0184 20.9688 80.3674 21.292 80.7774C21.6152 81.1875 21.8838 81.6559 22.098 82.1826Z" fill="#0F0E2D"/>
<path d="M19.5632 72.731C19.68 73.4928 19.6164 74.1944 19.3724 74.8357C19.1174 75.4689 18.7238 75.9965 18.1919 76.4185C17.6489 76.8325 17.0094 77.0955 16.2733 77.2075C15.5373 77.3195 14.8529 77.258 14.2202 77.023C13.5764 76.7799 13.0427 76.3934 12.6191 75.8634C12.1844 75.3254 11.9087 74.6755 11.7919 73.9138C11.675 73.152 11.7442 72.4545 11.9992 71.8213C12.2542 71.188 12.6485 70.6652 13.1819 70.2527C13.7139 69.8307 14.3479 69.5636 15.0839 69.4516C15.8199 69.3396 16.5098 69.4051 17.1536 69.6482C17.7863 69.8832 18.3193 70.265 18.7525 70.7935C19.1761 71.3234 19.4463 71.9693 19.5632 72.731ZM17.8139 72.9973C17.7584 72.6354 17.6268 72.3193 17.419 72.0488C17.2002 71.7703 16.9192 71.5646 16.5761 71.4317C16.2218 71.2907 15.8201 71.2544 15.3709 71.3227C14.9216 71.3911 14.5538 71.5445 14.2676 71.783C13.9799 72.0119 13.7734 72.2918 13.6481 72.6227C13.5213 72.9441 13.4849 73.2809 13.5389 73.6333C13.5944 73.9951 13.7323 74.32 13.9526 74.6081C14.1713 74.8866 14.4531 75.0971 14.7977 75.2395C15.1409 75.3725 15.5371 75.4047 15.9864 75.3364C16.4356 75.268 16.8089 75.1186 17.1062 74.8882C17.3924 74.6498 17.5982 74.3651 17.7235 74.0342C17.8378 73.6952 17.8679 73.3496 17.8139 72.9973Z" fill="#0F0E2D"/>
<path d="M18.7116 66.8764L11.3226 66.5265L11.4073 64.7513L12.3346 64.7952L12.3401 64.6797C11.9933 64.4415 11.7281 64.1155 11.5445 63.7018C11.3513 63.2876 11.266 62.8448 11.2885 62.3733C11.3316 61.4689 11.6393 60.8035 12.2114 60.3774C12.7836 59.9512 13.5284 59.7599 14.446 59.8034L19.0387 60.0209L18.9485 61.9116L14.5876 61.705C14.1046 61.6822 13.7316 61.7899 13.4686 62.0281C13.1963 62.2563 13.0501 62.5821 13.0299 63.0055C13.0133 63.3518 13.0955 63.6595 13.2762 63.9284C13.4478 64.1873 13.6895 64.3964 14.0014 64.5559C14.304 64.7052 14.6485 64.789 15.0349 64.8073L18.8018 64.9857L18.7116 66.8764Z" fill="#0F0E2D"/>
<path d="M13.6336 57.7274L12.0439 57.3942L12.3247 56.0651L13.9143 56.3983L13.6336 57.7274ZM20.1668 55.2875C20.0095 56.0322 19.6732 56.572 19.1577 56.9069C18.6329 57.2398 17.9919 57.3269 17.2349 57.1683L10.2658 55.7073L10.6571 53.855L17.2856 55.2446C17.6357 55.318 17.9108 55.3018 18.111 55.1961C18.3017 55.0885 18.431 54.8744 18.4987 54.5539C18.5305 54.4031 18.5415 54.2577 18.5315 54.1178C18.5121 53.9759 18.4617 53.7931 18.3806 53.5694L20.1973 53.9502C20.2292 54.1735 20.2412 54.3975 20.2333 54.6222C20.2368 54.8395 20.2146 55.0613 20.1668 55.2875ZM14.2758 54.6875L12.6861 54.3542L13.0744 52.5161L14.6641 52.8493L14.2758 54.6875Z" fill="#0F0E2D"/>
<path d="M21.7465 50.5104C21.5589 50.9959 21.2975 51.3911 20.9621 51.696C20.6211 51.9885 20.233 52.1751 19.7977 52.256C19.3624 52.3368 18.9146 52.289 18.4544 52.1125C17.9761 51.9292 17.6124 51.6504 17.3632 51.2762C17.1175 50.893 16.9798 50.4583 16.95 49.9721C16.9238 49.4769 17.0096 48.9731 17.2076 48.4607C17.3152 48.182 17.4305 47.9372 17.5534 47.7263C17.6708 47.5029 17.7868 47.31 17.9014 47.1475C18.016 46.985 18.1229 46.8557 18.2222 46.7596L17.9244 46.6454C17.5544 46.5036 17.1982 46.527 16.8559 46.7158C16.5046 46.901 16.2352 47.2364 16.0476 47.7219C15.9226 48.0455 15.8777 48.3895 15.9131 48.754C15.9429 49.106 16.0414 49.4277 16.2086 49.7188L14.8776 50.5091C14.6757 50.1736 14.5327 49.8195 14.4488 49.4467C14.3558 49.0705 14.3292 48.6835 14.3688 48.2859C14.3995 47.8847 14.4912 47.4864 14.644 47.0908C15.0503 46.039 15.6031 45.3323 16.3023 44.9708C17.0014 44.6092 17.8203 44.6083 18.7588 44.9681L23.0094 46.5977L22.3373 48.3372L21.6334 48.0674L21.5918 48.1752C21.7056 48.3634 21.7982 48.5795 21.8697 48.8237C21.9321 49.0643 21.9553 49.3261 21.9393 49.609C21.9323 49.8953 21.868 50.1958 21.7465 50.5104ZM20.5272 49.5631C20.6661 49.2035 20.7058 48.8729 20.6461 48.5713C20.5809 48.2573 20.4463 47.989 20.2422 47.7663C20.0416 47.5345 19.8015 47.365 19.5217 47.2578C19.346 47.4175 19.1825 47.6129 19.0311 47.8438C18.8707 48.0713 18.7401 48.3154 18.6394 48.5761C18.438 49.0975 18.3983 49.4952 18.5205 49.7691C18.6426 50.043 18.8481 50.2353 19.1368 50.346C19.4076 50.4498 19.6696 50.4419 19.9231 50.3223C20.18 50.1937 20.3813 49.9406 20.5272 49.5631Z" fill="#0F0E2D"/>
<path d="M25.9885 41.9213C25.5902 42.5593 25.0957 43.0414 24.505 43.3674C23.9112 43.6802 23.2745 43.8246 22.5949 43.8006C21.9122 43.7634 21.2465 43.5438 20.5978 43.142C19.949 42.7401 19.461 42.245 19.1338 41.6566C18.8116 41.06 18.66 40.4273 18.6789 39.7584C18.703 39.0814 18.9142 38.4239 19.3125 37.7858C19.7465 37.0905 20.2671 36.5849 20.8742 36.269C21.4812 35.9532 22.1329 35.8578 22.8292 35.9828L22.5259 37.8367C22.1568 37.7896 21.8325 37.8439 21.5531 37.9997C21.2654 38.1505 21.0194 38.3895 20.8152 38.7167C20.616 39.0357 20.5153 39.3703 20.5131 39.7206C20.5026 40.0657 20.5869 40.3958 20.7659 40.7109C20.945 41.026 21.2234 41.3006 21.6011 41.5346C21.9789 41.7685 22.3533 41.8984 22.7244 41.9241C23.0873 41.9447 23.4259 41.8766 23.7402 41.7196C24.0463 41.5576 24.2989 41.3171 24.4981 40.998C24.7227 40.6381 24.8311 40.2912 24.8232 39.9574C24.807 39.6184 24.7053 39.2888 24.518 38.9686L26.0547 37.9298C26.427 38.5007 26.6176 39.1349 26.6263 39.8323C26.6351 40.5296 26.4225 41.226 25.9885 41.9213Z" fill="#0F0E2D"/>
<path d="M23.9735 34.3217L22.7477 33.2598L23.6424 32.2349L24.8682 33.2969L23.9735 34.3217ZM30.8727 35.3584C30.3715 35.9326 29.8139 36.241 29.2 36.2836C28.5788 36.32 27.9764 36.0853 27.3926 35.5796L22.0188 30.9241L23.2656 29.4958L28.3768 33.9237C28.6468 34.1576 28.8951 34.2769 29.1216 34.2817C29.3408 34.2801 29.5583 34.1558 29.774 33.9086C29.8755 33.7923 29.9561 33.6707 30.0158 33.5436C30.0681 33.4103 30.1135 33.2262 30.1519 32.9914L31.5528 34.205C31.4716 34.4155 31.3726 34.617 31.2559 34.8094C31.1527 35.0009 31.025 35.1839 30.8727 35.3584ZM26.0199 31.9776L24.7941 30.9157L26.0315 29.4983L27.2573 30.5602L26.0199 31.9776Z" fill="#0F0E2D"/>
<path d="M39.1804 28.4672C38.5051 28.9169 37.8175 29.1662 37.1176 29.2151C36.4257 29.2587 35.759 29.1059 35.1176 28.7567C34.4789 28.3941 33.907 27.8365 33.4019 27.0837L29.9279 21.9062L31.5437 20.8303L35.0822 26.1038C35.3348 26.4802 35.6275 26.7777 35.9603 26.9964C36.2877 27.2071 36.6392 27.3148 37.0147 27.3197C37.3928 27.3113 37.7708 27.1812 38.1486 26.9296C38.5345 26.6727 38.7997 26.3745 38.9441 26.035C39.0831 25.6875 39.1175 25.3228 39.0473 24.9409C38.9717 24.5509 38.8077 24.1677 38.5551 23.7913L35.0166 18.5178L36.6325 17.4418L40.1065 22.6193C40.5848 23.332 40.8699 24.0517 40.962 24.7782C41.0541 25.5048 40.953 26.1862 40.6588 26.8224C40.3645 27.4586 39.8717 28.0069 39.1804 28.4672Z" fill="#0F0E2D"/>
<path d="M47.1907 24.2455C46.6002 24.4867 46.0599 24.6085 45.5697 24.6109C45.0884 24.6096 44.6612 24.5238 44.288 24.3535C43.9149 24.1832 43.5978 23.9587 43.3368 23.6801L44.6264 22.357C44.9105 22.6157 45.2172 22.7768 45.5463 22.8401C45.8718 22.8946 46.209 22.8506 46.558 22.7081C46.8443 22.5911 47.0854 22.4406 47.2813 22.2565C47.4736 22.0634 47.5184 21.8421 47.4157 21.5926C47.3423 21.4143 47.2228 21.3017 47.0572 21.2548C46.8969 21.1954 46.7163 21.1755 46.5153 21.1951C46.3107 21.2058 46.1071 21.2317 45.9045 21.2728L45.0278 21.4278C44.6674 21.4917 44.3029 21.4948 43.9343 21.4372C43.562 21.3706 43.2251 21.2375 42.9235 21.038C42.6272 20.8258 42.4038 20.5371 42.2534 20.1717C42.0847 19.7617 42.0543 19.3577 42.1622 18.9596C42.279 18.5579 42.5039 18.1902 42.8368 17.8564C43.1787 17.519 43.5956 17.2498 44.0877 17.0488C44.544 16.8624 44.9776 16.7478 45.3884 16.705C45.7993 16.6621 46.1848 16.6973 46.5449 16.8104C46.9013 16.9147 47.2297 17.1033 47.5302 17.3762L46.2967 18.6452C46.0435 18.4363 45.7786 18.3259 45.502 18.3139C45.2343 18.2983 44.9707 18.3435 44.7112 18.4495C44.407 18.5737 44.1893 18.7303 44.0581 18.9193C43.9268 19.1082 43.8942 19.2829 43.9602 19.4433C44.0299 19.6127 44.1799 19.7232 44.4102 19.7749C44.6405 19.8266 44.8937 19.8325 45.1699 19.7925L46.2755 19.6221C47.0215 19.5048 47.6378 19.555 48.1246 19.7726C48.6202 19.9866 48.9707 20.3432 49.1762 20.8423C49.3596 21.2879 49.3912 21.7331 49.2712 22.1777C49.1474 22.6135 48.9049 23.0144 48.5435 23.3807C48.1785 23.738 47.7275 24.0263 47.1907 24.2455Z" fill="#0F0E2D"/>
<path d="M55.8622 16.3852L54.6569 15.7561L55.4867 14.2056L55.4249 14.0831L53.81 13.7613L54.07 12.4244L55.6541 12.736L55.7771 12.6745L55.5401 11.0443L56.8894 10.8497L57.1264 12.4798L57.2475 12.5062L58.6922 11.7576L59.3222 12.966L57.8653 13.731L57.8409 13.8659L59.0782 15.1182L58.1015 16.0621L56.8314 14.7854L56.7166 14.8019L55.8622 16.3852Z" fill="#0F0E2D"/>
</svg>
