<svg width="24" height="24" viewBox="0 0 24 24" fill="none" xmlns="http://www.w3.org/2000/svg">
<path d="M20.5714 3.42773H22.2857C22.513 3.42773 22.731 3.51804 22.8918 3.67879C23.0525 3.83953 23.1428 4.05755 23.1428 4.28488V17.9992C23.1428 18.2265 23.0525 18.4445 22.8918 18.6053C22.731 18.766 22.513 18.8563 22.2857 18.8563H1.71426C1.48693 18.8563 1.26891 18.766 1.10817 18.6053C0.947423 18.4445 0.857117 18.2265 0.857117 17.9992V4.28488C0.857117 4.05755 0.947423 3.83953 1.10817 3.67879C1.26891 3.51804 1.48693 3.42773 1.71426 3.42773H3.42855" stroke="#0F0E2D" stroke-width="1.5" stroke-linecap="round" stroke-linejoin="round"/>
<path d="M10.2857 18.8555L8.57141 23.1412" stroke="#0F0E2D" stroke-width="1.5" stroke-linecap="round" stroke-linejoin="round"/>
<path d="M13.7142 18.8555L15.4285 23.1412" stroke="#0F0E2D" stroke-width="1.5" stroke-linecap="round" stroke-linejoin="round"/>
<path d="M6.85712 23.1426H17.1428" stroke="#0F0E2D" stroke-width="1.5" stroke-linecap="round" stroke-linejoin="round"/>
<path d="M12.0514 3.42773V5.99916" stroke="#0F0E2D" stroke-width="1.5" stroke-linecap="round" stroke-linejoin="round"/>
<path d="M6.85712 6.42773L9.08569 7.71345" stroke="#0F0E2D" stroke-width="1.5" stroke-linecap="round" stroke-linejoin="round"/>
<path d="M6.85712 12.4283L9.08569 11.1426" stroke="#0F0E2D" stroke-width="1.5" stroke-linecap="round" stroke-linejoin="round"/>
<path d="M12.0514 15.4269V12.8555" stroke="#0F0E2D" stroke-width="1.5" stroke-linecap="round" stroke-linejoin="round"/>
<path d="M17.2457 12.4283L15.0171 11.1426" stroke="#0F0E2D" stroke-width="1.5" stroke-linecap="round" stroke-linejoin="round"/>
<path d="M17.2457 6.42773L15.0171 7.71345" stroke="#0F0E2D" stroke-width="1.5" stroke-linecap="round" stroke-linejoin="round"/>
<path d="M12.0514 12.8571C13.9449 12.8571 15.4799 11.3221 15.4799 9.42857C15.4799 7.53502 13.9449 6 12.0514 6C10.1578 6 8.6228 7.53502 8.6228 9.42857C8.6228 11.3221 10.1578 12.8571 12.0514 12.8571Z" stroke="#0F0E2D" stroke-width="1.5" stroke-linecap="round" stroke-linejoin="round"/>
</svg>
