<svg width="24" height="24" viewBox="0 0 24 24" fill="none" xmlns="http://www.w3.org/2000/svg">
<g clip-path="url(#clip0_227_6403)">
<path d="M20.1428 17.1426C20.7362 17.1426 21.3162 17.3186 21.8095 17.6482C22.3029 17.9779 22.6874 18.4464 22.9145 18.9946C23.1415 19.5428 23.2009 20.146 23.0852 20.7279C22.9694 21.3099 22.6837 21.8444 22.2642 22.264C21.8446 22.6835 21.31 22.9693 20.7281 23.085C20.1462 23.2008 19.543 23.1414 18.9948 22.9143C18.4466 22.6872 17.9781 22.3027 17.6484 21.8094C17.3188 21.316 17.1428 20.736 17.1428 20.1426V3.85693C17.1428 3.26359 17.3188 2.68357 17.6484 2.19022C17.9781 1.69688 18.4466 1.31236 18.9948 1.0853C19.543 0.858233 20.1462 0.798823 20.7281 0.914579C21.31 1.03033 21.8446 1.31606 22.2642 1.73561C22.6837 2.15517 22.9694 2.68972 23.0852 3.27166C23.2009 3.85361 23.1415 4.45681 22.9145 5.00499C22.6874 5.55316 22.3029 6.0217 21.8095 6.35134C21.3162 6.68099 20.7362 6.85693 20.1428 6.85693H3.85712C3.26377 6.85693 2.68375 6.68099 2.19041 6.35134C1.69706 6.0217 1.31254 5.55316 1.08548 5.00499C0.858417 4.45681 0.799007 3.85361 0.914762 3.27166C1.03052 2.68972 1.31624 2.15517 1.7358 1.73561C2.15536 1.31606 2.6899 1.03033 3.27185 0.914579C3.85379 0.798823 4.45699 0.858233 5.00517 1.0853C5.55335 1.31236 6.02188 1.69688 6.35153 2.19022C6.68117 2.68357 6.85712 3.26359 6.85712 3.85693V20.1426C6.85712 20.736 6.68117 21.316 6.35153 21.8094C6.02188 22.3027 5.55335 22.6872 5.00517 22.9143C4.45699 23.1414 3.85379 23.2008 3.27185 23.085C2.6899 22.9693 2.15536 22.6835 1.7358 22.264C1.31624 21.8444 1.03052 21.3099 0.914762 20.7279C0.799007 20.146 0.858417 19.5428 1.08548 18.9946C1.31254 18.4464 1.69706 17.9779 2.19041 17.6482C2.68375 17.3186 3.26377 17.1426 3.85712 17.1426H20.1428Z" stroke="#0F0E2D" stroke-width="1.5" stroke-linecap="round" stroke-linejoin="round"/>
</g>
<defs>
<clipPath id="clip0_227_6403">
<rect width="24" height="24" fill="white"/>
</clipPath>
</defs>
</svg>
