<svg width="24" height="24" viewBox="0 0 24 24" fill="none" xmlns="http://www.w3.org/2000/svg">
<g clip-path="url(#clip0_672_237)">
<path d="M12 9.4308C18.154 9.4308 23.1429 7.51202 23.1429 5.14509C23.1429 2.77815 18.154 0.859375 12 0.859375C5.84597 0.859375 0.857147 2.77815 0.857147 5.14509C0.857147 7.51202 5.84597 9.4308 12 9.4308Z" stroke="#0F0E2D" stroke-width="1.5" stroke-linecap="round" stroke-linejoin="round"/>
<path d="M0.857147 5.14453V18.8588C0.857147 21.2245 5.84572 23.1445 12 23.1445C18.1543 23.1445 23.1429 21.2245 23.1429 18.8588V5.14453" stroke="#0F0E2D" stroke-width="1.5" stroke-linecap="round" stroke-linejoin="round"/>
<path d="M23.1429 12C23.1429 14.3657 18.1543 16.2857 12 16.2857C5.84572 16.2857 0.857147 14.3657 0.857147 12" stroke="#0F0E2D" stroke-width="1.5" stroke-linecap="round" stroke-linejoin="round"/>
</g>
<defs>
<clipPath id="clip0_672_237">
<rect width="24" height="24" fill="white"/>
</clipPath>
</defs>
</svg>
