<svg width="24" height="24" viewBox="0 0 24 24" fill="none" xmlns="http://www.w3.org/2000/svg">
<g clip-path="url(#clip0_402_2459)">
<path d="M21.4289 0.857178H2.57171C1.62493 0.857178 0.857422 1.62469 0.857422 2.57146V21.4286C0.857422 22.3754 1.62493 23.1429 2.57171 23.1429H21.4289C22.3756 23.1429 23.1431 22.3754 23.1431 21.4286V2.57146C23.1431 1.62469 22.3756 0.857178 21.4289 0.857178Z" stroke="#0F0E2D" stroke-width="1.5" stroke-linecap="round" stroke-linejoin="round"/>
<path d="M9.41211 18.1029V11.5372C9.4169 11.4363 9.44639 11.3381 9.49798 11.2513C9.54957 11.1644 9.62169 11.0916 9.708 11.0391C9.79432 10.9867 9.8922 10.9562 9.99304 10.9504C10.0939 10.9446 10.1946 10.9636 10.2864 11.0058L15.9778 14.2801C16.07 14.3369 16.1461 14.4163 16.1989 14.5108C16.2517 14.6053 16.2794 14.7118 16.2794 14.8201C16.2794 14.9283 16.2517 15.0348 16.1989 15.1293C16.1461 15.2238 16.07 15.3033 15.9778 15.3601L10.2864 18.6515C10.193 18.6899 10.0919 18.7054 9.99129 18.6968C9.89071 18.6882 9.79364 18.6558 9.70813 18.6021C9.62263 18.5485 9.55117 18.4752 9.49968 18.3884C9.44819 18.3015 9.41817 18.2037 9.41211 18.1029V18.1029Z" stroke="#0F0E2D" stroke-width="1.5" stroke-linecap="round" stroke-linejoin="round"/>
<path d="M0.857422 6.85718H23.1431" stroke="#0F0E2D" stroke-width="1.5" stroke-linecap="round" stroke-linejoin="round"/>
<path d="M6.85742 6.85718L9.42885 0.857178" stroke="#0F0E2D" stroke-width="1.5" stroke-linecap="round" stroke-linejoin="round"/>
<path d="M14.5723 6.85718L17.1437 0.857178" stroke="#0F0E2D" stroke-width="1.5" stroke-linecap="round" stroke-linejoin="round"/>
</g>
<defs>
<clipPath id="clip0_402_2459">
<rect width="24" height="24" fill="white"/>
</clipPath>
</defs>
</svg>
