<svg width="24" height="24" viewBox="0 0 24 24" fill="none" xmlns="http://www.w3.org/2000/svg">
<path d="M17.1428 2.57141H6.85711C5.91033 2.57141 5.14282 3.33892 5.14282 4.2857V12.8571C5.14282 13.8039 5.91033 14.5714 6.85711 14.5714H17.1428C18.0896 14.5714 18.8571 13.8039 18.8571 12.8571V4.2857C18.8571 3.33892 18.0896 2.57141 17.1428 2.57141Z" stroke="#0F0E2D" stroke-width="1.5" stroke-linecap="round" stroke-linejoin="round"/>
<path d="M5.14289 7.71423H2.57146C2.11681 7.71423 1.68077 7.89485 1.35928 8.21634C1.03779 8.53783 0.857178 8.97386 0.857178 9.42852V17.1428C0.857178 17.5975 1.03779 18.0335 1.35928 18.355C1.68077 18.6765 2.11681 18.8571 2.57146 18.8571H21.4286C21.8833 18.8571 22.3193 18.6765 22.6408 18.355C22.9623 18.0335 23.1429 17.5975 23.1429 17.1428V9.42852C23.1429 8.97386 22.9623 8.53783 22.6408 8.21634C22.3193 7.89485 21.8833 7.71423 21.4286 7.71423H18.8572" stroke="#0F0E2D" stroke-width="1.5" stroke-linecap="round" stroke-linejoin="round"/>
<path d="M6.85714 18.8572L6 23.1429" stroke="#0F0E2D" stroke-width="1.5" stroke-linecap="round" stroke-linejoin="round"/>
<path d="M17.1428 18.8572L18 23.1429" stroke="#0F0E2D" stroke-width="1.5" stroke-linecap="round" stroke-linejoin="round"/>
</svg>
