<svg width="28" height="28" viewBox="0 0 28 28" fill="none" xmlns="http://www.w3.org/2000/svg">
<g clip-path="url(#clip0_424_9139)">
<path d="M14.72 26.86C14.2566 27.0388 13.7434 27.0388 13.28 26.86V26.86C9.66139 25.4411 6.55426 22.9648 4.36377 19.754C2.17328 16.5432 1.00107 12.7468 1 8.86V3C1 2.46957 1.21071 1.96086 1.58579 1.58579C1.96086 1.21071 2.46957 1 3 1H25C25.5304 1 26.0391 1.21071 26.4142 1.58579C26.7893 1.96086 27 2.46957 27 3V8.84C27.0029 12.7303 25.8326 16.531 23.6419 19.7457C21.4511 22.9605 18.3418 25.4399 14.72 26.86V26.86Z" stroke="#0F0E2D" stroke-width="1.5" stroke-linecap="round" stroke-linejoin="round"/>
<path d="M14 16C16.7614 16 19 13.7614 19 11C19 8.23858 16.7614 6 14 6C11.2386 6 9 8.23858 9 11C9 13.7614 11.2386 16 14 16Z" stroke="#0F0E2D" stroke-width="1.5" stroke-linecap="round" stroke-linejoin="round"/>
<path d="M6.5 22.3798C7.43842 21.3157 8.59251 20.4635 9.88562 19.8798C11.1787 19.296 12.5812 18.9941 14 18.9941C15.4188 18.9941 16.8213 19.296 18.1144 19.8798C19.4075 20.4635 20.5616 21.3157 21.5 22.3798" stroke="#0F0E2D" stroke-width="1.5" stroke-linecap="round" stroke-linejoin="round"/>
</g>
<defs>
<clipPath id="clip0_424_9139">
<rect width="28" height="28" fill="white"/>
</clipPath>
</defs>
</svg>
