<svg width="24" height="24" viewBox="0 0 24 24" fill="none" xmlns="http://www.w3.org/2000/svg">
<path d="M20.5717 3.42859H22.286C22.5133 3.42859 22.7313 3.51889 22.8921 3.67964C23.0528 3.84039 23.1431 4.0584 23.1431 4.28573V18C23.1431 18.2273 23.0528 18.4454 22.8921 18.6061C22.7313 18.7669 22.5133 18.8572 22.286 18.8572H1.71456C1.48724 18.8572 1.26922 18.7669 1.10847 18.6061C0.947728 18.4454 0.857422 18.2273 0.857422 18V4.28573C0.857422 4.0584 0.947728 3.84039 1.10847 3.67964C1.26922 3.51889 1.48724 3.42859 1.71456 3.42859H3.42885" stroke="#0F0E2D" stroke-width="1.5" stroke-linecap="round" stroke-linejoin="round"/>
<path d="M10.2856 18.8572L8.57129 23.1429" stroke="#0F0E2D" stroke-width="1.5" stroke-linecap="round" stroke-linejoin="round"/>
<path d="M13.7148 18.8572L15.4291 23.1429" stroke="#0F0E2D" stroke-width="1.5" stroke-linecap="round" stroke-linejoin="round"/>
<path d="M6.85742 23.1428H17.1431" stroke="#0F0E2D" stroke-width="1.5" stroke-linecap="round" stroke-linejoin="round"/>
<path d="M12.0518 3.42859V6.00002" stroke="#0F0E2D" stroke-width="1.5" stroke-linecap="round" stroke-linejoin="round"/>
<path d="M6.85742 6.42859L9.08599 7.7143" stroke="#0F0E2D" stroke-width="1.5" stroke-linecap="round" stroke-linejoin="round"/>
<path d="M6.85742 12.4285L9.08599 11.1428" stroke="#0F0E2D" stroke-width="1.5" stroke-linecap="round" stroke-linejoin="round"/>
<path d="M12.0518 15.4286V12.8572" stroke="#0F0E2D" stroke-width="1.5" stroke-linecap="round" stroke-linejoin="round"/>
<path d="M17.2461 12.4285L15.0176 11.1428" stroke="#0F0E2D" stroke-width="1.5" stroke-linecap="round" stroke-linejoin="round"/>
<path d="M17.2461 6.42859L15.0176 7.7143" stroke="#0F0E2D" stroke-width="1.5" stroke-linecap="round" stroke-linejoin="round"/>
<path d="M12.0516 12.8571C13.9452 12.8571 15.4802 11.3221 15.4802 9.42857C15.4802 7.53502 13.9452 6 12.0516 6C10.1581 6 8.62305 7.53502 8.62305 9.42857C8.62305 11.3221 10.1581 12.8571 12.0516 12.8571Z" stroke="#0F0E2D" stroke-width="1.5" stroke-linecap="round" stroke-linejoin="round"/>
</svg>
