<svg width="24" height="24" viewBox="0 0 24 24" fill="none" xmlns="http://www.w3.org/2000/svg">
<g clip-path="url(#clip0_342_559)">
<path d="M2.57146 23.1429C2.11681 23.1429 1.68077 22.9623 1.35928 22.6408C1.03779 22.3193 0.857178 21.8833 0.857178 21.4286V2.57146C0.857178 2.11681 1.03779 1.68077 1.35928 1.35928C1.68077 1.03779 2.11681 0.857178 2.57146 0.857178H21.4286C21.8833 0.857178 22.3193 1.03779 22.6408 1.35928C22.9623 1.68077 23.1429 2.11681 23.1429 2.57146V21.4286C23.1429 21.8833 22.9623 22.3193 22.6408 22.6408C22.3193 22.9623 21.8833 23.1429 21.4286 23.1429" stroke="#0F0E2D" stroke-width="1.5" stroke-linecap="round" stroke-linejoin="round"/>
<path d="M0.857178 6H23.1429" stroke="#0F0E2D" stroke-width="1.5" stroke-linecap="round" stroke-linejoin="round"/>
<path d="M11.0573 12.6344C11.131 12.4443 11.2606 12.281 11.4288 12.1658C11.5971 12.0506 11.7962 11.989 12.0001 11.989C12.204 11.989 12.4031 12.0506 12.5714 12.1658C12.7396 12.281 12.8692 12.4443 12.943 12.6344L14.0401 15.4287H16.9715C17.1632 15.4433 17.347 15.5113 17.5019 15.6251C17.6569 15.7388 17.7769 15.8938 17.8483 16.0722C17.9197 16.2507 17.9396 16.4457 17.9059 16.6349C17.8721 16.8242 17.786 17.0002 17.6573 17.1429L15.0687 19.4744L16.1658 21.6687C16.2651 21.8613 16.2988 22.0811 16.2617 22.2946C16.2245 22.5082 16.1186 22.7037 15.9601 22.8515C15.8027 23.0012 15.6025 23.0981 15.3875 23.1288C15.1724 23.1596 14.9532 23.1225 14.7601 23.0229L12.0001 21.5144L9.24011 23.0229C9.04706 23.1225 8.82778 23.1596 8.61274 23.1288C8.39769 23.0981 8.19755 23.0012 8.04011 22.8515C7.88159 22.7037 7.7757 22.5082 7.73856 22.2946C7.70143 22.0811 7.73508 21.8613 7.8344 21.6687L8.93154 19.4744L6.34297 17.1429C6.21425 17.0002 6.12812 16.8242 6.09436 16.6349C6.06059 16.4457 6.08054 16.2507 6.15194 16.0722C6.22333 15.8938 6.34332 15.7388 6.49829 15.6251C6.65325 15.5113 6.837 15.4433 7.02868 15.4287H9.96011L11.0573 12.6344Z" stroke="#0F0E2D" stroke-width="1.5" stroke-linecap="round" stroke-linejoin="round"/>
</g>
<defs>
<clipPath id="clip0_342_559">
<rect width="24" height="24" fill="white"/>
</clipPath>
</defs>
</svg>
