<svg width="24" height="24" viewBox="0 0 24 24" fill="none" xmlns="http://www.w3.org/2000/svg">
<path d="M20.0357 17.0357C20.6291 17.0357 21.2091 17.2117 21.7024 17.5413C22.1958 17.871 22.5803 18.3395 22.8074 18.8877C23.0344 19.4358 23.0938 20.039 22.9781 20.621C22.8623 21.2029 22.5766 21.7375 22.157 22.157C21.7375 22.5766 21.2029 22.8623 20.621 22.9781C20.039 23.0938 19.4358 23.0344 18.8877 22.8074C18.3395 22.5803 17.871 22.1958 17.5413 21.7024C17.2117 21.2091 17.0357 20.6291 17.0357 20.0357V3.75C17.0357 3.15666 17.2117 2.57664 17.5413 2.08329C17.871 1.58994 18.3395 1.20543 18.8877 0.978363C19.4358 0.7513 20.039 0.69189 20.621 0.807646C21.2029 0.923401 21.7375 1.20912 22.157 1.62868C22.5766 2.04824 22.8623 2.58279 22.9781 3.16473C23.0938 3.74667 23.0344 4.34987 22.8074 4.89805C22.5803 5.44623 22.1958 5.91477 21.7024 6.24441C21.2091 6.57405 20.6291 6.75 20.0357 6.75H3.75C3.15666 6.75 2.57664 6.57405 2.08329 6.24441C1.58994 5.91477 1.20543 5.44623 0.978363 4.89805C0.7513 4.34987 0.69189 3.74667 0.807646 3.16473C0.923401 2.58279 1.20912 2.04824 1.62868 1.62868C2.04824 1.20912 2.58279 0.923401 3.16473 0.807646C3.74667 0.69189 4.34987 0.7513 4.89805 0.978363C5.44623 1.20543 5.91477 1.58994 6.24441 2.08329C6.57405 2.57664 6.75 3.15666 6.75 3.75V20.0357C6.75 20.6291 6.57405 21.2091 6.24441 21.7024C5.91477 22.1958 5.44623 22.5803 4.89805 22.8074C4.34987 23.0344 3.74667 23.0938 3.16473 22.9781C2.58279 22.8623 2.04824 22.5766 1.62868 22.157C1.20912 21.7375 0.923401 21.2029 0.807646 20.621C0.69189 20.039 0.7513 19.4358 0.978363 18.8877C1.20543 18.3395 1.58994 17.871 2.08329 17.5413C2.57664 17.2117 3.15666 17.0357 3.75 17.0357H20.0357Z" stroke="#0F0E2D" stroke-width="1.5" stroke-linecap="round" stroke-linejoin="round"/>
</svg>
