<svg width="24" height="24" viewBox="0 0 24 24" fill="none" xmlns="http://www.w3.org/2000/svg">
<g clip-path="url(#clip0_342_545)">
<path d="M2.57153 18H21.4287V21.4286C21.4287 21.8832 21.2481 22.3193 20.9266 22.6408C20.6051 22.9622 20.169 23.1429 19.7144 23.1429H4.28582C3.83116 23.1429 3.39513 22.9622 3.07364 22.6408C2.75214 22.3193 2.57153 21.8832 2.57153 21.4286V18Z" stroke="#0F0E2D" stroke-width="1.5" stroke-linecap="round" stroke-linejoin="round"/>
<path d="M18 11.1429C17.5454 11.1429 17.1093 10.9623 16.7879 10.6408C16.4664 10.3193 16.2857 9.88326 16.2857 9.42861V5.14289C16.2857 4.00625 15.8342 2.91616 15.0305 2.11243C14.2268 1.30871 13.1367 0.857178 12 0.857178C10.8634 0.857178 9.7733 1.30871 8.96958 2.11243C8.16585 2.91616 7.71432 4.00625 7.71432 5.14289V9.42861C7.71432 9.88326 7.53371 10.3193 7.21222 10.6408C6.89073 10.9623 6.45469 11.1429 6.00003 11.1429H4.28575C3.37644 11.1429 2.50436 11.5041 1.86138 12.1471C1.2184 12.7901 0.857178 13.6621 0.857178 14.5715V16.2857C0.857178 16.7404 1.03779 17.1764 1.35928 17.4979C1.68077 17.8194 2.11681 18 2.57146 18H21.4286C21.8833 18 22.3193 17.8194 22.6408 17.4979C22.9623 17.1764 23.1429 16.7404 23.1429 16.2857V14.5715C23.1429 13.6621 22.7817 12.7901 22.1387 12.1471C21.4957 11.5041 20.6236 11.1429 19.7143 11.1429H18Z" stroke="#0F0E2D" stroke-width="1.5" stroke-linecap="round" stroke-linejoin="round"/>
</g>
<defs>
<clipPath id="clip0_342_545">
<rect width="24" height="24" fill="white"/>
</clipPath>
</defs>
</svg>
