<svg width="24" height="24" viewBox="0 0 24 24" fill="none" xmlns="http://www.w3.org/2000/svg">
<path d="M18.24 2.63867H5.76C5.47228 2.64657 5.19046 2.72207 4.93732 2.85906C4.68419 2.99605 4.46684 3.19069 4.30286 3.42724L1.18286 7.74724C0.951184 8.07463 0.835484 8.47001 0.854118 8.87064C0.872752 9.27127 1.02465 9.65421 1.28572 9.95867L10.6457 20.7415C10.806 20.948 11.0113 21.1151 11.246 21.2301C11.4807 21.345 11.7386 21.4048 12 21.4048C12.2614 21.4048 12.5193 21.345 12.754 21.2301C12.9887 21.1151 13.194 20.948 13.3543 20.7415L22.7143 9.95867C22.9753 9.65421 23.1272 9.27127 23.1459 8.87064C23.1645 8.47001 23.0488 8.07463 22.8171 7.74724L19.6971 3.42724C19.5332 3.19069 19.3158 2.99605 19.0627 2.85906C18.8095 2.72207 18.5277 2.64657 18.24 2.63867V2.63867Z" stroke="#0F0E2D" stroke-width="1.5" stroke-linecap="round" stroke-linejoin="round"/>
<path d="M11.1086 2.62305L6.92572 9.10305L12 21.3602" stroke="#0F0E2D" stroke-width="1.5" stroke-linecap="round" stroke-linejoin="round"/>
<path d="M12.9429 2.62305L17.1086 9.10305L12 21.3602" stroke="#0F0E2D" stroke-width="1.5" stroke-linecap="round" stroke-linejoin="round"/>
<path d="M0.891418 9.10352H23.1086" stroke="#0F0E2D" stroke-width="1.5" stroke-linecap="round" stroke-linejoin="round"/>
</svg>
