<svg width="24" height="24" viewBox="0 0 24 24" fill="none" xmlns="http://www.w3.org/2000/svg">
<path d="M16.2857 2.57227H18.8572C19.3118 2.57227 19.7479 2.75288 20.0693 3.07437C20.3908 3.39586 20.5714 3.83189 20.5714 4.28655V21.4294C20.5714 21.8841 20.3908 22.3201 20.0693 22.6416C19.7479 22.9631 19.3118 23.1437 18.8572 23.1437H5.14287C4.68822 23.1437 4.25218 22.9631 3.93069 22.6416C3.6092 22.3201 3.42859 21.8841 3.42859 21.4294V4.28655C3.42859 3.83189 3.6092 3.39586 3.93069 3.07437C4.25218 2.75288 4.68822 2.57227 5.14287 2.57227H7.7143" stroke="#0F0E2D" stroke-width="1.5" stroke-linecap="round" stroke-linejoin="round"/>
<path d="M14.5714 0.857422H9.42858C8.48181 0.857422 7.71429 1.62493 7.71429 2.57171V3.42885C7.71429 4.37562 8.48181 5.14314 9.42858 5.14314H14.5714C15.5182 5.14314 16.2857 4.37562 16.2857 3.42885V2.57171C16.2857 1.62493 15.5182 0.857422 14.5714 0.857422Z" stroke="#0F0E2D" stroke-width="1.5" stroke-linecap="round" stroke-linejoin="round"/>
<path d="M7.71429 9.42969H16.2857" stroke="#0F0E2D" stroke-width="1.5" stroke-linecap="round" stroke-linejoin="round"/>
<path d="M7.71429 13.7148H16.2857" stroke="#0F0E2D" stroke-width="1.5" stroke-linecap="round" stroke-linejoin="round"/>
<path d="M7.71429 18H16.2857" stroke="#0F0E2D" stroke-width="1.5" stroke-linecap="round" stroke-linejoin="round"/>
</svg>
