<svg width="24" height="24" viewBox="0 0 24 24" fill="none" xmlns="http://www.w3.org/2000/svg">
<g clip-path="url(#clip0_672_71)">
<path d="M7.71426 22.2885C11.5014 22.2885 14.5714 19.2185 14.5714 15.4314C14.5714 11.6443 11.5014 8.57422 7.71426 8.57422C3.92716 8.57422 0.857117 11.6443 0.857117 15.4314C0.857117 19.2185 3.92716 22.2885 7.71426 22.2885Z" stroke="#0F0E2D" stroke-width="1.5" stroke-linecap="round" stroke-linejoin="round"/>
<path d="M16.2857 22.2885C20.0728 22.2885 23.1428 19.2185 23.1428 15.4314C23.1428 11.6443 20.0728 8.57422 16.2857 8.57422C12.4986 8.57422 9.42856 11.6443 9.42856 15.4314C9.42856 19.2185 12.4986 22.2885 16.2857 22.2885Z" stroke="#0F0E2D" stroke-width="1.5" stroke-linecap="round" stroke-linejoin="round"/>
<path d="M12 15.4272C15.7871 15.4272 18.8571 12.3571 18.8571 8.57003C18.8571 4.78294 15.7871 1.71289 12 1.71289C8.21287 1.71289 5.14282 4.78294 5.14282 8.57003C5.14282 12.3571 8.21287 15.4272 12 15.4272Z" stroke="#0F0E2D" stroke-width="1.5" stroke-linecap="round" stroke-linejoin="round"/>
</g>
<defs>
<clipPath id="clip0_672_71">
<rect width="24" height="24" fill="white"/>
</clipPath>
</defs>
</svg>
