<svg width="24" height="24" viewBox="0 0 24 24" fill="none" xmlns="http://www.w3.org/2000/svg">
<g clip-path="url(#clip0_672_7381)">
<path d="M18 18.8538H21.4286C21.8832 18.8538 22.3193 18.6732 22.6408 18.3517C22.9622 18.0302 23.1429 17.5942 23.1429 17.1395V9.42522C23.1429 8.97057 22.9622 8.53453 22.6408 8.21304C22.3193 7.89155 21.8832 7.71094 21.4286 7.71094H2.57143C2.11678 7.71094 1.68074 7.89155 1.35925 8.21304C1.03776 8.53453 0.857147 8.97057 0.857147 9.42522V17.1395C0.857147 17.5942 1.03776 18.0302 1.35925 18.3517C1.68074 18.6732 2.11678 18.8538 2.57143 18.8538H6" stroke="#0F0E2D" stroke-width="1.5" stroke-linecap="round" stroke-linejoin="round"/>
<path d="M6 16.2852V22.2852C6 22.5125 6.09031 22.7305 6.25105 22.8912C6.4118 23.052 6.62981 23.1423 6.85714 23.1423H17.1429C17.3702 23.1423 17.5882 23.052 17.7489 22.8912C17.9097 22.7305 18 22.5125 18 22.2852V16.2852H6Z" stroke="#0F0E2D" stroke-width="1.5" stroke-linecap="round" stroke-linejoin="round"/>
<path d="M18 7.71261V1.71261C18 1.48528 17.9097 1.26727 17.7489 1.10652C17.5882 0.945775 17.3702 0.855469 17.1429 0.855469H6.85714C6.62981 0.855469 6.4118 0.945775 6.25105 1.10652C6.09031 1.26727 6 1.48528 6 1.71261V7.71261" stroke="#0F0E2D" stroke-width="1.5" stroke-linecap="round" stroke-linejoin="round"/>
<path d="M18.8571 12H17.1429" stroke="#0F0E2D" stroke-width="1.5" stroke-linecap="round" stroke-linejoin="round"/>
</g>
<defs>
<clipPath id="clip0_672_7381">
<rect width="24" height="24" fill="white"/>
</clipPath>
</defs>
</svg>
