<svg width="38" height="38" viewBox="0 0 38 38" fill="none" xmlns="http://www.w3.org/2000/svg">
<g clip-path="url(#clip0_417_736)">
<path d="M21.7593 28H14.7591C14.4483 28 14.176 28.1174 13.9427 28.3503C13.7091 28.5838 13.5926 28.8558 13.5926 29.167V36.1674C13.5926 36.4786 13.7095 36.7509 13.9427 36.9841C14.176 37.2169 14.448 37.3341 14.7591 37.3341H21.7593C22.07 37.3341 22.3431 37.2172 22.5755 36.9841C22.8094 36.7509 22.9262 36.4786 22.9262 36.1674V29.167C22.9262 28.8558 22.8098 28.5838 22.5755 28.3503C22.3431 28.1168 22.07 28 21.7593 28Z" fill="#FFB967"/>
<path d="M30.9475 7.04396C30.1501 5.57512 29.1198 4.33614 27.8556 3.32476C26.5922 2.3138 25.1718 1.50644 23.5971 0.903903C22.0221 0.301573 20.4569 0 18.9011 0C12.9902 0 8.4792 2.58615 5.36785 7.75856C5.21246 8.0112 5.15883 8.28336 5.20736 8.57512C5.25619 8.86648 5.40687 9.10962 5.65961 9.30403L10.4431 12.9502C10.6958 13.1055 10.939 13.1832 11.1724 13.1832C11.5225 13.1832 11.8237 13.0274 12.0767 12.7163C13.4765 10.9666 14.517 9.84853 15.1975 9.36215C16.0338 8.79844 17.0834 8.51669 18.3473 8.51669C19.5334 8.51669 20.5783 8.82786 21.4828 9.4496C22.3869 10.072 22.8386 10.7915 22.8386 11.6081C22.8386 12.5216 22.5959 13.2608 22.1097 13.8248C21.6237 14.3885 20.8067 14.9327 19.6593 15.4579C18.143 16.1384 16.7521 17.1934 15.4888 18.6226C14.2246 20.0519 13.593 21.5734 13.593 23.1872V24.4997C13.593 24.8695 13.6945 25.2339 13.899 25.5936C14.1034 25.9536 14.3511 26.1333 14.643 26.1333H21.643C21.9542 26.1333 22.2261 25.9829 22.4597 25.6805C22.6925 25.38 22.8097 25.0639 22.8097 24.7338C22.8097 24.2478 23.077 23.5958 23.6113 22.7795C24.1461 21.9629 24.8119 21.3303 25.6097 20.8829C26.3676 20.4553 26.9602 20.1106 27.3884 19.8478C27.8171 19.5856 28.3757 19.1618 29.0662 18.5788C29.7564 17.9953 30.2912 17.4168 30.6699 16.8434C31.0492 16.2698 31.3897 15.5259 31.691 14.6118C31.993 13.698 32.1434 12.7159 32.1434 11.666C32.1432 10.0521 31.7443 8.51127 30.9475 7.04396Z" fill="#FFB967"/>
</g>
<defs>
<clipPath id="clip0_417_736">
<rect width="37.3332" height="37.3332" fill="white"/>
</clipPath>
</defs>
</svg>
