<svg width="16" height="16" viewBox="0 0 16 16" fill="none" xmlns="http://www.w3.org/2000/svg">
<g clip-path="url(#clip0_227_6366)">
<path d="M15.1477 6.9998C14.8789 6.73105 14.5258 6.58418 14.1477 6.58418C12.7164 6.58418 11.3039 6.81543 9.94766 7.2748L9.31641 7.4873C9.27891 7.4998 9.25703 7.44668 9.29141 7.43105L9.89141 7.13418C11.1758 6.4998 12.3383 5.66543 13.3508 4.65293C13.6164 4.3873 13.7633 4.04043 13.7664 3.67168C13.7758 2.89668 13.1445 2.2498 12.3695 2.2373C11.9852 2.23105 11.6227 2.38105 11.3508 2.65293C10.3383 3.66543 9.50391 4.82793 8.86953 6.1123L8.57266 6.7123C8.55391 6.74668 8.50391 6.7248 8.51641 6.6873L8.72891 6.05605C9.18828 4.6998 9.41953 3.2873 9.41953 1.85605C9.41953 1.47793 9.27266 1.12168 9.00391 0.856055C8.73516 0.587305 8.38203 0.44043 8.00391 0.44043C7.62578 0.44043 7.26953 0.587305 7.00391 0.856055C6.73516 1.1248 6.58828 1.47793 6.58828 1.85605C6.58828 3.2873 6.81953 4.6998 7.27891 6.05605L7.49141 6.6873C7.50391 6.7248 7.45078 6.74668 7.43516 6.7123L7.13828 6.1123C6.50391 4.82793 5.66953 3.66543 4.65703 2.65293C4.39141 2.3873 4.04453 2.24043 3.67578 2.2373C2.89766 2.22793 2.25078 2.85918 2.24141 3.63418C2.23516 4.01855 2.38516 4.38105 2.65703 4.65293C3.66953 5.66543 4.83203 6.4998 6.11641 7.13418L6.71641 7.43105C6.75078 7.4498 6.72891 7.4998 6.69141 7.4873L6.06016 7.2748C4.70391 6.81543 3.29141 6.58418 1.86016 6.58418C1.48203 6.58418 1.12578 6.73105 0.860156 6.9998C0.307031 7.55293 0.307031 8.4498 0.860156 9.00293C1.12891 9.27168 1.48203 9.41855 1.86016 9.41855C3.29141 9.41855 4.70391 9.1873 6.06016 8.72793L6.69141 8.51543C6.72891 8.50293 6.75078 8.55605 6.71641 8.57168L6.11641 8.86855C4.83203 9.50293 3.66953 10.3373 2.65703 11.3498C2.39141 11.6154 2.24453 11.9623 2.24141 12.3311C2.23203 13.1061 2.86328 13.7529 3.63828 13.7654C4.02266 13.7717 4.38516 13.6217 4.65703 13.3498C5.66953 12.3373 6.50391 11.1748 7.13828 9.89043L7.43516 9.29043C7.45391 9.25605 7.50391 9.27793 7.49141 9.31543L7.27891 9.94668C6.81953 11.3029 6.58828 12.7154 6.58828 14.1467C6.58828 14.5248 6.73516 14.8811 7.00391 15.1467C7.27266 15.4154 7.62578 15.5623 8.00391 15.5623C8.38203 15.5623 8.73828 15.4154 9.00391 15.1467C9.27266 14.8779 9.41953 14.5248 9.41953 14.1467C9.41953 12.7154 9.18828 11.3029 8.72891 9.94668L8.51641 9.31543C8.50391 9.27793 8.55703 9.25605 8.57266 9.29043L8.86953 9.89043C9.50391 11.1748 10.3383 12.3373 11.3508 13.3498C11.6164 13.6154 11.9633 13.7623 12.332 13.7654C13.107 13.7748 13.7539 13.1436 13.7664 12.3686C13.7727 11.9842 13.6227 11.6217 13.3508 11.3498C12.3383 10.3373 11.1758 9.50293 9.89141 8.86855L9.29141 8.57168C9.25703 8.55293 9.27891 8.50293 9.31641 8.51543L9.94766 8.72793C11.3039 9.1873 12.7164 9.41855 14.1477 9.41855C14.5258 9.41855 14.882 9.27168 15.1477 9.00293C15.7008 8.4498 15.7008 7.5498 15.1477 6.9998Z" fill="#123017"/>
</g>
<defs>
<clipPath id="clip0_227_6366">
<rect width="16" height="16" fill="white"/>
</clipPath>
</defs>
</svg>
