<svg width="24" height="24" viewBox="0 0 24 24" fill="none" xmlns="http://www.w3.org/2000/svg">
<path d="M17.1429 2.57031H6.85723C5.91046 2.57031 5.14294 3.33782 5.14294 4.2846V12.856C5.14294 13.8028 5.91046 14.5703 6.85723 14.5703H17.1429C18.0897 14.5703 18.8572 13.8028 18.8572 12.856V4.2846C18.8572 3.33782 18.0897 2.57031 17.1429 2.57031Z" stroke="#0F0E2D" stroke-width="1.5" stroke-linecap="round" stroke-linejoin="round"/>
<path d="M5.14289 7.71484H2.57146C2.11681 7.71484 1.68077 7.89546 1.35928 8.21695C1.03779 8.53844 0.857178 8.97447 0.857178 9.42913V17.1434C0.857178 17.5981 1.03779 18.0341 1.35928 18.3556C1.68077 18.6771 2.11681 18.8577 2.57146 18.8577H21.4286C21.8833 18.8577 22.3193 18.6771 22.6408 18.3556C22.9623 18.0341 23.1429 17.5981 23.1429 17.1434V9.42913C23.1429 8.97447 22.9623 8.53844 22.6408 8.21695C22.3193 7.89546 21.8833 7.71484 21.4286 7.71484H18.8572" stroke="#0F0E2D" stroke-width="1.5" stroke-linecap="round" stroke-linejoin="round"/>
<path d="M6.85714 18.8555L6 23.1412" stroke="#0F0E2D" stroke-width="1.5" stroke-linecap="round" stroke-linejoin="round"/>
<path d="M17.1429 18.8555L18.0001 23.1412" stroke="#0F0E2D" stroke-width="1.5" stroke-linecap="round" stroke-linejoin="round"/>
</svg>
