<svg width="24" height="24" viewBox="0 0 24 24" fill="none" xmlns="http://www.w3.org/2000/svg">
<g clip-path="url(#clip0_342_2405)">
<path d="M18.9677 14.8668C18.4763 14.3552 17.8837 14.0817 17.2556 14.0817C16.6326 14.0817 16.0348 14.3501 15.5232 14.8617L13.9226 16.4573C13.7909 16.3864 13.6592 16.3206 13.5326 16.2547C13.3502 16.1635 13.178 16.0774 13.0311 15.9863C11.5317 15.034 10.1691 13.793 8.86229 12.1872C8.22911 11.3869 7.80362 10.7132 7.49464 10.0294C7.91 9.64949 8.29496 9.25439 8.6698 8.87449C8.81163 8.73266 8.95346 8.58576 9.09529 8.44393C10.159 7.3802 10.159 6.00243 9.09529 4.9387L7.71245 3.55585C7.55542 3.39883 7.39333 3.23674 7.24137 3.07464C6.93745 2.76059 6.61833 2.43641 6.28908 2.13249C5.79774 1.64621 5.21016 1.38788 4.59218 1.38788C3.97421 1.38788 3.3765 1.64621 2.86996 2.13249C2.86489 2.13755 2.86489 2.13755 2.85983 2.14262L1.13761 3.88004C0.489239 4.5284 0.119467 5.3186 0.0384213 6.23543C-0.0831474 7.71452 0.352474 9.0923 0.686788 9.99393C1.50738 12.2075 2.7332 14.259 4.56179 16.4573C6.78042 19.1065 9.44987 21.1985 12.4992 22.6725C13.6643 23.2247 15.2193 23.8781 16.9567 23.9895C17.0631 23.9946 17.1745 23.9997 17.2759 23.9997C18.446 23.9997 19.4286 23.5792 20.1986 22.7435C20.2036 22.7333 20.2138 22.7283 20.2188 22.7181C20.4822 22.399 20.7862 22.1103 21.1053 21.8013C21.3231 21.5936 21.546 21.3758 21.7638 21.1479C22.2652 20.6261 22.5286 20.0183 22.5286 19.3952C22.5286 18.7671 22.2602 18.1644 21.7486 17.6578L18.9677 14.8668ZM20.7811 20.2006C20.776 20.2006 20.776 20.2057 20.7811 20.2006C20.5835 20.4134 20.3809 20.6059 20.1631 20.8186C19.8339 21.1327 19.4995 21.4619 19.1855 21.8317C18.6739 22.3787 18.0711 22.6371 17.2809 22.6371C17.2049 22.6371 17.1239 22.6371 17.0479 22.632C15.5435 22.5358 14.1455 21.9482 13.0969 21.4467C10.2299 20.0588 7.71245 18.0884 5.62045 15.5912C3.89316 13.5093 2.73826 11.5845 1.97339 9.51779C1.50231 8.25651 1.33009 7.27383 1.40607 6.34687C1.45672 5.75422 1.68466 5.26288 2.10509 4.84246L3.83238 3.11517C4.08058 2.88216 4.34398 2.75553 4.60231 2.75553C4.92143 2.75553 5.17977 2.94801 5.34186 3.1101C5.34692 3.11517 5.35199 3.12023 5.35705 3.1253C5.66604 3.41402 5.95983 3.71288 6.26882 4.032C6.42585 4.19409 6.58794 4.35618 6.75003 4.52334L8.13287 5.90618C8.6698 6.44311 8.6698 6.93952 8.13287 7.47645C7.98598 7.62334 7.84415 7.77024 7.69725 7.91207C7.27176 8.34769 6.86653 8.75292 6.42585 9.14802C6.41571 9.15815 6.40558 9.16321 6.40052 9.17334C5.9649 9.60896 6.04594 10.0345 6.13712 10.3232C6.14219 10.3384 6.14725 10.3536 6.15232 10.3688C6.51196 11.24 7.01849 12.0606 7.78843 13.0382L7.79349 13.0433C9.19153 14.7655 10.6656 16.1078 12.2915 17.1361C12.4992 17.2678 12.712 17.3742 12.9146 17.4755C13.0969 17.5667 13.2692 17.6528 13.416 17.7439C13.4363 17.7541 13.4566 17.7693 13.4768 17.7794C13.6491 17.8655 13.8111 17.906 13.9783 17.906C14.3987 17.906 14.6621 17.6426 14.7482 17.5565L16.4806 15.8242C16.6528 15.6519 16.9263 15.4443 17.2455 15.4443C17.5595 15.4443 17.8178 15.6418 17.9749 15.814C17.9799 15.8191 17.9799 15.8191 17.985 15.8242L20.776 18.6152C21.2978 19.1318 21.2978 19.6637 20.7811 20.2006Z" fill="#0F0E2D"/>
<path d="M12.9701 5.70926C14.2972 5.93214 15.5028 6.56024 16.4652 7.52266C17.4276 8.48508 18.0507 9.69064 18.2786 11.0178C18.3343 11.3521 18.623 11.5851 18.9523 11.5851C18.9928 11.5851 19.0283 11.58 19.0688 11.575C19.4436 11.5142 19.6918 11.1596 19.6311 10.7848C19.3575 9.17904 18.5977 7.71515 17.4378 6.55518C16.2778 5.39521 14.8139 4.63541 13.2082 4.36188C12.8333 4.30109 12.4838 4.5493 12.418 4.91907C12.3521 5.28884 12.5953 5.64848 12.9701 5.70926Z" fill="#0F0E2D"/>
<path d="M23.9723 10.5871C23.5215 7.94297 22.2754 5.53692 20.3607 3.62221C18.446 1.70751 16.04 0.461426 13.3958 0.0106084C13.0261 -0.0552414 12.6766 0.198027 12.6107 0.567798C12.5499 0.942635 12.7981 1.29215 13.173 1.358C15.5334 1.75816 17.6862 2.8776 19.3983 4.58463C21.1104 6.29673 22.2248 8.44951 22.6249 10.81C22.6807 11.1443 22.9694 11.3773 23.2986 11.3773C23.3392 11.3773 23.3746 11.3722 23.4151 11.3672C23.7849 11.3114 24.0382 10.9569 23.9723 10.5871Z" fill="#0F0E2D"/>
</g>
<defs>
<clipPath id="clip0_342_2405">
<rect width="24" height="24" fill="white"/>
</clipPath>
</defs>
</svg>
