<svg width="24" height="24" viewBox="0 0 24 24" fill="none" xmlns="http://www.w3.org/2000/svg">
<g clip-path="url(#clip0_404_2)">
<path d="M2.57143 10.2852H4.28572C4.51305 10.2852 4.73106 10.3755 4.89181 10.5362C5.05256 10.697 5.14286 10.915 5.14286 11.1423V15.428C5.14286 15.6553 5.05256 15.8734 4.89181 16.0341C4.73106 16.1949 4.51305 16.2852 4.28572 16.2852H2.57143C2.11678 16.2852 1.68074 16.1045 1.35925 15.7831C1.03776 15.4616 0.857147 15.0255 0.857147 14.5709V11.9994C0.857147 11.5448 1.03776 11.1088 1.35925 10.7873C1.68074 10.4658 2.11678 10.2852 2.57143 10.2852V10.2852Z" stroke="#0F0E2D" stroke-width="1.5" stroke-linecap="round" stroke-linejoin="round"/>
<path d="M21.4286 16.2852H19.7143C19.487 16.2852 19.2689 16.1949 19.1082 16.0341C18.9474 15.8734 18.8571 15.6553 18.8571 15.428V11.1423C18.8571 10.915 18.9474 10.697 19.1082 10.5362C19.2689 10.3755 19.487 10.2852 19.7143 10.2852H21.4286C21.8832 10.2852 22.3193 10.4658 22.6407 10.7873C22.9622 11.1088 23.1429 11.5448 23.1429 11.9994V14.5709C23.1429 15.0255 22.9622 15.4616 22.6407 15.7831C22.3193 16.1045 21.8832 16.2852 21.4286 16.2852V16.2852Z" stroke="#0F0E2D" stroke-width="1.5" stroke-linecap="round" stroke-linejoin="round"/>
<path d="M16.2857 20.9994C17.195 20.9994 18.0671 20.6382 18.7101 19.9952C19.3531 19.3523 19.7143 18.4802 19.7143 17.5709V16.2852" stroke="#0F0E2D" stroke-width="1.5" stroke-linecap="round" stroke-linejoin="round"/>
<path d="M14.1429 18.8574C14.7112 18.8574 15.2562 19.0832 15.6581 19.4851C16.06 19.8869 16.2857 20.432 16.2857 21.0003C16.2857 21.5686 16.06 22.1136 15.6581 22.5155C15.2562 22.9174 14.7112 23.1431 14.1429 23.1431H11.5714C11.0031 23.1431 10.4581 22.9174 10.0562 22.5155C9.65435 22.1136 9.42859 21.5686 9.42859 21.0003C9.42859 20.432 9.65435 19.8869 10.0562 19.4851C10.4581 19.0832 11.0031 18.8574 11.5714 18.8574H14.1429Z" stroke="#0F0E2D" stroke-width="1.5" stroke-linecap="round" stroke-linejoin="round"/>
<path d="M4.28571 10.286V8.57171C4.28571 6.52575 5.09846 4.56359 6.54517 3.11688C7.99188 1.67017 9.95404 0.857422 12 0.857422C14.0459 0.857422 16.0081 1.67017 17.4548 3.11688C18.9015 4.56359 19.7143 6.52575 19.7143 8.57171V10.286" stroke="#0F0E2D" stroke-width="1.5" stroke-linecap="round" stroke-linejoin="round"/>
<path d="M9.42859 6.85742V9.42885" stroke="#0F0E2D" stroke-width="1.5" stroke-linecap="round" stroke-linejoin="round"/>
<path d="M14.5714 6.85742V9.42885" stroke="#0F0E2D" stroke-width="1.5" stroke-linecap="round" stroke-linejoin="round"/>
<path d="M9.42859 12.8574C9.42859 15.1374 14.5714 15.1374 14.5714 12.8574" stroke="#0F0E2D" stroke-width="1.5" stroke-linecap="round" stroke-linejoin="round"/>
</g>
<defs>
<clipPath id="clip0_404_2">
<rect width="24" height="24" fill="white"/>
</clipPath>
</defs>
</svg>
