<svg width="141" height="50" viewBox="0 0 141 50" fill="none" xmlns="http://www.w3.org/2000/svg">
<path d="M72.894 35.416C71.5247 35.416 70.242 35.1733 69.046 34.688C67.8673 34.1853 66.836 33.492 65.952 32.608C65.068 31.724 64.3833 30.6927 63.898 29.514C63.4127 28.3353 63.17 27.0613 63.17 25.692C63.17 24.3227 63.4127 23.0487 63.898 21.87C64.3833 20.6913 65.068 19.66 65.952 18.776C66.836 17.892 67.8673 17.2073 69.046 16.722C70.242 16.2193 71.5247 15.968 72.894 15.968C73.8647 15.968 74.766 16.0893 75.598 16.332C76.43 16.5573 77.1927 16.8953 77.886 17.346C78.5967 17.7967 79.238 18.3513 79.81 19.01L77.574 21.194C77.1753 20.726 76.742 20.3273 76.274 19.998C75.8233 19.6687 75.312 19.4173 74.74 19.244C74.1853 19.0707 73.57 18.984 72.894 18.984C71.698 18.984 70.606 19.2613 69.618 19.816C68.63 20.3707 67.8413 21.1507 67.252 22.156C66.6627 23.144 66.368 24.3227 66.368 25.692C66.368 27.044 66.6627 28.2227 67.252 29.228C67.8413 30.2333 68.63 31.0133 69.618 31.568C70.606 32.1227 71.698 32.4 72.894 32.4C73.986 32.4 74.948 32.1747 75.78 31.724C76.6293 31.2733 77.3833 30.658 78.042 29.878L80.304 32.036C79.7147 32.7293 79.0387 33.336 78.276 33.856C77.5133 34.3587 76.6813 34.74 75.78 35C74.8787 35.2773 73.9167 35.416 72.894 35.416ZM88.947 35.416C87.5776 35.416 86.3643 35.1127 85.307 34.506C84.2496 33.882 83.4263 33.0413 82.837 31.984C82.2476 30.9093 81.953 29.7047 81.953 28.37C81.953 27.0353 82.2476 25.8393 82.837 24.782C83.4263 23.7073 84.2496 22.8667 85.307 22.26C86.3643 21.636 87.5776 21.324 88.947 21.324C90.3336 21.324 91.547 21.636 92.587 22.26C93.6443 22.884 94.4676 23.7333 95.057 24.808C95.6463 25.8653 95.941 27.0527 95.941 28.37C95.941 29.7047 95.6463 30.9093 95.057 31.984C94.4676 33.0413 93.6443 33.882 92.587 34.506C91.5296 35.1127 90.3163 35.416 88.947 35.416ZM88.947 32.53C89.6403 32.53 90.2816 32.3653 90.871 32.036C91.4603 31.7067 91.937 31.23 92.301 30.606C92.665 29.982 92.847 29.2367 92.847 28.37C92.847 27.486 92.665 26.7407 92.301 26.134C91.937 25.51 91.4603 25.0333 90.871 24.704C90.2816 24.3747 89.649 24.21 88.973 24.21C88.2796 24.21 87.6296 24.3747 87.023 24.704C86.4336 25.0333 85.957 25.51 85.593 26.134C85.229 26.758 85.047 27.5033 85.047 28.37C85.047 29.254 85.229 30.008 85.593 30.632C85.957 31.256 86.4336 31.7327 87.023 32.062C87.6296 32.374 88.271 32.53 88.947 32.53ZM102.072 35L96.5337 21.74H100.018L103.58 30.892H103.736L107.324 21.74H110.782L105.166 35H102.072ZM116.37 35.416C115.416 35.416 114.576 35.234 113.848 34.87C113.12 34.4887 112.548 33.96 112.132 33.284C111.716 32.608 111.508 31.8367 111.508 30.97C111.508 30.034 111.75 29.2367 112.236 28.578C112.721 27.902 113.371 27.3907 114.186 27.044C115 26.68 115.91 26.498 116.916 26.498C117.453 26.498 117.947 26.5327 118.398 26.602C118.866 26.6713 119.273 26.758 119.62 26.862C119.984 26.966 120.27 27.07 120.478 27.174V26.55C120.478 25.7527 120.183 25.1113 119.594 24.626C119.022 24.1233 118.259 23.872 117.306 23.872C116.647 23.872 116.023 24.0193 115.434 24.314C114.844 24.6087 114.359 25.0073 113.978 25.51L111.924 23.898C112.34 23.3607 112.825 22.9013 113.38 22.52C113.934 22.1213 114.558 21.8267 115.252 21.636C115.945 21.428 116.664 21.324 117.41 21.324C119.386 21.324 120.894 21.8007 121.934 22.754C122.991 23.69 123.52 25.0333 123.52 26.784V35H120.478V33.518H120.296C120.07 33.8473 119.767 34.1593 119.386 34.454C119.004 34.7313 118.562 34.9567 118.06 35.13C117.557 35.3207 116.994 35.416 116.37 35.416ZM117.02 32.946C117.73 32.946 118.346 32.79 118.866 32.478C119.386 32.1487 119.784 31.724 120.062 31.204C120.339 30.6667 120.478 30.1033 120.478 29.514C120.096 29.2887 119.646 29.1153 119.126 28.994C118.623 28.8727 118.094 28.812 117.54 28.812C116.465 28.812 115.711 29.02 115.278 29.436C114.844 29.852 114.628 30.3633 114.628 30.97C114.628 31.542 114.836 32.0187 115.252 32.4C115.668 32.764 116.257 32.946 117.02 32.946ZM126.607 35V21.74H129.519V23.612H129.701C129.909 23.1613 130.203 22.7713 130.585 22.442C130.966 22.1127 131.408 21.8527 131.911 21.662C132.431 21.454 132.968 21.35 133.523 21.35C133.887 21.35 134.199 21.376 134.459 21.428C134.736 21.48 134.97 21.5493 135.161 21.636V24.782C134.831 24.6433 134.493 24.5307 134.147 24.444C133.8 24.3573 133.436 24.314 133.055 24.314C132.379 24.314 131.789 24.4873 131.287 24.834C130.784 25.1633 130.394 25.6227 130.117 26.212C129.839 26.8013 129.701 27.46 129.701 28.188V35H126.607Z" fill="white"/>
<path d="M136.782 35.156C136.193 35.156 135.69 34.9567 135.274 34.558C134.875 34.142 134.676 33.6307 134.676 33.024C134.676 32.452 134.875 31.9667 135.274 31.568C135.69 31.1693 136.193 30.97 136.782 30.97C137.371 30.97 137.865 31.1693 138.264 31.568C138.68 31.9667 138.888 32.452 138.888 33.024C138.888 33.6307 138.68 34.142 138.264 34.558C137.865 34.9567 137.371 35.156 136.782 35.156Z" fill="#FFB967"/>
<circle cx="25" cy="25" r="25" fill="#FFB967"/>
<path d="M26.6662 12.3839C26.6662 12.5509 26.6493 12.714 26.6167 12.8706C26.3922 13.9549 25.4319 14.7677 24.2824 14.7677C23.4525 14.7677 22.7231 14.345 22.2965 13.7017C22.0433 13.3259 21.8985 12.8719 21.8985 12.3839C21.8985 11.0673 22.9658 10 24.2824 10C25.5989 10 26.6662 11.0673 26.6662 12.3839Z" fill="#0F0E2D"/>
<path d="M31.8685 16.6767L25.2153 21.7706C24.6869 22.1777 24.054 22.376 23.4251 22.376C22.6644 22.376 21.9063 22.0851 21.3374 21.5149L19.6373 19.8147C19.9413 19.876 20.2557 19.9087 20.5793 19.9087C21.8124 19.9087 22.9371 19.435 23.7761 18.6574L29.8343 14.0201C30.5689 13.459 31.618 13.5986 32.1803 14.3306C32.7427 15.0652 32.6031 16.1143 31.8698 16.6767H31.8685Z" fill="#0F0E2D"/>
<path d="M23.7761 18.6574C22.9358 19.435 21.8124 19.9087 20.5793 19.9087C20.257 19.9087 19.9426 19.8773 19.6373 19.8147L17.9658 18.1433C17.3121 17.4909 17.3121 16.4301 17.9658 15.7777C18.6195 15.1253 19.679 15.1253 20.3314 15.7777L23.4564 18.9027L23.7761 18.6574Z" fill="#0F0E2D"/>
<g opacity="0.57" style="mix-blend-mode:multiply">
<path d="M23.7761 18.6574C22.9358 19.435 21.8124 19.9087 20.5793 19.9087C20.257 19.9087 19.9426 19.8773 19.6373 19.8147L17.9658 18.1433C17.3121 17.4909 17.3121 16.4301 17.9658 15.7777C18.6195 15.1253 19.679 15.1253 20.3314 15.7777L23.4564 18.9027L23.7761 18.6574Z" fill="#0F0E2D"/>
</g>
<path d="M26.6662 12.3839C26.6662 12.5509 26.6493 12.714 26.6167 12.8706C26.3922 13.9549 25.4319 14.7677 24.2824 14.7677C23.4525 14.7677 22.7231 14.345 22.2965 13.7017C22.0433 13.3259 21.8985 12.8719 21.8985 12.3839C21.8985 11.0673 22.9658 10 24.2824 10C25.5989 10 26.6662 11.0673 26.6662 12.3839Z" fill="#0F0E2D"/>
<path d="M31.8685 16.6767L25.2153 21.7706C24.6869 22.1777 24.054 22.376 23.4251 22.376C22.6644 22.376 21.9063 22.0851 21.3374 21.5149L19.6373 19.8147C19.9413 19.876 20.2557 19.9087 20.5793 19.9087C21.8124 19.9087 22.9371 19.435 23.7761 18.6574L29.8343 14.0201C30.5689 13.459 31.618 13.5986 32.1803 14.3306C32.7427 15.0652 32.6031 16.1143 31.8698 16.6767H31.8685Z" fill="#0F0E2D"/>
<path d="M23.7761 18.6574C22.9358 19.435 21.8124 19.9087 20.5793 19.9087C20.257 19.9087 19.9426 19.8773 19.6373 19.8147L17.9658 18.1433C17.3121 17.4909 17.3121 16.4301 17.9658 15.7777C18.6195 15.1253 19.679 15.1253 20.3314 15.7777L23.4564 18.9027L23.7761 18.6574Z" fill="#0F0E2D"/>
<g opacity="0.57" style="mix-blend-mode:multiply">
<path d="M23.7761 18.6574C22.9358 19.435 21.8124 19.9087 20.5793 19.9087C20.257 19.9087 19.9426 19.8773 19.6373 19.8147L17.9658 18.1433C17.3121 17.4909 17.3121 16.4301 17.9658 15.7777C18.6195 15.1253 19.679 15.1253 20.3314 15.7777L23.4564 18.9027L23.7761 18.6574Z" fill="#0F0E2D"/>
</g>
<path d="M23.3338 37.6161C23.3338 37.4491 23.3507 37.286 23.3834 37.1294C23.6078 36.0451 24.5681 35.2323 25.7176 35.2323C26.5475 35.2323 27.2769 35.655 27.7036 36.2983C27.9567 36.6741 28.1015 37.1281 28.1015 37.6161C28.1015 38.9327 27.0342 40 25.7176 40C24.4011 40 23.3338 38.9327 23.3338 37.6161Z" fill="#0F0E2D"/>
<path d="M18.1315 33.322L24.7847 28.2281C25.3132 27.821 25.946 27.6227 26.5749 27.6227C27.3356 27.6227 28.0937 27.9136 28.6626 28.4838L30.3627 30.184C30.0587 30.1227 29.7443 30.09 29.4207 30.09C28.1876 30.09 27.0629 30.5637 26.2239 31.3413L20.1657 35.9786C19.4311 36.5397 18.3821 36.4001 17.8197 35.6681C17.2573 34.9335 17.3969 33.8844 18.1302 33.322H18.1315Z" fill="#0F0E2D"/>
<path d="M26.2239 31.3413C27.0642 30.5637 28.1876 30.09 29.4207 30.09C29.743 30.09 30.0574 30.1213 30.3627 30.184L32.0342 31.8554C32.6879 32.5078 32.6879 33.5686 32.0342 34.221C31.3805 34.8734 30.321 34.8734 29.6686 34.221L26.5436 31.096L26.2239 31.3413Z" fill="#0F0E2D"/>
<g opacity="0.57" style="mix-blend-mode:multiply">
<path d="M26.2239 31.3413C27.0642 30.5637 28.1876 30.09 29.4207 30.09C29.743 30.09 30.0574 30.1213 30.3627 30.184L32.0342 31.8554C32.6879 32.5078 32.6879 33.5686 32.0342 34.221C31.3805 34.8734 30.321 34.8734 29.6686 34.221L26.5436 31.096L26.2239 31.3413Z" fill="#0F0E2D"/>
</g>
<path d="M12.3839 23.3338C12.5509 23.3338 12.714 23.3507 12.8706 23.3834C13.9549 23.6078 14.7677 24.5681 14.7677 25.7176C14.7677 26.5475 14.345 27.2769 13.7017 27.7036C13.3259 27.9567 12.8719 28.1015 12.3839 28.1015C11.0673 28.1015 10 27.0342 10 25.7176C10 24.4011 11.0673 23.3338 12.3839 23.3338Z" fill="#0F0E2D"/>
<path d="M16.6767 18.1315L21.7706 24.7847C22.1777 25.3132 22.376 25.946 22.376 26.5749C22.376 27.3356 22.0851 28.0937 21.5149 28.6626L19.8147 30.3627C19.876 30.0587 19.9087 29.7443 19.9087 29.4207C19.9087 28.1876 19.435 27.0629 18.6574 26.2239L14.0201 20.1657C13.459 19.4311 13.5986 18.3821 14.3306 17.8197C15.0652 17.2573 16.1143 17.3969 16.6767 18.1302V18.1315Z" fill="#0F0E2D"/>
<path d="M18.6574 26.2239C19.435 27.0642 19.9087 28.1876 19.9087 29.4207C19.9087 29.7429 19.8773 30.0574 19.8147 30.3627L18.1433 32.0342C17.4909 32.6879 16.4301 32.6879 15.7777 32.0342C15.1253 31.3805 15.1253 30.321 15.7777 29.6686L18.9027 26.5436L18.6574 26.2239Z" fill="#0F0E2D"/>
<g opacity="0.57" style="mix-blend-mode:multiply">
<path d="M18.6574 26.2239C19.435 27.0642 19.9087 28.1876 19.9087 29.4207C19.9087 29.7429 19.8773 30.0574 19.8147 30.3627L18.1433 32.0342C17.4909 32.6879 16.4301 32.6879 15.7777 32.0342C15.1253 31.3805 15.1253 30.321 15.7777 29.6686L18.9027 26.5436L18.6574 26.2239Z" fill="#0F0E2D"/>
</g>
<path d="M16.6767 18.1315L21.7706 24.7847C22.1777 25.3132 22.376 25.946 22.376 26.5749C22.376 27.3356 22.0851 28.0937 21.5149 28.6626L19.8147 30.3627C19.876 30.0587 19.9087 29.7443 19.9087 29.4207C19.9087 28.1876 19.435 27.0629 18.6574 26.2239L14.0201 20.1657C13.459 19.4311 13.5986 18.3821 14.3306 17.8197C15.0652 17.2573 16.1143 17.3969 16.6767 18.1302V18.1315Z" fill="#0F0E2D"/>
<path d="M18.6574 26.2239C19.435 27.0642 19.9087 28.1876 19.9087 29.4207C19.9087 29.7429 19.8773 30.0574 19.8147 30.3627L18.1433 32.0342C17.4909 32.6879 16.4301 32.6879 15.7777 32.0342C15.1253 31.3805 15.1253 30.321 15.7777 29.6686L18.9027 26.5436L18.6574 26.2239Z" fill="#0F0E2D"/>
<g opacity="0.57" style="mix-blend-mode:multiply">
<path d="M18.6574 26.2239C19.435 27.0642 19.9087 28.1876 19.9087 29.4207C19.9087 29.7429 19.8773 30.0574 19.8147 30.3627L18.1433 32.0342C17.4909 32.6879 16.4301 32.6879 15.7777 32.0342C15.1253 31.3805 15.1253 30.321 15.7777 29.6686L18.9027 26.5436L18.6574 26.2239Z" fill="#0F0E2D"/>
</g>
<path d="M37.6161 26.6662C37.4491 26.6662 37.286 26.6493 37.1294 26.6167C36.0451 26.3922 35.2322 25.4319 35.2322 24.2824C35.2322 23.4525 35.655 22.7231 36.2983 22.2965C36.674 22.0433 37.1281 21.8985 37.6161 21.8985C38.9327 21.8985 40 22.9658 40 24.2824C40 25.5989 38.9327 26.6662 37.6161 26.6662Z" fill="#0F0E2D"/>
<path d="M33.3233 31.8685L28.2294 25.2153C27.8223 24.6869 27.624 24.054 27.624 23.4251C27.624 22.6644 27.9149 21.9063 28.4851 21.3374L30.1853 19.6373C30.124 19.9413 30.0913 20.2557 30.0913 20.5793C30.0913 21.8124 30.565 22.9371 31.3426 23.7761L35.9799 29.8343C36.541 30.5689 36.4014 31.618 35.6694 32.1803C34.9348 32.7427 33.8857 32.6031 33.3233 31.8698V31.8685Z" fill="#0F0E2D"/>
<path d="M31.3413 23.7761C30.5637 22.9358 30.09 21.8124 30.09 20.5793C30.09 20.257 30.1213 19.9426 30.184 19.6373L31.8554 17.9658C32.5078 17.3121 33.5686 17.3121 34.221 17.9658C34.8734 18.6195 34.8734 19.679 34.221 20.3314L31.096 23.4564L31.3413 23.7761Z" fill="#0F0E2D"/>
<g opacity="0.57" style="mix-blend-mode:multiply">
<path d="M31.3413 23.7761C30.5637 22.9358 30.09 21.8124 30.09 20.5793C30.09 20.257 30.1213 19.9426 30.184 19.6373L31.8554 17.9658C32.5078 17.3121 33.5686 17.3121 34.221 17.9658C34.8734 18.6195 34.8734 19.679 34.221 20.3314L31.096 23.4564L31.3413 23.7761Z" fill="#0F0E2D"/>
</g>
<g opacity="0.48" style="mix-blend-mode:overlay">
<path d="M22.2965 13.7017C22.0433 13.3259 21.8985 12.8719 21.8985 12.3839C21.8985 11.0673 22.9658 10 24.2824 10C25.5989 10 26.6662 11.0673 26.6662 12.3839C26.6662 12.5509 26.6493 12.714 26.6166 12.8706C26.3922 13.9549 25.4319 14.7677 24.2824 14.7677C23.4525 14.7677 22.7231 14.345 22.2965 13.7017ZM19.6373 19.816L21.3374 21.5162C21.9063 22.0864 22.6644 22.3773 23.4251 22.3773C24.054 22.3773 24.6868 22.1777 25.2153 21.7719L31.8685 16.678C32.6031 16.1156 32.7414 15.0665 32.179 14.3319C31.6166 13.5986 30.5676 13.4603 29.833 14.0214L23.7748 18.6587L23.4551 18.904L20.3301 15.779C19.6777 15.1266 18.6182 15.1266 17.9645 15.779C17.3108 16.4314 17.3108 17.4922 17.9645 18.1446L19.636 19.816H19.6373ZM25.7176 35.2323C24.5681 35.2323 23.6078 36.0451 23.3834 37.1294C23.3494 37.2873 23.3338 37.4491 23.3338 37.6161C23.3338 38.9327 24.4011 40 25.7176 40C27.0342 40 28.1015 38.9327 28.1015 37.6161C28.1015 37.1281 27.9554 36.6741 27.7035 36.2983C27.2769 35.6563 26.5475 35.2323 25.7176 35.2323ZM30.3627 30.184L28.6626 28.4838C28.0937 27.9136 27.3356 27.6227 26.5749 27.6227C25.946 27.6227 25.3132 27.8223 24.7847 28.2281L18.1315 33.322C17.3969 33.8844 17.2586 34.9335 17.821 35.6681C18.3834 36.4014 19.4324 36.5397 20.167 35.9786L26.2252 31.3413L26.5449 31.096L29.6699 34.221C30.3223 34.8734 31.3818 34.8734 32.0355 34.221C32.6892 33.5686 32.6892 32.5078 32.0355 31.8554L30.364 30.184H30.3627ZM12.8706 23.3834C12.7127 23.3494 12.5509 23.3338 12.3839 23.3338C11.0673 23.3338 10 24.4011 10 25.7176C10 27.0342 11.0673 28.1015 12.3839 28.1015C12.8719 28.1015 13.3259 27.9554 13.7017 27.7035C14.3437 27.2769 14.7677 26.5475 14.7677 25.7176C14.7677 24.5681 13.9549 23.6078 12.8706 23.3834ZM19.816 30.3627L21.5162 28.6626C22.0864 28.0937 22.3773 27.3356 22.3773 26.5749C22.3773 25.946 22.1777 25.3132 21.7719 24.7847L16.678 18.1315C16.1156 17.3969 15.0665 17.2586 14.3319 17.821C13.5986 18.3834 13.4603 19.4324 14.0214 20.167L18.6587 26.2252L18.904 26.5449L15.779 29.6699C15.1266 30.3223 15.1266 31.3818 15.779 32.0355C16.4314 32.6892 17.4922 32.6892 18.1446 32.0355L19.816 30.364V30.3627ZM37.6161 21.8985C37.1281 21.8985 36.6741 22.0446 36.2983 22.2965C35.6563 22.7231 35.2323 23.4525 35.2323 24.2824C35.2323 25.4319 36.0451 26.3922 37.1294 26.6166C37.2873 26.6506 37.4491 26.6662 37.6161 26.6662C38.9327 26.6662 40 25.5989 40 24.2824C40 22.9658 38.9327 21.8985 37.6161 21.8985ZM31.3413 23.7761L31.096 23.4564L34.221 20.3314C34.8734 19.679 34.8734 18.6195 34.221 17.9658C33.5686 17.3121 32.5078 17.3121 31.8554 17.9658L30.184 19.6373L28.4838 21.3374C27.9136 21.9063 27.6227 22.6644 27.6227 23.4251C27.6227 24.054 27.8223 24.6868 28.2281 25.2153L33.322 31.8685C33.8844 32.6031 34.9335 32.7414 35.6681 32.179C36.4014 31.6166 36.5397 30.5676 35.9786 29.833L31.3413 23.7748V23.7761Z" fill="#0F0E2D"/>
</g>
</svg>
