<svg width="40" height="40" viewBox="0 0 40 40" fill="none" xmlns="http://www.w3.org/2000/svg">
<path fill-rule="evenodd" clip-rule="evenodd" d="M28.7568 16.1531C29.7699 14.7338 31.6848 13.2058 34.2918 11.9338C34.9693 11.6032 34.6637 10.5786 33.9158 10.6732C28.4383 11.3661 24.888 13.765 22.9493 17.3326C22.2282 18.6594 21.7752 20.0717 21.5339 21.5134C21.3748 22.464 21.3328 23.1774 21.3328 24.0013C21.3328 27.6832 24.3176 30.668 27.9995 30.668C31.6814 30.668 34.6662 27.6832 34.6662 24.0013C34.6662 20.3194 31.6338 17.3326 28.1491 17.3326C28.3329 16.8278 28.3771 16.6852 28.7568 16.1531ZM14.0901 16.1531C15.1033 14.7338 17.0182 13.2058 19.6252 11.9338C20.3026 11.6032 19.997 10.5786 19.2492 10.6732C13.7716 11.3661 10.2213 13.765 8.2826 17.3326C7.56153 18.6594 7.10849 20.0717 6.86724 21.5134C6.70816 22.464 6.66615 23.1774 6.66615 24.0013C6.66615 27.6832 9.65092 30.668 13.3328 30.668C17.0147 30.668 19.9995 27.6832 19.9995 24.0013C19.9995 20.3194 16.9671 17.3326 13.4824 17.3326C13.6662 16.8278 13.7104 16.6852 14.0901 16.1531Z" fill="#0F0E2D"/>
</svg>
