<svg width="100" height="100" viewBox="0 0 100 100" fill="none" xmlns="http://www.w3.org/2000/svg">
<g opacity="0.06" clip-path="url(#clip0_888_760)">
<path d="M65.6919 53.8428H79.1536C80.7563 53.8428 82.1188 54.4036 83.2407 55.5255C84.362 56.6474 84.9233 58.0095 84.9233 59.6126V61.5348C84.9233 65.7818 83.4207 69.4073 80.4155 72.4125C77.4105 75.4166 73.7844 76.9193 69.5378 76.9193H65.6919C64.6504 76.9193 63.7493 77.3001 62.9878 78.061C62.2266 78.8224 61.8461 79.7235 61.8461 80.7652V88.4582C61.8461 89.4997 62.2268 90.4016 62.9878 91.163C63.7491 91.9233 64.6502 92.3047 65.6919 92.3047H69.5378C73.7049 92.3047 77.6804 91.4926 81.4669 89.8708C85.253 88.2479 88.5278 86.0542 91.2926 83.2894C94.0571 80.5259 96.2502 77.2508 97.8729 73.4643C99.4956 69.6782 100.307 65.7016 100.307 61.535V19.2283C100.307 16.0215 99.1857 13.2986 96.9421 11.0541C94.6983 8.81094 91.9733 7.68943 88.7684 7.68943H65.6905C62.4857 7.68943 59.7616 8.81094 57.5176 11.0541C55.2744 13.2986 54.1525 16.0215 54.1525 19.2283V42.3042C54.1525 45.5104 55.2744 48.2333 57.519 50.4779C59.762 52.7209 62.4872 53.8428 65.6919 53.8428Z" fill="#0F0E2D"/>
<path d="M3.36343 50.4779C5.60642 52.7209 8.33079 53.8428 11.5363 53.8428H24.9978C26.5996 53.8428 27.9634 54.4036 29.0834 55.5255C30.2057 56.6474 30.7661 58.0095 30.7661 59.6126V61.5348C30.7661 65.7818 29.2634 69.4073 26.2597 72.4125C23.2558 75.4166 19.6299 76.9193 15.3811 76.9193H11.5361C10.4944 76.9193 9.59268 77.3001 8.83175 78.061C8.07125 78.8224 7.68921 79.7235 7.68921 80.7652V88.4582C7.68921 89.4997 8.07104 90.4016 8.83175 91.163C9.59247 91.9233 10.4942 92.3047 11.5361 92.3047H15.3811C19.5505 92.3047 23.5252 91.4926 27.3128 89.8708C31.0982 88.2479 34.372 86.0542 37.1368 83.2894C39.9015 80.5259 42.0957 77.2508 43.7177 73.4643C45.34 69.6782 46.1525 65.7016 46.1525 61.535V19.2283C46.1525 16.0215 45.0301 13.2986 42.7872 11.0541C40.544 8.81094 37.8196 7.68943 34.6143 7.68943H11.5376C8.33205 7.68943 5.60789 8.81094 3.36491 11.0541C1.12024 13.2986 0.000226635 16.0215 0.000226635 19.2283V42.3042C1.61448e-05 45.5106 1.12024 48.2333 3.36343 50.4779Z" fill="#0F0E2D"/>
</g>
<defs>
<clipPath id="clip0_888_760">
<rect width="100" height="100" fill="white" transform="matrix(-1 0 0 -1 100 100)"/>
</clipPath>
</defs>
</svg>
