<svg width="100" height="100" viewBox="0 0 100 100" fill="none" xmlns="http://www.w3.org/2000/svg">
<path d="M52.8686 8.89024L51.7958 0L53.6201 0.255164L54.1169 5.23185L54.1332 6.14965L54.2305 6.16326L54.5547 5.29309L56.7822 0.697449L58.3998 0.923694L59.2006 5.94291L59.269 6.84358L59.3663 6.85719L59.6384 6.00415L61.5132 1.35917L63.3375 1.61434L59.8495 9.86667L58.0861 9.62001L57.3493 4.24354L57.2878 3.29501L57.1905 3.2814L56.8628 4.1755L54.5591 9.12669L52.8686 8.89024Z" fill="white"/>
<path d="M64.37 11.6072C63.957 11.4518 63.6205 11.2346 63.3607 10.9557C63.1115 10.6721 62.9521 10.349 62.8827 9.98645C62.8132 9.62388 62.8531 9.25071 63.0023 8.86692C63.1574 8.46808 63.3938 8.16455 63.7115 7.95631C64.0368 7.75095 64.4061 7.63546 64.8194 7.60985C65.2404 7.58711 65.6689 7.65778 66.1048 7.82185C66.342 7.91109 66.5503 8.00674 66.7298 8.1088C66.9199 8.20622 67.0841 8.30252 67.2225 8.39772C67.3608 8.49292 67.4709 8.5818 67.5528 8.66437L67.6494 8.41604C67.7693 8.10751 67.7488 7.8108 67.5878 7.52591C67.4296 7.23349 67.144 7.00956 66.731 6.85412C66.4556 6.7505 66.1631 6.71371 65.8533 6.74377C65.554 6.76918 65.2808 6.85182 65.0335 6.99167L64.3594 5.88398C64.6442 5.71513 64.9451 5.59543 65.2618 5.52487C65.5815 5.44678 65.9105 5.42392 66.2486 5.45628C66.5897 5.48112 66.9285 5.55687 67.2651 5.68352C68.16 6.02031 68.7618 6.47968 69.0703 7.06163C69.3789 7.64358 69.3811 8.32587 69.0768 9.10849L67.6987 12.6529L66.2186 12.0959L66.4468 11.5089L66.3551 11.4744C66.1953 11.5695 66.0117 11.6471 65.8043 11.707C65.5997 11.7595 65.3772 11.7792 65.1367 11.7664C64.8933 11.761 64.6377 11.708 64.37 11.6072ZM65.1734 10.5897C65.4793 10.7049 65.7604 10.7373 66.0167 10.6871C66.2835 10.6323 66.5114 10.5196 66.7005 10.3492C66.8971 10.1817 67.0408 9.98129 67.1315 9.748C66.9954 9.6019 66.8291 9.46597 66.6324 9.34022C66.4387 9.20695 66.231 9.09857 66.0092 9.01509C65.5655 8.84814 65.2274 8.81577 64.9947 8.918C64.7621 9.02023 64.599 9.19174 64.5053 9.43255C64.4175 9.65831 64.4247 9.87666 64.5268 10.0876C64.6366 10.3014 64.8521 10.4688 65.1734 10.5897Z" fill="white"/>
<path d="M70.821 8.87056L71.4825 7.68369L72.495 8.22987L71.8335 9.41673L70.821 8.87056ZM71.2022 14.672C70.6349 14.366 70.2783 13.9669 70.1323 13.4747C69.9903 12.9754 70.0768 12.4432 70.3917 11.878L73.2916 6.67484L74.7026 7.43601L71.9445 12.3848C71.7989 12.6462 71.7444 12.8695 71.7813 13.0548C71.8221 13.233 71.9645 13.388 72.2087 13.5197C72.3236 13.5817 72.4392 13.6256 72.5554 13.6516C72.6757 13.6705 72.8368 13.6747 73.0387 13.6642L72.2828 15.0206C72.0933 14.9919 71.9081 14.9472 71.7272 14.8863C71.5495 14.8364 71.3745 14.765 71.2022 14.672ZM73.1368 10.1198L73.7983 8.93293L75.1986 9.68828L74.5371 10.8751L73.1368 10.1198Z" fill="white"/>
<path d="M75.1355 17.4098C74.6233 17.0342 74.2501 16.5898 74.016 16.0764C73.7933 15.5614 73.7163 15.0227 73.785 14.4601C73.8652 13.8959 74.0986 13.3586 74.4852 12.8482C74.8718 12.3379 75.326 11.9675 75.8478 11.7371C76.3761 11.5116 76.9229 11.4302 77.4882 11.493C78.06 11.5606 78.6021 11.7821 79.1142 12.1577C79.6724 12.5669 80.0636 13.0347 80.288 13.5609C80.5124 14.0872 80.5468 14.635 80.3913 15.2043L78.8423 14.8221C78.9085 14.519 78.8856 14.2459 78.7735 14.0029C78.6662 13.7535 78.4813 13.5325 78.2186 13.3399C77.9626 13.1521 77.6862 13.045 77.3897 13.0185C77.098 12.9855 76.8124 13.0323 76.5327 13.1588C76.253 13.2853 76.0006 13.4971 75.7755 13.7943C75.5503 14.0915 75.4137 14.3932 75.3655 14.6995C75.3222 14.9994 75.3558 15.2853 75.4664 15.5573C75.5819 15.8228 75.7676 16.0495 76.0237 16.2373C76.3127 16.4491 76.5988 16.5635 76.8822 16.5803C77.1705 16.5908 77.457 16.5295 77.7416 16.3965L78.5122 17.7454C78.002 18.0144 77.4512 18.128 76.8598 18.0863C76.2684 18.0445 75.6936 17.819 75.1355 17.4098Z" fill="white"/>
<path d="M78.5229 19.8449L84.9135 13.8994L86.0192 15.0497L84.4037 16.5527L83.5418 17.2215L83.6093 17.2917C83.9414 17.2268 84.2882 17.2534 84.6498 17.3716C85.023 17.4902 85.3503 17.6958 85.6316 17.9885C85.9861 18.3573 86.207 18.7395 86.2942 19.1352C86.3874 19.5253 86.3533 19.9119 86.1918 20.295C86.0359 20.684 85.7675 21.0556 85.3867 21.4099L82.5574 24.0422L81.4517 22.8919L84.1382 20.3925C84.3405 20.2043 84.4706 20.0112 84.5283 19.8133C84.5977 19.6157 84.6061 19.4193 84.5538 19.2241C84.507 19.0348 84.402 18.8552 84.2388 18.6854C84.0419 18.4805 83.808 18.3544 83.537 18.3071C83.2721 18.2542 82.9992 18.2752 82.7184 18.3701C82.4377 18.4649 82.1783 18.6231 81.9403 18.8445L79.6286 20.9952L78.5229 19.8449Z" fill="white"/>
<path d="M86.5289 29.9848L92.7802 23.1729L93.6349 24.7241L89.836 28.7847L89.0055 29.585L89.0523 29.67L90.199 29.4434L95.7659 28.5915L96.6206 30.1427L87.3602 31.4935L86.5289 29.9848Z" fill="white"/>
<path d="M88.9139 34.9136L94.7681 32.7186L95.3412 34.198L89.487 36.393L88.9139 34.9136ZM95.6997 33.2229C95.5976 32.9594 95.6058 32.6977 95.7242 32.4377C95.8426 32.1778 96.0357 31.9976 96.3035 31.8972C96.5714 31.7967 96.8336 31.8062 97.0902 31.9256C97.3544 32.0421 97.5375 32.2321 97.6396 32.4956C97.7417 32.7591 97.7321 33.017 97.6107 33.2694C97.5 33.5265 97.3107 33.7053 97.0429 33.8057C96.775 33.9061 96.509 33.8981 96.2448 33.7816C95.9834 33.6727 95.8018 33.4864 95.6997 33.2229Z" fill="white"/>
<path d="M90.4462 40.2685C90.3129 39.72 90.3284 39.1945 90.4925 38.6919C90.6647 38.1875 90.9623 37.7489 91.3853 37.376C91.8102 37.011 92.3413 36.7535 92.9785 36.6036C93.6157 36.4538 94.2077 36.4471 94.7545 36.5835C95.3032 36.7278 95.7663 36.9876 96.1437 37.3627C96.5291 37.7359 96.7885 38.1968 96.9218 38.7453C96.9923 39.0353 97.0122 39.3081 96.9818 39.5638C96.9513 39.8195 96.8853 40.0504 96.7838 40.2565C96.6823 40.4626 96.5634 40.6314 96.4269 40.7629L96.4498 40.857L97.2872 40.5606L99.6289 40.0098L100 41.5378L91.4458 43.55L91.0973 42.116L91.8261 41.9445L91.8033 41.8505C91.6211 41.7939 91.4374 41.6963 91.2521 41.5577C91.0748 41.4171 90.9138 41.2396 90.7691 41.0251C90.6243 40.8107 90.5167 40.5584 90.4462 40.2685ZM91.9547 40.1871C92.0252 40.477 92.1656 40.7256 92.376 40.9329C92.5883 41.1481 92.8439 41.2992 93.1429 41.3863C93.4518 41.4793 93.7855 41.4837 94.1439 41.3993C94.5023 41.315 94.7939 41.1636 95.0187 40.9451C95.2533 40.7325 95.4118 40.4839 95.4943 40.1995C95.5866 39.9209 95.5975 39.6367 95.527 39.3468C95.4585 39.0647 95.3181 38.8161 95.1058 38.6009C94.9034 38.3917 94.6517 38.2397 94.3508 38.1448C94.0518 38.0577 93.7191 38.0573 93.3527 38.1434C92.9942 38.2278 92.6977 38.3762 92.4631 38.5888C92.2304 38.8092 92.0679 39.0587 91.9756 39.3372C91.8931 39.6217 91.8862 39.905 91.9547 40.1871Z" fill="white"/>
<path d="M91.6059 48.1416C91.5731 47.5221 91.6868 46.9596 91.9471 46.4541C92.2078 45.9567 92.5801 45.5544 93.0641 45.2472C93.5485 44.9481 94.1097 44.7822 94.7476 44.7495C95.3446 44.7189 95.9039 44.8275 96.4255 45.075C96.947 45.3226 97.3716 45.676 97.6993 46.1353C98.0352 46.5941 98.2194 47.1292 98.2517 47.7407C98.2867 48.4005 98.1729 48.963 97.9105 49.4282C97.6481 49.8935 97.2818 50.2551 96.8116 50.5132C96.3496 50.7708 95.8283 50.9145 95.2476 50.9442C95.1168 50.9509 95.0021 50.9528 94.9035 50.9498C94.8131 50.9463 94.7473 50.9416 94.706 50.9357L94.4262 45.6494L95.5671 45.591L95.7683 49.3928C95.9069 49.3776 96.0479 49.33 96.1913 49.2501C96.3346 49.1701 96.4643 49.0626 96.5801 48.9276C96.696 48.7926 96.7858 48.6307 96.8496 48.4418C96.9221 48.2606 96.9521 48.0534 96.9397 47.82C96.9236 47.5143 96.8269 47.2368 96.6497 46.9878C96.4729 46.7467 96.2335 46.5613 95.9314 46.4316C95.6375 46.3014 95.2902 46.2466 94.8894 46.2671C94.4723 46.2885 94.1206 46.3831 93.8343 46.5511C93.5561 46.7186 93.3462 46.9351 93.2044 47.2005C93.0712 47.4736 93.0132 47.771 93.0302 48.0929C93.0502 48.471 93.1488 48.7847 93.326 49.0338C93.5114 49.2824 93.7347 49.4727 93.9959 49.6046L93.4256 50.9166C92.8951 50.6533 92.4661 50.2961 92.1389 49.8449C91.8197 49.3933 91.6421 48.8255 91.6059 48.1416Z" fill="white"/>
<path d="M91.2918 55.5207C91.3765 54.8816 91.5938 54.3326 91.9438 53.8737C92.3007 53.4239 92.7454 53.091 93.2779 52.8749C93.8174 52.6679 94.3998 52.6045 95.025 52.6848C95.6503 52.765 96.1927 52.9727 96.652 53.3079C97.1184 53.6522 97.4614 54.0862 97.681 54.61C97.9077 55.1429 97.9786 55.7289 97.8939 56.368C97.8092 57.0072 97.5883 57.5517 97.2313 58.0015C96.8744 58.4513 96.4302 58.7802 95.8988 58.9883C95.3664 59.2044 94.7875 59.2723 94.1622 59.192C93.5369 59.1118 92.9911 58.8995 92.5247 58.5553C92.0653 58.2201 91.7218 57.79 91.4941 57.2652C91.2745 56.7414 91.207 56.1599 91.2918 55.5207ZM92.7779 55.7114C92.7376 56.015 92.7701 56.2995 92.8753 56.5649C92.9876 56.8393 93.1676 57.0696 93.4155 57.2558C93.6704 57.451 93.9887 57.5731 94.3704 57.6221C94.7521 57.6711 95.0875 57.6329 95.3766 57.5075C95.6648 57.3901 95.8988 57.213 96.0789 56.9761C96.2579 56.7471 96.367 56.4849 96.4062 56.1893C96.4465 55.8857 96.411 55.5927 96.2998 55.3103C96.1875 55.0359 96.008 54.8016 95.7612 54.6074C95.5133 54.4212 95.1986 54.3036 94.8169 54.2546C94.4352 54.2057 94.0963 54.2394 93.8 54.3557C93.5109 54.4811 93.2762 54.6623 93.0962 54.8991C92.9232 55.1451 92.8171 55.4158 92.7779 55.7114Z" fill="white"/>
<path d="M93.3424 65.6443L94.3077 65.025L95.1147 66.2617L95.2311 66.2669L96.1379 65.2242L97.0222 65.9594L96.1356 66.9838L96.1304 67.0984L97.4378 67.5921L97.024 68.6527L95.7166 68.159L95.647 68.2362L95.6047 69.5925L94.4476 69.5568L94.4828 68.185L94.3928 68.1121L92.9519 68.5001L92.6557 67.4044L94.1283 67.0025L94.1635 66.9123L93.3424 65.6443Z" fill="white"/>
<path d="M85.1755 72.6304L93.5876 76.0449L92.4714 77.4873L87.813 75.4868L86.9906 75.0532L86.9311 75.1301L87.5451 75.833L90.5368 79.9875L89.5471 81.2664L84.7027 79.5063L83.8701 79.1258L83.8106 79.2027L84.4348 79.8525L87.6422 83.7281L86.5261 85.1705L80.9044 78.15L81.9833 76.7557L87.1136 78.745L87.9852 79.1549L88.0447 79.0779L87.4112 78.3604L84.1412 73.9671L85.1755 72.6304Z" fill="white"/>
<path d="M77.1565 81.1941C77.4952 80.9144 77.8515 80.7305 78.2255 80.6425C78.5985 80.5659 78.963 80.5857 79.3189 80.7021C79.6748 80.8184 79.987 81.0339 80.2555 81.3486C80.5346 81.6757 80.6895 82.0264 80.7203 82.4008C80.7447 82.7803 80.668 83.154 80.49 83.5219C80.3058 83.895 80.0349 84.2291 79.6774 84.5244C79.483 84.685 79.2968 84.8177 79.1189 84.9225C78.9401 85.0387 78.7747 85.1332 78.623 85.2059C78.4712 85.2787 78.3387 85.3302 78.2256 85.3605L78.3994 85.5642C78.6153 85.8172 78.8889 85.9436 79.2202 85.9434C79.5568 85.9495 79.8945 85.8126 80.2332 85.5329C80.459 85.3464 80.6338 85.1126 80.7575 84.8316C80.8803 84.5619 80.9395 84.2868 80.9354 84.0062L82.247 83.9644C82.2586 84.2913 82.2189 84.6082 82.1278 84.9149C82.0419 85.2278 81.9025 85.5218 81.7095 85.7969C81.5218 86.0781 81.2899 86.3327 81.014 86.5607C80.2801 87.1668 79.5797 87.4612 78.9128 87.444C78.2458 87.4267 77.6385 87.0972 77.0909 86.4555L74.6108 83.549L75.8245 82.5466L76.2352 83.028L76.3105 82.9658C76.3035 82.7822 76.3238 82.5866 76.3713 82.3791C76.424 82.1778 76.5145 81.9768 76.6427 81.7762C76.7657 81.5695 76.9369 81.3754 77.1565 81.1941ZM77.6704 82.3791C77.4195 82.5863 77.2542 82.8123 77.1743 83.0571C77.0935 83.3132 77.0829 83.564 77.1425 83.8093C77.1958 84.0597 77.3041 84.2806 77.4674 84.4719C77.6633 84.4258 77.8648 84.3488 78.0721 84.2408C78.2845 84.1389 78.4817 84.0129 78.6636 83.8626C79.0274 83.5622 79.2204 83.2871 79.2425 83.0374C79.2647 82.7876 79.1915 82.564 79.023 82.3666C78.8651 82.1815 78.6676 82.0816 78.4305 82.0669C78.1872 82.0575 77.9339 82.1616 77.6704 82.3791Z" fill="white"/>
<path d="M76.464 88.0672L77.1987 89.2117L76.2224 89.8183L75.4877 88.6739L76.464 88.0672ZM71.1212 85.5836C71.6682 85.2438 72.1959 85.1303 72.7042 85.2432C73.217 85.363 73.6483 85.6953 73.9981 86.2403L77.2189 91.2575L75.8583 92.1029L72.795 87.331C72.6332 87.0789 72.461 86.9238 72.2784 86.8658C72.1002 86.8145 71.8934 86.862 71.6579 87.0083C71.5472 87.0771 71.452 87.1553 71.3726 87.2427C71.2975 87.337 71.2157 87.4736 71.1271 87.6525L70.2875 86.3446C70.4049 86.1955 70.5344 86.0578 70.6762 85.9316C70.8067 85.8029 70.955 85.6869 71.1212 85.5836ZM74.2309 89.4547L74.9656 90.5992L73.6154 91.4381L72.8807 90.2937L74.2309 89.4547Z" fill="white"/>
<path d="M66.7718 87.6451C67.3541 87.3867 67.9302 87.2814 68.5001 87.329C69.0659 87.3874 69.5821 87.5826 70.0487 87.9146C70.5113 88.2574 70.8756 88.7189 71.1416 89.2991C71.4075 89.8793 71.5163 90.4497 71.4679 91.0104C71.412 91.5743 71.219 92.0842 70.8889 92.54C70.5513 92.9991 70.0914 93.3579 69.5091 93.6162C68.8745 93.8978 68.269 94.0074 67.6924 93.945C67.1158 93.8827 66.6122 93.6465 66.1817 93.2365L67.273 92.0894C67.5102 92.2935 67.7641 92.4063 68.0344 92.4277C68.3082 92.4565 68.5943 92.4047 68.893 92.2722C69.1841 92.143 69.4134 91.9573 69.5809 91.7151C69.7517 91.4802 69.8487 91.2117 69.872 90.9097C69.8953 90.6077 69.8295 90.2878 69.6746 89.95C69.5197 89.6121 69.3179 89.3482 69.069 89.1581C68.8235 88.9753 68.5531 88.8655 68.2577 88.8286C67.9657 88.7991 67.6741 88.849 67.3829 88.9781C67.0545 89.1239 66.814 89.3146 66.6614 89.5502C66.5123 89.7931 66.4277 90.0693 66.4078 90.3786L64.835 90.387C64.8435 89.8176 65.0098 89.2887 65.3339 88.8002C65.658 88.3117 66.1373 87.9266 66.7718 87.6451Z" fill="white"/>
<path d="M62.9649 89.3754L65.1306 97.7622L63.5709 98.152L63.0234 96.0319L62.8495 94.9656L62.7542 94.9894C62.6502 95.3064 62.4576 95.5914 62.1765 95.8445C61.8895 96.1075 61.5476 96.2885 61.1507 96.3877C60.6507 96.5127 60.2038 96.5163 59.8101 96.3986C59.4183 96.2887 59.0918 96.071 58.8303 95.7457C58.5609 95.4223 58.3617 95.0107 58.2326 94.511L57.2738 90.7978L58.8335 90.408L59.7439 93.9337C59.8125 94.1992 59.9205 94.405 60.0681 94.551C60.2097 94.7068 60.3799 94.8097 60.5788 94.8598C60.7696 94.9118 60.9802 94.9091 61.2104 94.8516C61.4882 94.7821 61.7141 94.6425 61.888 94.4328C62.064 94.2309 62.1783 93.9862 62.2308 93.6987C62.2833 93.4113 62.2693 93.1114 62.1886 92.799L61.4052 89.7652L62.9649 89.3754Z" fill="white"/>
<path d="M50.0241 91.309L53.0209 100L51.2276 99.9778L49.4766 94.7347L49.1713 93.6311L49.073 93.6298L48.715 94.7253L46.7565 99.9223L44.9631 99.9001L48.2799 91.2873L50.0241 91.309Z" fill="white"/>
<path d="M44.4669 90.9556L43.5669 97.0553L41.9744 96.8279L42.8743 90.7282L44.4669 90.9556ZM42.6657 97.6105C42.9494 97.651 43.1778 97.7854 43.351 98.0136C43.5242 98.2419 43.5902 98.4956 43.5491 98.7746C43.5079 99.0537 43.3719 99.2745 43.141 99.4369C42.909 99.6073 42.6511 99.6722 42.3675 99.6317C42.0838 99.5912 41.8595 99.4574 41.6944 99.2303C41.52 99.01 41.4534 98.7603 41.4945 98.4812C41.5357 98.2022 41.6723 97.9774 41.9044 97.807C42.1283 97.6355 42.3821 97.57 42.6657 97.6105Z" fill="white"/>
<path d="M38.9751 89.6698C39.5272 89.8219 39.9864 90.0907 40.353 90.4762C40.7173 90.8694 40.9622 91.3385 41.0877 91.8835C41.2053 92.4263 41.1758 93.008 40.9991 93.6287C40.8224 94.2494 40.5405 94.7616 40.1535 95.1653C39.7585 95.5669 39.3027 95.8387 38.786 95.9808C38.267 96.1307 37.7316 96.1296 37.1795 95.9775C36.8878 95.8971 36.6357 95.7816 36.4234 95.6311C36.2111 95.4805 36.0381 95.3115 35.9044 95.1241C35.7707 94.9366 35.6786 94.7523 35.6281 94.571L35.5335 94.545L35.3896 95.409L34.7402 97.6899L33.2025 97.2662L35.5745 88.9337L37.0176 89.3313L36.8156 90.0412L36.9102 90.0673C37.049 89.9382 37.225 89.8277 37.4383 89.7359C37.6493 89.6518 37.8853 89.5996 38.1461 89.5795C38.407 89.5593 38.6834 89.5894 38.9751 89.6698ZM38.314 91.0063C38.0222 90.9259 37.7331 90.9257 37.4467 91.0058C37.1524 91.0837 36.8939 91.23 36.6712 91.4447C36.4383 91.665 36.2722 91.9498 36.1729 92.2989C36.0735 92.648 36.0662 92.9723 36.151 93.2718C36.2258 93.5769 36.3694 93.834 36.582 94.0432C36.7845 94.258 37.0317 94.4056 37.3235 94.486C37.6074 94.5642 37.8965 94.5643 38.1908 94.4865C38.475 94.4142 38.7324 94.2717 38.963 94.0592C39.1858 93.8444 39.3479 93.5586 39.4495 93.2017C39.5489 92.8526 39.5612 92.5255 39.4865 92.2204C39.4038 91.9132 39.2613 91.6522 39.0588 91.4374C38.8462 91.2282 38.5979 91.0845 38.314 91.0063Z" fill="white"/>
<path d="M31.4122 86.8328C31.9781 87.1066 32.4219 87.4785 32.7436 87.9485C33.058 88.4149 33.2336 88.9308 33.2703 89.4963C33.2997 90.0582 33.1734 90.6211 32.8914 91.185C32.6276 91.7128 32.2586 92.1404 31.7847 92.4677C31.3107 92.795 30.7901 92.9875 30.2228 93.0452C29.6519 93.1102 29.0872 93.0075 28.5287 92.7372C27.9261 92.4456 27.4823 92.0737 27.1973 91.6215C26.9122 91.1694 26.7698 90.6784 26.77 90.1488C26.7665 89.6263 26.8931 89.1084 27.1497 88.5951C27.2076 88.4794 27.2618 88.38 27.3126 88.2968C27.3597 88.2208 27.3959 88.1665 27.4214 88.134L32.2494 90.4703L31.7452 91.4789L28.2729 89.7986C28.2188 89.9251 28.1923 90.0694 28.1934 90.2315C28.1945 90.3936 28.2267 90.5574 28.2901 90.7227C28.3534 90.8881 28.4533 91.0442 28.5898 91.191C28.7153 91.3416 28.8847 91.4684 29.0978 91.5715C29.377 91.7066 29.6704 91.7588 29.9778 91.728C30.2779 91.6937 30.5592 91.5783 30.8216 91.3821C31.0804 91.1931 31.2983 90.9214 31.4754 90.5672C31.6598 90.1984 31.7472 89.8502 31.7377 89.5223C31.7246 89.2017 31.6348 88.9158 31.4683 88.6647C31.2909 88.4172 31.0552 88.2223 30.7612 88.0801C30.4158 87.913 30.0894 87.8448 29.782 87.8756C29.4709 87.9136 29.1932 88.0127 28.9489 88.1728L28.0624 87.0435C28.5547 86.716 29.0808 86.5217 29.6407 86.4604C30.1971 86.4064 30.7876 86.5305 31.4122 86.8328Z" fill="white"/>
<path d="M25.0798 82.9996C25.6056 83.3841 25.9868 83.8384 26.2233 84.3628C26.4484 84.8887 26.527 85.433 26.4591 85.9957C26.3797 86.56 26.1519 87.0912 25.7757 87.5891C25.3996 88.087 24.9508 88.4515 24.4293 88.6826C23.8964 88.9153 23.344 88.9982 22.772 88.9314C22.1886 88.8662 21.634 88.6414 21.1082 88.2569C20.5824 87.8724 20.2069 87.4172 19.9818 86.8912C19.7567 86.3653 19.6814 85.8234 19.7559 85.2655C19.8239 84.7028 20.0459 84.1725 20.4221 83.6746C20.7982 83.1767 21.2528 82.8113 21.7857 82.5786C22.3072 82.3476 22.8563 82.2622 23.4331 82.3226C24.005 82.3894 24.5539 82.6151 25.0798 82.9996ZM24.1858 84.183C23.936 84.0003 23.6677 83.8895 23.3809 83.8504C23.0827 83.813 22.7905 83.8554 22.5044 83.9775C22.2068 84.1012 21.9433 84.3151 21.7137 84.619C21.4841 84.9229 21.3544 85.2296 21.3246 85.5392C21.2883 85.8439 21.3314 86.1313 21.4538 86.4015C21.5696 86.6669 21.7491 86.8885 21.9923 87.0663C22.2421 87.2489 22.5194 87.3614 22.8242 87.4036C23.1225 87.441 23.418 87.401 23.7106 87.2837C23.9967 87.1617 24.2546 86.9486 24.4842 86.6447C24.7138 86.3408 24.8492 86.0332 24.8904 85.7221C24.9201 85.4125 24.8738 85.1227 24.7514 84.8525C24.6175 84.584 24.429 84.3608 24.1858 84.183Z" fill="white"/>
<path d="M15.0894 79.8299L15.1709 80.9608L13.6801 81.0542L13.619 81.1518L14.1051 82.4381L13.0225 82.8415L12.5427 81.5816L12.4435 81.5214L11.3699 82.4061L10.6285 81.5352L11.702 80.6505L11.6672 80.5531L10.4827 79.8582L11.0763 78.8803L12.2781 79.5768L12.3866 79.5347L12.7416 78.1072L13.859 78.3845L13.5009 79.8461L13.564 79.9203L15.0894 79.8299Z" fill="white"/>
<path d="M12.838 69.4112L5.72063 74.9897L4.98051 73.3296L9.01935 70.2935L9.80387 69.7966L9.7644 69.7081L8.84172 69.8951L3.69763 70.452L3.04139 68.98L6.95688 65.6672L7.69917 65.1358L7.65969 65.0472L6.77925 65.2688L1.77825 66.1467L1.03812 64.4865L10.0058 63.0583L10.7212 64.6632L6.46328 68.1105L5.676 68.6613L5.71547 68.7499L6.66065 68.5532L12.1521 67.8728L12.838 69.4112Z" fill="white"/>
<path d="M9.12863 58.3466C9.21158 58.774 9.20086 59.1697 9.09645 59.5339C8.98247 59.8916 8.78705 60.1949 8.5102 60.4438C8.23334 60.6926 7.88979 60.8556 7.47954 60.9327C7.05321 61.0128 6.66646 60.9747 6.31931 60.8185C5.97062 60.6543 5.67647 60.4061 5.43688 60.0738C5.19575 59.7336 5.03141 59.3379 4.94384 58.8868C4.89622 58.6415 4.8693 58.4169 4.86307 58.213C4.84726 58.0027 4.8441 57.8146 4.8536 57.6488C4.8631 57.4829 4.88199 57.344 4.91028 57.2321L4.64483 57.282C4.31502 57.3439 4.06935 57.5172 3.90783 57.8019C3.73826 58.088 3.69495 58.4447 3.77791 58.8721C3.83321 59.157 3.95535 59.4211 4.14434 59.6645C4.32374 59.9015 4.53893 60.0866 4.78992 60.2199L4.18711 61.3667C3.8913 61.2172 3.62955 61.0285 3.40189 60.8006C3.16618 60.5742 2.97336 60.3111 2.82342 60.0111C2.66545 59.7127 2.55266 59.3894 2.48507 59.0412C2.30533 58.1152 2.3858 57.3701 2.72647 56.8057C3.06715 56.2414 3.65578 55.8806 4.49237 55.7234L8.28114 55.0116L8.5784 56.5429L7.95096 56.6608L7.96939 56.7558C8.1357 56.8394 8.29933 56.9522 8.46029 57.0942C8.61322 57.2377 8.74738 57.4135 8.86279 57.6214C8.98625 57.8279 9.07486 58.0696 9.12863 58.3466ZM7.82644 58.2099C7.765 57.8933 7.64516 57.641 7.46693 57.4531C7.27912 57.2587 7.06185 57.1272 6.81511 57.0588C6.56683 56.9824 6.318 56.9676 6.06864 57.0145C6.01395 57.2052 5.98398 57.4159 5.97873 57.6465C5.96543 57.8787 5.98106 58.1096 6.02561 58.3391C6.11471 58.7981 6.26464 59.098 6.47541 59.2389C6.68618 59.3797 6.92027 59.426 7.17768 59.3776C7.419 59.3323 7.60398 59.2114 7.7326 59.015C7.85968 58.8106 7.89097 58.5423 7.82644 58.2099Z" fill="white"/>
<path d="M3.37132 54.4196L1.99748 54.4926L1.93523 53.3582L3.30906 53.2852L3.37132 54.4196ZM8.1806 51.0416C8.21548 51.6772 8.05885 52.1857 7.71073 52.5673C7.35443 52.9493 6.84918 53.1577 6.19497 53.1925L0.172183 53.5124L0.0854262 51.9315L5.81382 51.6272C6.11639 51.6111 6.33796 51.5389 6.47854 51.4104C6.61093 51.2823 6.66963 51.0815 6.65461 50.808C6.64755 50.6792 6.62457 50.5594 6.58568 50.4485C6.53861 50.3381 6.45729 50.2012 6.34171 50.0379L7.9118 49.9545C7.98694 50.128 8.04593 50.3064 8.0888 50.4897C8.1394 50.6645 8.17 50.8485 8.1806 51.0416ZM3.22893 51.825L1.85509 51.898L1.769 50.3292L3.14283 50.2562L3.22893 51.825Z" fill="white"/>
<path d="M8.47133 46.2329C8.41703 46.8591 8.22994 47.4054 7.91004 47.8718C7.58268 48.3295 7.15794 48.6779 6.63583 48.9171C6.10625 49.1476 5.51915 49.2358 4.87452 49.1817C4.22989 49.1276 3.67054 48.9432 3.19645 48.6285C2.72306 48.3057 2.36445 47.8915 2.12063 47.3859C1.87749 46.8722 1.78307 46.3023 1.83737 45.6761C1.89653 44.9938 2.09422 44.4201 2.43044 43.955C2.76666 43.49 3.2216 43.1724 3.79526 43.0022L4.28195 44.4986C3.98522 44.603 3.76148 44.7662 3.61074 44.988C3.45184 45.2092 3.35846 45.4804 3.33062 45.8015C3.30347 46.1145 3.35663 46.402 3.49009 46.6639C3.61539 46.9251 3.80641 47.1392 4.06315 47.3063C4.3199 47.4734 4.63595 47.5727 5.0113 47.6042C5.38665 47.6357 5.71931 47.5909 6.00928 47.4697C6.29108 47.3478 6.52029 47.1689 6.69691 46.933C6.86536 46.6965 6.96317 46.4217 6.99031 46.1086C7.02094 45.7554 6.96883 45.4559 6.83398 45.21C6.69097 44.9635 6.48701 44.7564 6.2221 44.5886L6.98073 43.2331C7.48208 43.5178 7.87064 43.9183 8.14642 44.4347C8.42219 44.9512 8.53049 45.5505 8.47133 46.2329Z" fill="white"/>
<path d="M8.78599 42.1279L0.283859 39.9116L0.696021 38.3812L2.8453 38.9415L3.87696 39.3104L3.90213 39.217C3.67121 38.9734 3.51166 38.6693 3.4235 38.3046C3.32952 37.93 3.33497 37.548 3.43985 37.1586C3.57199 36.6679 3.78607 36.282 4.08209 36.0007C4.37019 35.7174 4.7223 35.5425 5.13841 35.4759C5.55662 35.4016 6.01905 35.4304 6.5257 35.5625L10.2899 36.5437L9.87775 38.0741L6.30353 37.1424C6.03437 37.0723 5.79908 37.0651 5.59765 37.121C5.39041 37.167 5.21622 37.2632 5.07507 37.4098C4.93603 37.5486 4.83609 37.7309 4.77527 37.9568C4.70185 38.2294 4.71599 38.4915 4.81769 38.743C4.91146 38.9925 5.07324 39.2097 5.30302 39.3946C5.53279 39.5795 5.80601 39.7133 6.12266 39.7958L9.19815 40.5975L8.78599 42.1279Z" fill="white"/>
<path d="M13.351 30.0935L4.17717 28.4292L5.07145 26.8997L10.578 27.9526L11.7062 28.2286L11.7552 28.1448L10.9578 27.3031L7.30103 23.0865L8.19531 21.557L14.2207 28.6059L13.351 30.0935Z" fill="white"/>
<path d="M16.3603 25.5164L11.3866 21.7685L12.3652 20.5117L17.3388 24.2596L16.3603 25.5164ZM11.3335 20.7238C11.1592 20.9477 10.9286 21.0783 10.6415 21.1157C10.3545 21.1532 10.0972 21.0861 9.86965 20.9147C9.6421 20.7432 9.51255 20.5187 9.48101 20.2412C9.44297 19.9588 9.51109 19.7057 9.68538 19.4818C9.85968 19.258 10.0878 19.1305 10.3699 19.0995C10.6504 19.0572 10.9045 19.1217 11.132 19.2932C11.3596 19.4647 11.4924 19.6916 11.5304 19.974C11.5734 20.25 11.5078 20.4999 11.3335 20.7238Z" fill="white"/>
<path d="M20.1797 21.4233C19.776 21.8237 19.3138 22.0876 18.7932 22.2151C18.2667 22.3368 17.731 22.3191 17.186 22.1617C16.6468 21.9987 16.1446 21.6902 15.6794 21.2363C15.2142 20.7824 14.8966 20.2909 14.7264 19.7618C14.5621 19.2269 14.5425 18.7028 14.6677 18.1896C14.7872 17.6707 15.0488 17.211 15.4524 16.8105C15.6658 16.5989 15.891 16.4385 16.128 16.3293C16.3649 16.2201 16.5992 16.1536 16.8307 16.1299C17.0623 16.1061 17.2708 16.1167 17.4563 16.1615L17.5255 16.0929L16.8283 15.5488L15.1188 13.8807L16.2434 12.7652L22.4882 18.8587L21.4329 19.9056L20.9008 19.3864L20.8316 19.4551C20.8787 19.6372 20.8912 19.8423 20.869 20.0702C20.8409 20.2925 20.7724 20.5207 20.6633 20.7547C20.5543 20.9888 20.3931 21.2116 20.1797 21.4233ZM19.3147 20.2047C19.528 19.993 19.6689 19.7447 19.7372 19.4595C19.8113 19.1687 19.8071 18.8753 19.7248 18.5794C19.6425 18.272 19.4705 17.9907 19.2088 17.7354C18.9472 17.4801 18.6627 17.316 18.3555 17.2432C18.0482 17.159 17.75 17.1573 17.4608 17.2383C17.1715 17.3078 16.9202 17.4484 16.7068 17.6601C16.4992 17.866 16.3584 18.1144 16.2843 18.4052C16.2102 18.6847 16.2114 18.9753 16.2879 19.2769C16.3703 19.5728 16.5451 19.8513 16.8126 20.1123C17.0743 20.3676 17.3587 20.5373 17.666 20.6216C17.979 20.7001 18.2802 20.7045 18.5694 20.635C18.8586 20.5541 19.1071 20.4106 19.3147 20.2047Z" fill="white"/>
<path d="M26.3785 16.2936C25.8607 16.6476 25.3149 16.8491 24.7411 16.8981C24.174 16.9424 23.6303 16.8432 23.1098 16.6006C22.596 16.3534 22.1569 15.9717 21.7923 15.4557C21.4511 14.9727 21.25 14.448 21.1889 13.8814C21.1277 13.3149 21.2091 12.7736 21.4329 12.2575C21.6521 11.7348 22.0172 11.2987 22.5283 10.9493C23.0797 10.5722 23.6255 10.3707 24.1657 10.3448C24.7059 10.3188 25.2113 10.4344 25.6821 10.6914C26.1482 10.9417 26.5472 11.3018 26.879 11.7715C26.9538 11.8774 27.0159 11.9723 27.0652 12.0563C27.1099 12.1337 27.1406 12.1912 27.1572 12.2289L22.739 15.2499L22.087 14.327L25.2645 12.1543C25.1783 12.0464 25.0629 11.9537 24.9183 11.876C24.7736 11.7983 24.6124 11.7466 24.4347 11.7209C24.257 11.6952 24.0698 11.7055 23.8731 11.7517C23.6784 11.7867 23.4835 11.8709 23.2885 12.0042C23.033 12.179 22.8443 12.4061 22.7226 12.6855C22.6076 12.9604 22.5737 13.2583 22.6209 13.5792C22.6635 13.8936 22.7993 14.2128 23.0283 14.537C23.2666 14.8744 23.5338 15.1185 23.8299 15.2693C24.1212 15.4135 24.4189 15.4749 24.7229 15.4535C25.0289 15.4208 25.3165 15.3125 25.5855 15.1286C25.9015 14.9125 26.1204 14.6647 26.2421 14.3852C26.3592 14.0992 26.4058 13.8122 26.3819 13.5243L27.8157 13.3093C27.8681 13.8916 27.7857 14.4385 27.5686 14.95C27.3468 15.4549 26.9501 15.9027 26.3785 16.2936Z" fill="white"/>
<path d="M32.8593 12.7018C32.2624 12.9676 31.6736 13.075 31.0928 13.0241C30.5161 12.9625 29.9942 12.766 29.5271 12.4345C29.0641 12.0924 28.7025 11.6388 28.4425 11.0736C28.1825 10.5084 28.0763 9.94545 28.124 9.38475C28.1757 8.81338 28.37 8.29791 28.707 7.83835C29.048 7.36812 29.5169 7.00011 30.1138 6.73432C30.7106 6.46853 31.2974 6.36643 31.8741 6.42801C32.4508 6.48959 32.9689 6.68777 33.4286 7.02255C33.8957 7.35401 34.2593 7.80234 34.5193 8.36752C34.7794 8.93271 34.8835 9.50099 34.8317 10.0724C34.7841 10.6331 34.5935 11.1469 34.2599 11.6138C33.923 12.0733 33.4561 12.436 32.8593 12.7018ZM32.2413 11.3586C32.5248 11.2323 32.7535 11.0553 32.9273 10.8275C33.1053 10.5891 33.2094 10.3172 33.2398 10.0119C33.2742 9.69585 33.212 9.36535 33.0533 9.02037C32.8946 8.67538 32.6849 8.415 32.4242 8.23923C32.171 8.06013 31.8947 7.95768 31.5951 7.93187C31.303 7.90275 31.019 7.94964 30.7429 8.07257C30.4594 8.19882 30.225 8.38283 30.0395 8.62458C29.8616 8.86302 29.7537 9.13657 29.7159 9.44524C29.6856 9.75059 29.7498 10.0758 29.9085 10.4207C30.0673 10.7657 30.2749 11.0314 30.5315 11.2179C30.7921 11.3936 31.0722 11.4944 31.3718 11.5202C31.6754 11.5354 31.9652 11.4815 32.2413 11.3586Z" fill="white"/>
<path d="M40.5492 5.65224L39.5059 5.17047L40.1504 3.84461L40.0936 3.74451L38.7152 3.53445L38.8854 2.40785L40.2374 2.61054L40.3392 2.55464L40.078 1.20106L41.2125 0.989225L41.4736 2.3428L41.5771 2.36039L42.7716 1.68219L43.3496 2.66907L42.1453 3.3614L42.1297 3.47502L43.2231 4.47636L42.4319 5.30068L41.3097 4.28009L41.2132 4.29812L40.5492 5.65224Z" fill="white"/>
</svg>
