<svg width="120" height="120" viewBox="0 0 120 120" fill="none" xmlns="http://www.w3.org/2000/svg">
<circle cx="60" cy="60" r="60" fill="#FFB967"/>
<circle cx="59.6916" cy="59.6923" r="27.6923" fill="#123017"/>
<g clip-path="url(#clip0_523_253)">
<path d="M54.876 66.0374C54.8803 66.2847 54.9522 66.526 55.084 66.7353C55.2159 66.9445 55.4025 67.1136 55.6237 67.2242C55.8446 67.349 56.094 67.4146 56.3477 67.4146C56.6014 67.4146 56.8507 67.349 57.0716 67.2242L67.3375 60.8748C67.5609 60.7672 67.7494 60.5987 67.8813 60.3888C68.0132 60.1788 68.0831 59.9359 68.0831 59.688C68.0831 59.44 68.0132 59.1971 67.8813 58.9872C67.7494 58.7772 67.5609 58.6088 67.3375 58.5012L57.0716 52.1992C56.8507 52.0744 56.6014 52.0088 56.3477 52.0088C56.094 52.0088 55.8446 52.0744 55.6237 52.1992C55.4025 52.3098 55.2159 52.4789 55.084 52.6881C54.9522 52.8974 54.8803 53.1387 54.876 53.386V66.0374Z" fill="white"/>
</g>
<path d="M63.2737 19.5623L62.3094 9.23047L64.4014 9.58016L64.8218 15.3607L64.8126 16.4246L64.9241 16.4432L65.3238 15.4447L68.0274 10.1863L69.8822 10.4963L70.6513 16.3352L70.7025 17.3807L70.8141 17.3994L71.1533 16.4191L73.4524 11.0932L75.5443 11.4428L71.2788 20.9004L69.2566 20.5624L68.5721 14.3115L68.5303 13.2107L68.4187 13.1921L68.0143 14.2183L65.2122 19.8863L63.2737 19.5623Z" fill="#0F0E2D"/>
<path d="M76.4012 23.2441C75.9391 23.0323 75.5699 22.7552 75.2936 22.4125C75.0299 22.0653 74.8725 21.6794 74.8215 21.2548C74.7706 20.8302 74.846 20.4018 75.0479 19.9696C75.2578 19.5204 75.5534 19.1877 75.9349 18.9716C76.325 18.7593 76.7584 18.6544 77.2352 18.6568C77.7206 18.6631 78.2071 18.778 78.6949 19.0015C78.9602 19.123 79.1919 19.2498 79.39 19.3817C79.6006 19.509 79.7816 19.6331 79.9329 19.7539C80.0843 19.8747 80.2037 19.986 80.2912 20.0878L80.4218 19.8082C80.5842 19.4607 80.5841 19.116 80.4218 18.7741C80.2634 18.4238 79.9532 18.1427 79.4911 17.931C79.183 17.7899 78.8498 17.7247 78.4916 17.7354C78.1458 17.7416 77.8254 17.816 77.5302 17.9586L76.844 16.6255C77.1846 16.4524 77.5396 16.3373 77.9091 16.2802C78.2826 16.2147 78.6623 16.2137 79.0481 16.2773C79.4379 16.3325 79.8211 16.4463 80.1976 16.6188C81.1988 17.0776 81.8535 17.6553 82.1618 18.3521C82.47 19.0489 82.4182 19.838 82.0064 20.7194L80.1417 24.711L78.4858 23.9523L78.7946 23.2913L78.6919 23.2442C78.5009 23.3419 78.2838 23.4173 78.0407 23.4706C77.8016 23.5153 77.5445 23.521 77.2692 23.4875C76.99 23.4624 76.7007 23.3813 76.4012 23.2441ZM77.4048 22.1298C77.7471 22.2866 78.0675 22.3459 78.3658 22.3077C78.6767 22.2649 78.9475 22.1524 79.1781 21.97C79.4173 21.7915 79.5983 21.5709 79.7211 21.3082C79.5763 21.1287 79.3961 20.9586 79.1802 20.798C78.9683 20.6289 78.7383 20.4875 78.4901 20.3738C77.9938 20.1464 77.6079 20.0828 77.3326 20.183C77.0572 20.2831 76.8562 20.4688 76.7295 20.74C76.6107 20.9943 76.6016 21.2473 76.7021 21.4991C76.8112 21.7549 77.0454 21.9651 77.4048 22.1298Z" fill="#0F0E2D"/>
<path d="M84.1628 20.6956L85.05 19.396L86.1514 20.1334L85.2642 21.433L84.1628 20.6956ZM83.9695 27.4306C83.3524 27.0174 82.9869 26.5191 82.8731 25.9357C82.7645 25.3445 82.9215 24.7394 83.344 24.1206L87.2335 18.4233L88.7684 19.451L85.069 24.8698C84.8736 25.156 84.7869 25.408 84.8091 25.6257C84.8364 25.8356 84.9829 26.0295 85.2485 26.2074C85.3735 26.291 85.5012 26.354 85.6317 26.3963C85.7675 26.4308 85.9517 26.4527 86.1844 26.462L85.1704 27.9473C84.9563 27.8941 84.7489 27.8228 84.5481 27.7335C84.3498 27.6571 84.157 27.5561 83.9695 27.4306ZM86.6819 22.3823L87.5691 21.0827L89.0923 22.1026L88.2051 23.4021L86.6819 22.3823Z" fill="#0F0E2D"/>
<path d="M88.1503 31.1003C87.6169 30.599 87.2519 30.0371 87.0554 29.4147C86.8722 28.7919 86.8589 28.1615 87.0154 27.5234C87.1853 26.8849 87.5267 26.2981 88.0394 25.763C88.5522 25.228 89.1228 24.8631 89.7513 24.6685C90.3866 24.4803 91.023 24.4605 91.6605 24.6092C92.3049 24.7642 92.8938 25.0924 93.4273 25.5938C94.0086 26.1402 94.3911 26.7313 94.5746 27.3673C94.7581 28.0032 94.7215 28.6382 94.4648 29.2724L92.7469 28.6233C92.8647 28.2834 92.8763 27.9661 92.7818 27.6713C92.6938 27.3697 92.513 27.0904 92.2395 26.8333C91.9727 26.5826 91.6717 26.422 91.3364 26.3514C91.0075 26.274 90.6744 26.2893 90.3371 26.3971C89.9998 26.5049 89.6819 26.7146 89.3833 27.0261C89.0848 27.3377 88.8867 27.6665 88.7891 28.0124C88.698 28.3517 88.6968 28.6852 88.7855 29.0132C88.8807 29.3344 89.0617 29.6203 89.3284 29.871C89.6293 30.1538 89.9406 30.3241 90.2623 30.3818C90.5904 30.4328 90.9264 30.401 91.2702 30.2864L91.9642 31.9428C91.3436 32.1834 90.6982 32.2398 90.0278 32.1118C89.3575 31.9839 88.7317 31.6467 88.1503 31.1003Z" fill="#0F0E2D"/>
<path d="M91.6927 34.414L100.015 28.6997L101.07 30.2076L98.9666 31.6521L97.8677 32.2703L97.9322 32.3624C98.3216 32.345 98.7117 32.4351 99.1024 32.6327C99.5063 32.8326 99.8425 33.1244 100.111 33.5081C100.45 33.9915 100.634 34.4674 100.663 34.9357C100.7 35.3987 100.593 35.8358 100.342 36.247C100.096 36.6659 99.7252 37.0456 99.2293 37.3861L95.5448 39.916L94.4891 38.4082L97.9876 36.0059C98.251 35.825 98.4331 35.6261 98.5337 35.4093C98.6475 35.1949 98.6917 34.9713 98.6665 34.7387C98.6467 34.5137 98.5588 34.2899 98.403 34.0674C98.215 33.7988 97.971 33.6141 97.6709 33.5133C97.3786 33.4072 97.0644 33.3844 96.7281 33.4449C96.3918 33.5054 96.0687 33.642 95.7587 33.8548L92.7484 35.9219L91.6927 34.414Z" fill="#0F0E2D"/>
<path d="M99.1902 49.751C98.9979 49.0286 98.9465 48.3226 99.036 47.6329C99.137 46.9499 99.3587 46.3175 99.7011 45.7356C100.055 45.1604 100.508 44.6654 101.061 44.2508C101.614 43.8361 102.246 43.536 102.957 43.3503C103.668 43.1647 104.367 43.1173 105.055 43.2083C105.742 43.2993 106.378 43.5098 106.963 43.8399C107.56 44.1767 108.068 44.6187 108.486 45.1661C108.917 45.7201 109.228 46.3582 109.42 47.0806C109.612 47.8029 109.658 48.5056 109.557 49.1886C109.465 49.8693 109.243 50.5017 108.892 51.086C108.549 51.6679 108.102 52.1661 107.549 52.5808C106.996 52.9954 106.365 53.2956 105.653 53.4812C104.942 53.6669 104.243 53.7142 103.556 53.6232C102.868 53.5322 102.226 53.3184 101.63 52.9817C101.042 52.6425 100.534 52.2005 100.107 51.6555C99.6879 51.1082 99.3824 50.4733 99.1902 49.751ZM100.941 49.294C101.102 49.899 101.388 50.4084 101.801 50.8222C102.213 51.236 102.709 51.5219 103.287 51.6799C103.875 51.8356 104.501 51.8265 105.167 51.6528C105.841 51.4767 106.391 51.1787 106.816 50.7589C107.24 50.339 107.529 49.8484 107.682 49.2871C107.835 48.7257 107.83 48.1425 107.669 47.5376C107.511 46.9416 107.225 46.4368 106.813 46.0229C106.401 45.6091 105.905 45.3232 105.327 45.1652C104.748 45.0071 104.122 45.0162 103.447 45.1923C102.782 45.366 102.232 45.664 101.798 46.0862C101.374 46.5061 101.085 46.9967 100.932 47.5581C100.779 48.1194 100.782 48.6981 100.941 49.294Z" fill="#0F0E2D"/>
<path d="M100.519 59.4333C100.519 58.5555 100.792 57.8971 101.338 57.458C101.885 57.0189 102.63 56.7991 103.573 56.7987L107.957 56.7969L107.958 58.6317L103.8 58.6335C103.31 58.6337 102.923 58.7506 102.64 58.9841C102.367 59.227 102.23 59.5352 102.231 59.9088C102.231 60.2729 102.32 60.581 102.5 60.8331C102.688 61.0851 102.938 61.2764 103.249 61.407C103.561 61.547 103.905 61.6169 104.282 61.6167L107.959 61.6151L107.96 63.45L100.747 63.4531L100.746 61.7302L101.651 61.7299L101.651 61.6178C101.425 61.4778 101.227 61.2958 101.057 61.0718C100.887 60.8478 100.755 60.5957 100.661 60.3156C100.566 60.0449 100.519 59.7507 100.519 59.4333Z" fill="#0F0E2D"/>
<path d="M100.444 65.2437L107.548 66.4769L107.248 68.1739L106.301 68.0094L106.281 68.1198C106.483 68.2781 106.65 68.4683 106.783 68.6904C106.924 68.9234 107.022 69.1821 107.077 69.4666C107.132 69.751 107.132 70.045 107.079 70.3486C107.046 70.5325 107.003 70.6956 106.949 70.838C106.895 70.9803 106.835 71.1026 106.769 71.2049L104.944 70.8881C105.053 70.7079 105.147 70.5252 105.228 70.3401C105.316 70.1659 105.379 69.9729 105.416 69.7614C105.48 69.4027 105.442 69.0739 105.304 68.7749C105.173 68.4867 104.962 68.2463 104.67 68.0535C104.388 67.8623 104.052 67.7329 103.662 67.6652L100.124 67.051L100.444 65.2437Z" fill="#0F0E2D"/>
<path d="M96.6245 77.1897C96.8663 76.6728 97.1926 76.2308 97.6034 75.8635C98.0102 75.5048 98.4854 75.2442 99.0289 75.0819C99.577 74.9321 100.173 74.9019 100.817 74.9915L100.704 76.8999C100.195 76.8105 99.7169 76.8435 99.2702 76.9987C98.8235 77.1539 98.4871 77.473 98.2612 77.956C98.1503 78.1932 98.0837 78.4354 98.0616 78.6826C98.0481 78.9336 98.0929 79.16 98.196 79.3617C98.2951 79.5718 98.4645 79.7318 98.7041 79.8417C98.9351 79.9477 99.1576 79.9829 99.3717 79.9473C99.5943 79.9157 99.8398 79.8019 100.108 79.606C100.381 79.4224 100.702 79.1477 101.07 78.7817L101.537 78.3167C101.746 78.1141 101.979 77.9172 102.235 77.7258C102.495 77.5468 102.777 77.3985 103.082 77.2809C103.391 77.1757 103.712 77.1223 104.045 77.1208C104.378 77.1193 104.72 77.199 105.071 77.36C105.55 77.5798 105.925 77.9008 106.195 78.3232C106.473 78.7494 106.625 79.2358 106.65 79.7824C106.675 80.3289 106.551 80.8945 106.277 81.4792C105.992 82.0892 105.649 82.5443 105.249 82.8444C104.857 83.1484 104.46 83.3418 104.058 83.4248C103.651 83.5162 103.285 83.5437 102.959 83.5074L103.025 81.7006C103.22 81.7283 103.422 81.7181 103.632 81.6701C103.841 81.6222 104.037 81.5266 104.218 81.3833C104.399 81.2401 104.551 81.0372 104.674 80.7745C104.789 80.5288 104.849 80.2889 104.855 80.0548C104.869 79.8246 104.829 79.621 104.735 79.4442C104.65 79.2712 104.513 79.1416 104.325 79.0552C104.051 78.9296 103.762 78.9361 103.459 79.0746C103.151 79.2215 102.79 79.5142 102.378 79.9525L101.918 80.4361C101.656 80.707 101.38 80.9512 101.092 81.1687C100.808 81.3985 100.501 81.5767 100.171 81.7035C99.8418 81.8302 99.4934 81.8864 99.1259 81.8722C98.7545 81.8665 98.3549 81.7655 97.9271 81.5692C97.4566 81.3534 97.0895 81.0718 96.8259 80.7244C96.5624 80.3771 96.3907 79.9999 96.3109 79.5928C96.2312 79.1858 96.2229 78.7703 96.286 78.3465C96.3452 77.9311 96.4581 77.5455 96.6245 77.1897Z" fill="#0F0E2D"/>
<path d="M99.5484 84.0881L100.858 84.9707L100.11 86.0592L98.8005 85.1766L99.5484 84.0881ZM92.7483 83.8761C93.1673 83.2663 93.6716 82.9059 94.2611 82.7949C94.8584 82.6892 95.4689 82.8465 96.0925 83.2668L101.834 87.136L100.791 88.653L95.3307 84.9728C95.0423 84.7784 94.7881 84.6918 94.5682 84.7131C94.3561 84.7396 94.1599 84.884 93.9796 85.1465C93.8947 85.27 93.8307 85.3963 93.7876 85.5254C93.7523 85.6598 93.7296 85.8421 93.7196 86.0725L92.2229 85.0638C92.2773 84.852 92.3498 84.6468 92.4407 84.4482C92.5184 84.2521 92.6209 84.0614 92.7483 83.8761ZM97.8376 86.5777L99.1472 87.4603L98.1127 88.9656L96.8032 88.083L97.8376 86.5777Z" fill="#0F0E2D"/>
<path d="M88.9759 88.0576C89.5022 87.5224 90.0874 87.1614 90.7317 86.9747C91.3762 86.8011 92.0195 86.796 92.6618 86.9592C93.3043 87.1357 93.8856 87.4747 94.4058 87.9763C94.9259 88.478 95.2802 89.0412 95.4686 89.666C95.6572 90.3041 95.6691 90.9411 95.5042 91.5772C95.3396 92.2265 94.9941 92.8188 94.4678 93.354C93.9416 93.8891 93.3562 94.2435 92.7118 94.4171C92.0673 94.5906 91.4272 94.5924 90.7915 94.4225C90.1492 94.2593 89.568 93.9268 89.0478 93.4252C88.5277 92.9236 88.1733 92.3537 87.9847 91.7157C87.7963 91.0908 87.7812 90.4571 87.9392 89.8145C88.1041 89.1784 88.4496 88.5928 88.9759 88.0576ZM90.2121 89.2498C89.9621 89.504 89.7926 89.7902 89.7035 90.1083C89.6146 90.4396 89.6191 90.7763 89.717 91.1184C89.8151 91.4737 90.023 91.8045 90.3404 92.1106C90.6579 92.4168 90.9939 92.6105 91.3484 92.6917C91.6963 92.7796 92.0363 92.7751 92.3684 92.6783C92.6939 92.5882 92.9784 92.4193 93.2218 92.1718C93.4718 91.9176 93.6445 91.6215 93.74 91.2835C93.8289 90.9521 93.8277 90.6121 93.7363 90.2633C93.6384 89.9212 93.4307 89.5971 93.1132 89.2909C92.7957 88.9847 92.4596 88.7844 92.1049 88.69C91.7504 88.6088 91.4072 88.6167 91.0751 88.7135C90.7431 88.8235 90.4555 89.0023 90.2121 89.2498Z" fill="#0F0E2D"/>
<path d="M85.0514 91.8945L89.2181 97.7255L87.7981 98.7207L87.2425 97.9432L87.1502 98.0079C87.1808 98.261 87.1644 98.5127 87.1008 98.7632C87.0349 99.0267 86.9204 99.2786 86.7571 99.5189C86.5938 99.7591 86.3852 99.9683 86.1312 100.146C85.9772 100.254 85.8305 100.34 85.691 100.403C85.5515 100.467 85.422 100.512 85.3024 100.538L84.2321 99.0405C84.4373 98.9882 84.6344 98.9245 84.8232 98.8494C85.0099 98.7872 85.1917 98.6941 85.3687 98.57C85.6689 98.3597 85.8761 98.1001 85.9904 97.7912C86.1024 97.4953 86.1235 97.1774 86.0538 96.8373C85.9895 96.5049 85.843 96.1786 85.6142 95.8584L83.539 92.9544L85.0514 91.8945Z" fill="#0F0E2D"/>
<path d="M76.3968 93.9963C76.3937 93.9252 76.3947 93.8626 76.3998 93.8084C76.3923 93.7498 76.3868 93.6954 76.3834 93.6452L78.1809 92.79C78.1796 92.8735 78.1853 93.0469 78.1979 93.3102C78.198 93.5692 78.2008 93.7906 78.2063 93.9744C78.2043 94.0997 78.2081 94.2585 78.2177 94.4507C78.2273 94.643 78.2369 94.8353 78.2465 95.0275C78.2435 95.2154 78.2411 95.3616 78.2395 95.466L78.3051 98.0919L78.3529 99.0637L78.6754 103.836L76.8141 104.722L76.4554 95.4756C76.4427 95.2123 76.4359 94.9825 76.4348 94.7862C76.4252 94.5939 76.4171 94.4372 76.4106 94.316C76.4001 94.1863 76.3954 94.0798 76.3968 93.9963ZM78.074 96.3216L83.9787 101.313L82.0792 102.217L78.4549 99.0152L78.2637 99.1061L78.074 96.3216Z" fill="#0F0E2D"/>
<path d="M69.1438 104.343L70.3414 104.909L69.5897 106.441L69.6544 106.557L71.2398 106.81L71.0356 108.115L69.4805 107.87L69.3629 107.934L69.6537 109.505L68.346 109.742L68.0552 108.172L67.9363 108.151L66.5561 108.928L65.8978 107.78L67.2894 106.987L67.3082 106.855L66.0566 105.687L66.9736 104.737L68.2581 105.928L68.3694 105.908L69.1438 104.343Z" fill="#0F0E2D"/>
<path d="M57.1293 100.449L58.2238 110.769L56.1276 110.445L55.6344 104.67L55.6302 103.606L55.5184 103.589L55.1313 104.592L52.4943 109.883L50.6357 109.596L49.7931 103.767L49.7286 102.723L49.6168 102.705L49.29 103.69L47.0582 109.044L44.962 108.72L49.108 99.2104L51.1343 99.5234L51.8975 105.765L51.9533 106.865L52.0651 106.883L52.4565 105.852L55.1869 100.149L57.1293 100.449Z" fill="#0F0E2D"/>
<path d="M43.9637 96.9335C44.4285 97.1393 44.8012 97.4119 45.0819 97.751C45.3501 98.0949 45.5124 98.4787 45.5688 98.9027C45.6252 99.3266 45.5552 99.7559 45.3589 100.191C45.1548 100.642 44.8635 100.979 44.4848 101.2C44.0975 101.417 43.6654 101.527 43.1886 101.531C42.7033 101.531 42.2153 101.422 41.7247 101.205C41.4578 101.086 41.2245 100.963 41.0248 100.833C40.8125 100.708 40.63 100.587 40.4771 100.468C40.3242 100.349 40.2033 100.239 40.1146 100.138L39.9875 100.42C39.8296 100.769 39.8341 101.114 40.0008 101.454C40.1637 101.802 40.4775 102.079 40.9423 102.285C41.2521 102.422 41.5861 102.483 41.9442 102.468C42.2898 102.457 42.6093 102.379 42.9026 102.233L43.6059 103.557C43.2676 103.734 42.914 103.854 42.5453 103.916C42.1727 103.986 41.7931 103.992 41.4064 103.933C41.016 103.883 40.6314 103.774 40.2526 103.606C39.2456 103.16 38.5835 102.59 38.2664 101.897C37.9493 101.205 37.9909 100.415 38.3913 99.5285L40.2047 95.5138L41.8702 96.2515L41.5699 96.9164L41.6732 96.9621C41.863 96.8621 42.079 96.7839 42.3214 96.7276C42.5599 96.6798 42.817 96.6709 43.0926 96.701C43.3721 96.7225 43.6625 96.8 43.9637 96.9335ZM42.9744 98.0603C42.6302 97.9078 42.3091 97.8525 42.0113 97.8945C41.701 97.9411 41.4317 98.0571 41.2034 98.2424C40.9664 98.4239 40.7883 98.6467 40.669 98.911C40.816 99.0886 40.9984 99.2564 41.2163 99.4143C41.4304 99.5807 41.6622 99.7192 41.9118 99.8298C42.411 100.051 42.7976 100.11 43.0717 100.006C43.3458 99.9024 43.5444 99.7142 43.6676 99.4414C43.7831 99.1857 43.789 98.9326 43.6852 98.682C43.5729 98.4277 43.3359 98.2204 42.9744 98.0603Z" fill="#0F0E2D"/>
<path d="M36.2304 99.5764L35.3596 100.887L34.249 100.163L35.1198 98.8527L36.2304 99.5764ZM36.3386 92.8395C36.9608 93.245 37.3325 93.7388 37.4538 94.3208C37.5698 94.9106 37.4205 95.5175 37.0058 96.1415L33.1886 101.887L31.6408 100.878L35.2715 95.4137C35.4633 95.1251 35.5467 94.8721 35.5219 94.6547C35.4918 94.4451 35.3429 94.253 35.0751 94.0785C34.9491 93.9964 34.8206 93.935 34.6896 93.8943C34.5534 93.8615 34.3689 93.8419 34.1361 93.8355L35.1312 92.3378C35.346 92.3883 35.5543 92.457 35.7562 92.5438C35.9554 92.6178 36.1495 92.7163 36.3386 92.8395ZM33.6901 97.9211L32.8194 99.2315L31.2835 98.2306L32.1542 96.9201L33.6901 97.9211Z" fill="#0F0E2D"/>
<path d="M32.1131 89.223C32.6528 89.7178 33.0249 90.2751 33.2292 90.895C33.4203 91.5154 33.4415 92.1456 33.293 92.7857C33.1312 93.4262 32.7973 94.0171 32.2913 94.5585C31.7854 95.0999 31.2194 95.4718 30.5934 95.6742C29.9606 95.8702 29.3244 95.8978 28.6851 95.7571C28.0388 95.6101 27.4458 95.2892 26.906 94.7944C26.3179 94.2553 25.928 93.6689 25.7364 93.0353C25.5449 92.4017 25.5735 91.7663 25.8222 91.129L27.5481 91.7567C27.4346 92.0981 27.427 92.4155 27.5252 92.7091C27.617 93.0096 27.8013 93.2866 28.0781 93.5404C28.348 93.7877 28.651 93.9446 28.9872 94.011C29.317 94.0843 29.6499 94.065 29.9858 93.953C30.3217 93.841 30.637 93.6274 30.9316 93.3122C31.2262 92.9969 31.4201 92.6657 31.5133 92.3186C31.6001 91.9782 31.5971 91.6447 31.5043 91.3178C31.4051 90.9979 31.2205 90.7142 30.9506 90.4668C30.6462 90.1877 30.3327 90.0213 30.0104 89.9676C29.6816 89.9207 29.3461 89.9567 29.0037 90.0755L28.2889 88.4278C28.9064 88.1795 29.5511 88.1152 30.223 88.2348C30.8949 88.3545 31.5249 88.6839 32.1131 89.223Z" fill="#0F0E2D"/>
<path d="M28.5301 85.9544L20.2814 91.772L19.2066 90.2774L21.2918 88.8067L22.3828 88.1749L22.3172 88.0836C21.928 88.1059 21.5368 88.0206 21.1436 87.828C20.7372 87.6331 20.3973 87.3455 20.1238 86.9652C19.7793 86.486 19.5892 86.0125 19.5537 85.5446C19.5105 85.0821 19.612 84.6437 19.8581 84.2294C20.0988 83.8075 20.4649 83.4232 20.9564 83.0765L24.6084 80.5009L25.6832 81.9955L22.2155 84.4411C21.9544 84.6253 21.7749 84.8264 21.677 85.0444C21.566 85.2603 21.5246 85.4844 21.5527 85.7167C21.5754 85.9414 21.6661 86.1641 21.8247 86.3847C22.0161 86.6509 22.2625 86.8325 22.5638 86.9295C22.8574 87.032 23.172 87.0509 23.5075 86.9862C23.843 86.9216 24.1643 86.7809 24.4715 86.5642L27.4554 84.4598L28.5301 85.9544Z" fill="#0F0E2D"/>
<path d="M20.8378 70.7148C21.0393 71.4346 21.0998 72.1399 21.0192 72.8307C20.927 73.5149 20.7134 74.1501 20.3785 74.7362C20.032 75.3159 19.5851 75.8165 19.0378 76.2381C18.4904 76.6597 17.8624 76.9678 17.1537 77.1624C16.445 77.357 15.7464 77.4132 15.058 77.3308C14.3696 77.2485 13.7307 77.0461 13.1414 76.7234C12.5404 76.3942 12.0271 75.9586 11.6014 75.4166C11.164 74.868 10.8446 74.2338 10.6431 73.514C10.4415 72.7941 10.3869 72.0921 10.4791 71.4078C10.5622 70.7261 10.7757 70.0909 11.1197 69.5023C11.4546 68.9161 11.8958 68.4122 12.4431 67.9906C12.9904 67.569 13.6184 67.2609 14.3271 67.0663C15.0359 66.8717 15.7344 66.8156 16.4228 66.8979C17.1112 66.9802 17.7559 67.1859 18.3569 67.5151C18.9487 67.8468 19.4621 68.2824 19.8969 68.8219C20.3226 69.364 20.6362 69.9949 20.8378 70.7148ZM19.0932 71.1938C18.9244 70.5909 18.6312 70.0852 18.2135 69.6766C17.7958 69.268 17.2967 68.9884 16.7164 68.8376C16.1269 68.6894 15.5006 68.7064 14.8373 68.8885C14.1649 69.0731 13.6192 69.378 13.2 69.8031C12.7809 70.2283 12.4985 70.7225 12.3529 71.2858C12.2073 71.849 12.2188 72.4321 12.3876 73.035C12.5539 73.6288 12.8459 74.1301 13.2636 74.5386C13.6813 74.9472 14.1803 75.2269 14.7607 75.3776C15.341 75.5283 15.9674 75.5114 16.6398 75.3268C17.3031 75.1446 17.8488 74.8397 18.277 74.4121C18.6962 73.9869 18.9785 73.4927 19.1242 72.9295C19.2698 72.3662 19.2595 71.7877 19.0932 71.1938Z" fill="#0F0E2D"/>
<path d="M19.3858 61.0568C19.3973 61.9345 19.1325 62.5963 18.5915 63.0422C18.0504 63.488 17.3084 63.717 16.3656 63.7292L11.9815 63.7856L11.9574 61.9509L16.1153 61.8974C16.6055 61.8911 16.9905 61.7694 17.2703 61.5323C17.5406 61.286 17.6732 60.9762 17.6683 60.6027C17.6635 60.2385 17.5699 59.9316 17.3875 59.6818C17.1956 59.4321 16.9432 59.2439 16.6304 59.1172C16.3174 58.9812 15.9724 58.9156 15.5953 58.9204L11.9183 58.9678L11.8942 57.1331L19.1067 57.0402L19.1293 58.7628L18.2242 58.7745L18.2257 58.8865C18.4538 59.0237 18.6542 59.2032 18.8269 59.4251C18.9995 59.647 19.1348 59.8974 19.2328 60.1763C19.3306 60.4459 19.3816 60.7394 19.3858 61.0568Z" fill="#0F0E2D"/>
<path d="M19.3885 55.2303L12.2687 54.085L12.5476 52.3844L13.4969 52.5371L13.5151 52.4265C13.3114 52.2708 13.1416 52.0827 13.0058 51.8622C12.8623 51.6309 12.7612 51.3734 12.7027 51.0897C12.6441 50.8059 12.6398 50.512 12.6897 50.2078C12.7199 50.0235 12.7611 49.8598 12.8132 49.7168C12.8653 49.5739 12.9237 49.4508 12.9884 49.3477L14.8172 49.6419C14.711 49.8235 14.6188 50.0073 14.5405 50.1934C14.4544 50.3687 14.394 50.5624 14.3592 50.7744C14.3003 51.1338 14.3419 51.4622 14.4842 51.7594C14.6187 52.0459 14.8329 52.2838 15.1266 52.4729C15.4111 52.6606 15.7487 52.7859 16.1396 52.8488L19.6856 53.4192L19.3885 55.2303Z" fill="#0F0E2D"/>
<path d="M23.0529 43.2451C22.8178 43.7649 22.4972 44.2111 22.0911 44.5835C21.6889 44.9473 21.2171 45.2138 20.6757 45.3829C20.1296 45.5397 19.534 45.5774 18.889 45.4959L18.9778 43.5862C19.4878 43.6692 19.9652 43.6302 20.4099 43.4694C20.8546 43.3085 21.1868 42.9852 21.4065 42.4995C21.5144 42.2608 21.5778 42.0178 21.5967 41.7704C21.607 41.5192 21.5593 41.2934 21.4536 41.0931C21.3518 40.8842 21.1804 40.7263 20.9395 40.6194C20.7071 40.5164 20.4842 40.484 20.2706 40.5223C20.0483 40.5567 19.8044 40.6736 19.5386 40.8729C19.2681 41.0598 18.9508 41.3386 18.5869 41.7092L18.126 42.1801C17.9196 42.3852 17.6897 42.5851 17.4364 42.7797C17.1783 42.9619 16.8979 43.1138 16.595 43.2352C16.2873 43.3443 15.9669 43.4017 15.6338 43.4074C15.3006 43.4131 14.9576 43.3377 14.6048 43.1812C14.1229 42.9674 13.7442 42.6511 13.4687 42.2322C13.1847 41.8095 13.0267 41.325 12.9948 40.7788C12.9628 40.2326 13.0799 39.6655 13.3458 39.0775C13.6233 38.4639 13.9602 38.0046 14.3565 37.6994C14.7442 37.3905 15.1387 37.1921 15.5401 37.1041C15.9453 37.0076 16.3111 36.9755 16.6375 37.0077L16.5949 38.8151C16.3997 38.7899 16.1976 38.8026 15.9888 38.8532C15.7799 38.9038 15.5858 39.0019 15.4063 39.1474C15.2269 39.2929 15.0774 39.4977 14.9579 39.7619C14.8462 40.009 14.789 40.2497 14.7864 40.4838C14.7752 40.7142 14.8177 40.9172 14.9139 41.0929C15.0014 41.2648 15.1399 41.3927 15.3292 41.4766C15.6046 41.5988 15.8932 41.5887 16.1952 41.4464C16.5011 41.2956 16.8576 40.9984 17.2648 40.5549L17.7186 40.0656C17.9769 39.7914 18.249 39.5437 18.535 39.3227C18.8162 39.0893 19.1207 38.9072 19.4485 38.7763C19.7763 38.6455 20.124 38.5848 20.4916 38.5944C20.863 38.5955 21.2639 38.6914 21.6941 38.8823C22.1674 39.0922 22.5381 39.3692 22.8061 39.7132C23.0741 40.0571 23.2506 40.4322 23.3356 40.8382C23.4206 41.2442 23.4342 41.6595 23.3765 42.0841C23.3226 42.5002 23.2148 42.8872 23.0529 43.2451Z" fill="#0F0E2D"/>
<path d="M20.0433 36.3805L18.7227 35.5142L19.4568 34.4165L20.7775 35.2828L20.0433 36.3805ZM26.8456 36.508C26.4343 37.123 25.9346 37.4897 25.3466 37.6079C24.7506 37.7211 24.1383 37.5714 23.5094 37.1588L17.7198 33.3611L18.743 31.8314L24.2495 35.4435C24.5404 35.6343 24.7956 35.7177 25.0152 35.6937C25.2269 35.6646 25.4213 35.5177 25.5984 35.253C25.6817 35.1285 25.7441 35.0014 25.7855 34.8718C25.8191 34.737 25.8395 34.5544 25.8466 34.3238L27.3559 35.3139C27.3043 35.5264 27.2343 35.7325 27.1459 35.9322C27.0707 36.1292 26.9706 36.3212 26.8456 36.508ZM21.7225 33.8698L20.4019 33.0036L21.4172 31.4855L22.7378 32.3518L21.7225 33.8698Z" fill="#0F0E2D"/>
<path d="M30.5645 32.2805C30.045 32.8221 29.4643 33.1903 28.8225 33.385C28.1802 33.5665 27.537 33.5797 26.8927 33.4244C26.248 33.2559 25.6625 32.9241 25.136 32.4289C24.6096 31.9338 24.2482 31.375 24.0519 30.7525C23.8553 30.1168 23.8354 29.48 23.9922 28.8419C24.1487 28.1906 24.4866 27.5941 25.0061 27.0525C25.5256 26.5108 26.1064 26.1492 26.7486 25.9677C27.3908 25.7862 28.0308 25.7765 28.6687 25.9385C29.313 26.0938 29.8983 26.419 30.4248 26.9142C30.9512 27.4093 31.3128 27.9747 31.5094 28.6104C31.7056 29.2329 31.7288 29.8663 31.5788 30.5108C31.422 31.1489 31.0839 31.7388 30.5645 32.2805ZM29.3133 31.1037C29.5601 30.8464 29.726 30.5581 29.811 30.2389C29.8957 29.9065 29.887 29.5699 29.7847 29.229C29.6822 28.875 29.4702 28.5469 29.1489 28.2446C28.8275 27.9424 28.4891 27.7529 28.1336 27.6761C27.7847 27.5925 27.4447 27.6012 27.1139 27.7021C26.7895 27.7963 26.5072 27.9686 26.267 28.2191C26.0202 28.4764 25.8513 28.7746 25.76 29.1138C25.6753 29.4462 25.6808 29.7862 25.7766 30.1339C25.8788 30.4747 26.0906 30.7962 26.4119 31.0985C26.7333 31.4007 27.0719 31.5968 27.4277 31.6868C27.7832 31.7636 28.1263 31.7515 28.4572 31.6506C28.7877 31.5365 29.0731 31.3542 29.3133 31.1037Z" fill="#0F0E2D"/>
<path d="M34.4391 28.3959L30.1988 22.6172L31.6061 21.6044L32.1714 22.3749L32.263 22.3091C32.2291 22.0564 32.2424 21.8045 32.3028 21.5532C32.3653 21.2889 32.4766 21.0356 32.6368 20.7934C32.7971 20.5511 33.003 20.3394 33.2548 20.1582C33.4073 20.0484 33.5529 19.961 33.6916 19.8958C33.8303 19.8306 33.9592 19.784 34.0785 19.7559L35.1677 21.2402C34.9631 21.2951 34.7669 21.3612 34.579 21.4387C34.3932 21.5032 34.2126 21.5986 34.0372 21.7248C33.7397 21.9389 33.5358 22.2011 33.4254 22.5113C33.3172 22.8086 33.3001 23.1268 33.3741 23.4659C33.4426 23.7976 33.5933 24.122 33.8261 24.4393L35.9379 27.3173L34.4391 28.3959Z" fill="#0F0E2D"/>
<path d="M43.0659 26.1868C43.0699 26.2578 43.0697 26.3205 43.0653 26.3747C43.0735 26.4332 43.0797 26.4875 43.0837 26.5377L41.2973 27.4154C41.2976 27.3318 41.2897 27.1585 41.2736 26.8954C41.2702 26.6365 41.2646 26.4151 41.2567 26.2313C41.2571 26.1061 41.2513 25.9474 41.2393 25.7552C41.2272 25.5631 41.2152 25.371 41.2031 25.1788C41.2037 24.9909 41.2042 24.8448 41.2045 24.7404L41.1052 22.1154L41.045 21.1443L40.6616 16.3763L42.5114 15.4674L42.9883 24.7083C43.0043 24.9714 43.0142 25.2011 43.0178 25.3974C43.0298 25.5895 43.0399 25.7462 43.0479 25.8673C43.0601 25.9968 43.0661 26.1033 43.0659 26.1868ZM41.359 23.8827L35.3909 18.9658L37.2787 18.0383L40.9437 21.1941L41.1337 21.1008L41.359 23.8827Z" fill="#0F0E2D"/>
<path d="M50.1957 15.7476L48.9911 15.1967L49.7235 13.6555L49.6573 13.5399L48.0688 13.3062L48.2566 11.9993L49.8147 12.2247L49.9314 12.1592L49.6209 10.5923L50.9255 10.3388L51.236 11.9056L51.3552 11.9253L52.7256 11.1308L53.3982 12.2705L52.0167 13.0814L51.9996 13.2131L53.2657 14.3659L52.3608 15.3268L51.0614 14.152L50.9504 14.1736L50.1957 15.7476Z" fill="#0F0E2D"/>
<defs>
<clipPath id="clip0_523_253">
<rect width="16.6154" height="16.6154" fill="white" transform="translate(53.0958 51.3804)"/>
</clipPath>
</defs>
</svg>
