<svg width="121" height="121" viewBox="0 0 121 121" fill="none" xmlns="http://www.w3.org/2000/svg">
<g clip-path="url(#clip0_742_541)">
<path d="M400 1C407.732 1 414 7.26801 414 15V436.2C414 439.913 412.525 443.474 409.899 446.1L309.101 546.899C306.475 549.525 302.914 551 299.201 551H15C7.26801 551 1 544.732 1 537V121H121V1H400ZM121 1H117.798C114.085 1.00004 110.524 2.47511 107.898 5.10059L5.10059 107.898C2.47512 110.524 1.00004 114.085 1 117.798V121H0V0H121V1Z" fill="#D9D9D9"/>
</g>
<defs>
<clipPath id="clip0_742_541">
<rect width="121" height="121" fill="white"/>
</clipPath>
</defs>
</svg>
